<?xml version="1.0" encoding="utf-8"?>
<!-- Generator: Adobe Illustrator 17.1.0, SVG Export Plug-In . SVG Version: 6.00 Build 0)  -->
<!DOCTYPE svg PUBLIC "-//W3C//DTD SVG 1.1//EN" "http://www.w3.org/Graphics/SVG/1.1/DTD/svg11.dtd">
<svg version="1.1"
	 id="svg4235" xmlns:dc="http://purl.org/dc/elements/1.1/" xmlns:cc="http://creativecommons.org/ns#" xmlns:rdf="http://www.w3.org/1999/02/22-rdf-syntax-ns#" xmlns:svg="http://www.w3.org/2000/svg" xmlns:sodipodi="http://sodipodi.sourceforge.net/DTD/sodipodi-0.dtd" xmlns:inkscape="http://www.inkscape.org/namespaces/inkscape" sodipodi:docname="logo.svg" inkscape:version="0.91 r13725"
	 xmlns="http://www.w3.org/2000/svg" xmlns:xlink="http://www.w3.org/1999/xlink" x="0px" y="0px" viewBox="0 0 245.6 21"
	 enable-background="new 0 0 245.6 21" xml:space="preserve">
<sodipodi:namedview  units="px" showborder="false" showgrid="false" inkscape:cy="7.8205144" inkscape:cx="155.07989" inkscape:zoom="8" borderopacity="0" bordercolor="#666666" pagecolor="#ffffff" id="base" inkscape:window-maximized="1" inkscape:window-y="-8" inkscape:current-layer="layer2" inkscape:pageshadow="2" inkscape:document-units="px" inkscape:pageopacity="0" inkscape:window-height="706" inkscape:window-x="-8" inkscape:window-width="1366">
	</sodipodi:namedview>
<g id="layer1" transform="translate(0,-1031.3622)" inkscape:label="Layer 1" inkscape:groupmode="layer" display="none">
	<g id="g4853" transform="translate(-360.50772,557.20573)" display="inline">
		<path id="path56" inkscape:connector-curvature="0" fill="#CD9C71" d="M360.8,475.1h1.4v7.9h2.6v1.3h-4V475.1z M366,475.1h1.4v9.2
			H366V475.1z M370.8,484.3h-1.4v-9.8l6.5,6.9v-6.3h1.4v9.7l-6.5-6.9V484.3z M384,480.8v-1.3h3.7v0.3c0,0.7-0.1,1.2-0.2,1.7
			c-0.1,0.5-0.3,0.9-0.6,1.2c-0.4,0.6-0.9,1-1.5,1.3c-0.6,0.3-1.2,0.4-1.9,0.4c-0.6,0-1.2-0.1-1.7-0.3s-1-0.6-1.5-1
			c-0.5-0.5-0.8-1-1-1.6c-0.2-0.6-0.3-1.2-0.3-1.8c0-0.6,0.1-1.2,0.3-1.8c0.2-0.6,0.5-1.1,1-1.6c0.4-0.5,0.9-0.8,1.5-1
			c0.6-0.2,1.2-0.4,1.9-0.4c0.5,0,1,0.1,1.4,0.2c0.5,0.1,0.9,0.4,1.3,0.7c0.2,0.1,0.4,0.3,0.5,0.5c0.2,0.2,0.3,0.3,0.5,0.5l-1,0.9
			c-0.3-0.5-0.7-0.8-1.2-1.1c-0.5-0.3-1-0.4-1.6-0.4c-0.9,0-1.7,0.3-2.3,1c-0.6,0.7-0.9,1.5-0.9,2.5c0,1,0.3,1.8,0.9,2.5
			c0.6,0.6,1.4,1,2.3,1c0.7,0,1.3-0.2,1.8-0.7c0.5-0.4,0.8-1,0.9-1.7L384,480.8L384,480.8z M394.2,475.1v1.3h-3.6v2.2h3.4v1.3h-3.4
			v3h3.6v1.3h-4.9v-9.2L394.2,475.1L394.2,475.1z M395.9,475.1h1.6c0.6,0,1.1,0.1,1.4,0.1c0.4,0.1,0.7,0.2,0.9,0.4
			c0.3,0.2,0.6,0.6,0.8,0.9c0.2,0.4,0.3,0.8,0.3,1.2c0,0.7-0.2,1.2-0.5,1.7c-0.4,0.5-0.8,0.8-1.4,0.9l2.8,3.9h-1.7l-2.5-3.8h-0.2
			v3.8h-1.4L395.9,475.1L395.9,475.1z M397.3,476.4v2.9h0.4c0.6,0,1.1-0.1,1.4-0.4c0.3-0.3,0.5-0.6,0.5-1.1c0-0.5-0.1-0.8-0.4-1
			c-0.3-0.2-0.7-0.3-1.4-0.4H397.3L397.3,476.4z M403,475.1h1.4v9.2H403V475.1z M411.4,475.1v1.3h-3.6v2.2h3.5v1.3h-3.5v3h3.6v1.3
			h-4.9v-9.2L411.4,475.1L411.4,475.1z M421,476.5l-1.1,0.7c0-0.1-0.1-0.2-0.2-0.3c-0.1-0.1-0.1-0.2-0.2-0.3
			c-0.1-0.1-0.3-0.2-0.4-0.2s-0.3-0.1-0.5-0.1c-0.4,0-0.7,0.1-0.9,0.3c-0.2,0.2-0.4,0.5-0.4,0.8c0,0.2,0.1,0.5,0.2,0.6
			c0.1,0.2,0.4,0.3,0.7,0.5l0.9,0.4c0.7,0.3,1.3,0.7,1.6,1.1s0.5,1,0.5,1.6c0,0.9-0.3,1.6-0.8,2.1c-0.5,0.5-1.2,0.8-2.1,0.8
			c-0.4,0-0.8-0.1-1.2-0.2c-0.4-0.1-0.7-0.4-0.9-0.7c-0.2-0.2-0.4-0.5-0.5-0.8c-0.1-0.3-0.2-0.6-0.2-1l1.4-0.3c0,0.2,0,0.4,0.1,0.6
			c0.1,0.2,0.2,0.4,0.3,0.5c0.1,0.2,0.3,0.3,0.5,0.4c0.2,0.1,0.4,0.1,0.7,0.1c0.4,0,0.8-0.1,1.1-0.4c0.3-0.3,0.4-0.6,0.4-1.1
			c0-0.3-0.1-0.6-0.3-0.9c-0.2-0.2-0.5-0.5-1-0.7l-0.9-0.4c-0.6-0.3-1.1-0.6-1.4-1c-0.3-0.4-0.5-0.8-0.5-1.4c0-0.7,0.3-1.3,0.8-1.8
			c0.5-0.5,1.1-0.7,1.9-0.7c0.4,0,0.7,0.1,1,0.2c0.3,0.1,0.5,0.3,0.8,0.5c0.1,0.1,0.3,0.3,0.4,0.4S420.9,476.3,421,476.5L421,476.5z
			 M424.3,475.1v3.6h3.8v-3.6h1.4v9.2h-1.4V480h-3.8v4.3h-1.4v-9.2H424.3z M435.8,474.9c1.3,0,2.4,0.5,3.3,1.4
			c0.9,0.9,1.3,2.1,1.3,3.4c0,1.4-0.5,2.5-1.3,3.4s-2,1.4-3.3,1.4c-1.3,0-2.4-0.5-3.3-1.4c-0.9-0.9-1.3-2-1.3-3.4
			c0-1.4,0.4-2.5,1.3-3.4C433.3,475.4,434.4,474.9,435.8,474.9z M435.8,483.1c0.9,0,1.7-0.3,2.3-1c0.6-0.6,0.9-1.5,0.9-2.5
			c0-1-0.3-1.8-0.9-2.5c-0.6-0.6-1.4-1-2.3-1c-0.9,0-1.7,0.3-2.3,1c-0.6,0.7-0.9,1.5-0.9,2.5c0,1,0.3,1.8,0.9,2.5
			C434,482.8,434.8,483.1,435.8,483.1z M440.8,475.1h1.5l2.3,6.1l2.4-6.6l2.3,6.6l2.4-6.1h1.5l-4,9.8l-2.3-6.5l-2.4,6.5L440.8,475.1
			z M453.9,482v-1.4h3.2v1.4H453.9z M463.1,475.1v1.3H460v2.2h3v1.3h-3v4.4h-1.4v-9.2L463.1,475.1L463.1,475.1z M468.8,474.9
			c1.3,0,2.4,0.5,3.3,1.4c0.9,0.9,1.3,2.1,1.3,3.4c0,1.4-0.5,2.5-1.3,3.4s-2,1.4-3.3,1.4c-1.3,0-2.4-0.5-3.3-1.4
			c-0.9-0.9-1.3-2-1.3-3.4c0-1.4,0.4-2.5,1.3-3.4C466.4,475.4,467.5,474.9,468.8,474.9z M468.8,483.1c0.9,0,1.7-0.3,2.3-1
			c0.6-0.6,0.9-1.5,0.9-2.5c0-1-0.3-1.8-0.9-2.5c-0.6-0.6-1.4-1-2.3-1c-0.9,0-1.7,0.3-2.3,1c-0.6,0.7-0.9,1.5-0.9,2.5
			c0,1,0.3,1.8,0.9,2.5C467.1,482.8,467.9,483.1,468.8,483.1z M475.1,475.1h1.6c0.6,0,1.1,0.1,1.4,0.1c0.4,0.1,0.7,0.2,0.9,0.4
			c0.3,0.2,0.6,0.6,0.8,0.9c0.2,0.4,0.3,0.8,0.3,1.2c0,0.7-0.2,1.2-0.5,1.7c-0.4,0.5-0.8,0.8-1.4,0.9l2.8,3.9h-1.7l-2.5-3.8h-0.2
			v3.8h-1.4L475.1,475.1L475.1,475.1z M476.5,476.4v2.9h0.4c0.6,0,1.1-0.1,1.4-0.4c0.3-0.3,0.5-0.6,0.5-1.1c0-0.5-0.1-0.8-0.4-1
			c-0.3-0.2-0.7-0.3-1.4-0.4H476.5z M482.2,475.1h1.4v5.5c0,0.4,0,0.7,0.1,1c0,0.2,0.1,0.4,0.2,0.6c0.2,0.3,0.4,0.5,0.7,0.7
			c0.3,0.2,0.6,0.2,1,0.2s0.7-0.1,1-0.2c0.3-0.2,0.5-0.4,0.7-0.7c0.1-0.2,0.2-0.4,0.2-0.6c0-0.2,0.1-0.5,0.1-1v-5.5h1.4v5.9
			c0,0.5-0.1,0.9-0.2,1.3c-0.1,0.4-0.3,0.8-0.6,1.1c-0.3,0.4-0.7,0.6-1.1,0.8c-0.4,0.2-0.9,0.3-1.4,0.3c-0.5,0-1-0.1-1.4-0.3
			c-0.4-0.2-0.8-0.5-1.1-0.8c-0.3-0.3-0.5-0.7-0.6-1.1c-0.1-0.4-0.2-0.8-0.2-1.3V475.1L482.2,475.1z M492,484.3h-1.4l1.9-9.9
			l3.1,7.1l3.1-7.1l1.7,9.9H499l-0.9-5.5l-2.6,5.9l-2.6-6L492,484.3"/>
		<path id="path58" inkscape:connector-curvature="0" fill="#FFFFFF" d="M361.3,489.4h-0.5l0.7-3.4l1.1,2.5l1.1-2.5l0.6,3.4h-0.5
			l-0.3-1.9l-0.9,2.1l-0.9-2.1L361.3,489.4z M367.8,486.2v0.5h-1.3v0.8h1.2v0.5h-1.2v1.1h1.3v0.5H366v-3.2L367.8,486.2L367.8,486.2z
			 M371.5,486.2v1.3l1.1-1.3h0.6l-1.3,1.5l1.4,1.7h-0.6l-1.2-1.5v1.5H371v-1.5l-1.2,1.5h-0.6l1.4-1.7l-1.3-1.5h0.6l1.1,1.3v-1.3
			H371.5z M375.1,486.2h2v2.8h0.4v1.2H377v-0.7h-2.1v0.7h-0.5v-1.2c0.1,0,0.2,0,0.3-0.1c0.1-0.1,0.2-0.2,0.2-0.3
			c0-0.1,0.1-0.2,0.1-0.3c0-0.1,0-0.3,0-0.5L375.1,486.2L375.1,486.2z M375.6,486.6v1c0,0.2,0,0.4,0,0.5c0,0.1,0,0.3-0.1,0.4
			c0,0.1-0.1,0.2-0.1,0.2c0,0.1-0.1,0.1-0.1,0.2h1.4v-2.3H375.6L375.6,486.6z M378.7,486.2h0.6l0.8,1.6l0.7-1.6h0.5l-1.5,3.2h-0.5
			l0.4-1L378.7,486.2L378.7,486.2z M383.4,486.2v1.3h1.4v-1.3h0.5v3.2h-0.5v-1.5h-1.4v1.5h-0.5v-3.2H383.4z M389.4,489.4l-0.3-0.8
			h-1.4l-0.4,0.8h-0.5l1.6-3.4l1.5,3.4H389.4z M387.9,488.1h1l-0.5-1.1L387.9,488.1L387.9,488.1z M391.4,486.2h0.7
			c0.2,0,0.3,0,0.4,0c0.1,0,0.2,0.1,0.3,0.1c0.1,0.1,0.2,0.2,0.3,0.3c0.1,0.1,0.1,0.3,0.1,0.4c0,0.1,0,0.3-0.1,0.4
			c-0.1,0.1-0.1,0.2-0.2,0.3c-0.1,0.1-0.2,0.2-0.4,0.2c-0.1,0-0.3,0.1-0.4,0.1h-0.2v1.3h-0.5V486.2z M391.9,486.6v1h0.2
			c0.2,0,0.3,0,0.4-0.1c0.1-0.1,0.2-0.2,0.2-0.4c0-0.2-0.1-0.3-0.2-0.4c-0.1-0.1-0.3-0.1-0.4-0.1H391.9L391.9,486.6z M396.4,486.1
			c0.5,0,0.9,0.2,1.2,0.5c0.3,0.3,0.5,0.7,0.5,1.2c0,0.5-0.2,0.9-0.5,1.2c-0.3,0.3-0.7,0.5-1.2,0.5c-0.5,0-0.9-0.2-1.2-0.5
			s-0.5-0.7-0.5-1.2c0-0.5,0.2-0.9,0.5-1.2C395.5,486.3,395.9,486.1,396.4,486.1z M396.4,489c0.3,0,0.6-0.1,0.8-0.3
			c0.2-0.2,0.3-0.5,0.3-0.9c0-0.4-0.1-0.6-0.3-0.9c-0.2-0.2-0.5-0.3-0.8-0.3c-0.3,0-0.6,0.1-0.8,0.3c-0.2,0.2-0.3,0.5-0.3,0.9
			c0,0.4,0.1,0.6,0.3,0.9C395.8,488.9,396,489,396.4,489z M400,486.2h2v2.8h0.4v1.2h-0.5v-0.7h-2.1v0.7h-0.5v-1.2
			c0.1,0,0.2,0,0.3-0.1c0.1-0.1,0.2-0.2,0.2-0.3c0-0.1,0.1-0.2,0.1-0.3c0-0.1,0-0.3,0-0.5L400,486.2L400,486.2z M400.5,486.6v1
			c0,0.2,0,0.4,0,0.5c0,0.1,0,0.3-0.1,0.4c0,0.1-0.1,0.2-0.1,0.2c0,0.1-0.1,0.1-0.1,0.2h1.4v-2.3H400.5L400.5,486.6z M404.4,486.2
			v1.3h1.4v-1.3h0.5v3.2h-0.5v-1.5h-1.4v1.5H404v-3.2H404.4z M410.4,489.4l-0.3-0.8h-1.4l-0.4,0.8h-0.5l1.6-3.4l1.5,3.4H410.4
			L410.4,489.4z M408.9,488.1h1l-0.5-1.1L408.9,488.1L408.9,488.1z M412.2,489.4l1-1.3c-0.1,0-0.2,0-0.3-0.1c-0.1,0-0.2-0.1-0.2-0.1
			c-0.1-0.1-0.2-0.2-0.2-0.3c0-0.1-0.1-0.2-0.1-0.4c0-0.1,0-0.3,0.1-0.4c0-0.1,0.1-0.2,0.2-0.3c0.1-0.1,0.2-0.2,0.3-0.2
			c0.1-0.1,0.3-0.1,0.5-0.1h0.8v3.2h-0.5v-1.3h-0.1l-0.9,1.3H412.2L412.2,489.4z M413.8,486.6h-0.2c-0.1,0-0.3,0-0.3,0
			c-0.1,0-0.2,0.1-0.2,0.1c0,0-0.1,0.1-0.1,0.2c0,0.1,0,0.1,0,0.2c0,0.1,0,0.2,0,0.2c0,0.1,0.1,0.1,0.1,0.2c0,0,0.1,0.1,0.2,0.1
			c0.1,0,0.2,0,0.3,0h0.3V486.6z M418.3,486.2h0.5c0.2,0,0.4,0,0.5,0c0.1,0,0.2,0.1,0.3,0.1c0.1,0.1,0.2,0.2,0.3,0.3
			c0.1,0.1,0.1,0.3,0.1,0.4c0,0.1,0,0.2-0.1,0.3c0,0.1-0.1,0.2-0.2,0.3c0.2,0.1,0.3,0.2,0.4,0.3c0.1,0.1,0.2,0.3,0.2,0.5
			c0,0.1,0,0.3-0.1,0.4s-0.1,0.2-0.2,0.3c-0.1,0.1-0.2,0.1-0.3,0.2c-0.1,0-0.3,0.1-0.5,0.1h-0.7L418.3,486.2L418.3,486.2z
			 M418.8,486.6v0.9h0.1c0.2,0,0.3,0,0.4-0.1c0.1-0.1,0.1-0.2,0.1-0.4c0-0.1,0-0.2-0.1-0.3c-0.1-0.1-0.2-0.1-0.4-0.1H418.8
			L418.8,486.6z M418.8,488v1h0.3c0.2,0,0.4,0,0.5-0.1c0.1-0.1,0.2-0.2,0.2-0.4c0-0.1-0.1-0.3-0.2-0.4c-0.1-0.1-0.3-0.1-0.5-0.1
			L418.8,488L418.8,488z M421.9,489.4v-3.2h0.5v1.3h0.4c0.2,0,0.3,0,0.5,0.1c0.1,0,0.3,0.1,0.4,0.2c0.1,0.1,0.2,0.2,0.2,0.3
			c0.1,0.1,0.1,0.3,0.1,0.4c0,0.2,0,0.3-0.1,0.4c-0.1,0.1-0.2,0.3-0.3,0.3c-0.1,0.1-0.2,0.1-0.3,0.1s-0.2,0-0.4,0L421.9,489.4
			L421.9,489.4z M422.4,487.9v1h0.3c0.2,0,0.4,0,0.5-0.1c0.1-0.1,0.2-0.2,0.2-0.4c0-0.2-0.1-0.3-0.2-0.4c-0.1-0.1-0.3-0.1-0.5-0.1
			H422.4z M424.2,486.2h0.5v3.2h-0.5V486.2z M429,486.3v0.6c-0.1-0.1-0.3-0.2-0.4-0.3c-0.1-0.1-0.3-0.1-0.5-0.1
			c-0.3,0-0.6,0.1-0.8,0.3c-0.2,0.2-0.3,0.5-0.3,0.9c0,0.3,0.1,0.6,0.3,0.9c0.2,0.2,0.5,0.3,0.8,0.3c0.2,0,0.3,0,0.5-0.1
			c0.1-0.1,0.3-0.2,0.4-0.3v0.6c-0.1,0.1-0.3,0.2-0.4,0.2c-0.1,0-0.3,0.1-0.4,0.1c-0.2,0-0.4,0-0.6-0.1c-0.2-0.1-0.4-0.2-0.5-0.3
			c-0.2-0.2-0.3-0.3-0.4-0.5s-0.1-0.4-0.1-0.7c0-0.3,0-0.5,0.1-0.7c0.1-0.2,0.2-0.4,0.4-0.6c0.1-0.1,0.3-0.2,0.5-0.3
			c0.2-0.1,0.4-0.1,0.7-0.1c0.2,0,0.3,0,0.5,0.1C428.7,486.2,428.9,486.3,429,486.3z M432.3,486.6h-0.7v2.8h-0.5v-2.8h-0.7v-0.5h2
			V486.6z M435.9,489.4l-0.3-0.8h-1.4l-0.4,0.8h-0.5l1.6-3.4l1.5,3.4H435.9z M434.4,488.1h1l-0.5-1.1L434.4,488.1z M438,486.2h0.5
			c0.2,0,0.4,0,0.5,0c0.1,0,0.2,0.1,0.3,0.1c0.1,0.1,0.2,0.2,0.3,0.3c0.1,0.1,0.1,0.3,0.1,0.4c0,0.1,0,0.2-0.1,0.3
			c0,0.1-0.1,0.2-0.2,0.3c0.2,0.1,0.3,0.2,0.4,0.3c0.1,0.1,0.2,0.3,0.2,0.5c0,0.1,0,0.3-0.1,0.4s-0.1,0.2-0.2,0.3
			c-0.1,0.1-0.2,0.1-0.3,0.2c-0.1,0-0.3,0.1-0.5,0.1H438L438,486.2L438,486.2z M438.5,486.6v0.9h0.1c0.2,0,0.3,0,0.4-0.1
			c0.1-0.1,0.1-0.2,0.1-0.4c0-0.1,0-0.2-0.1-0.3c-0.1-0.1-0.2-0.1-0.4-0.1H438.5L438.5,486.6z M438.5,488v1h0.3c0.2,0,0.4,0,0.5-0.1
			c0.1-0.1,0.2-0.2,0.2-0.4c0-0.1-0.1-0.3-0.2-0.4c-0.1-0.1-0.3-0.1-0.5-0.1L438.5,488L438.5,488z M442.1,486.2v1.3l1.2-1.3h0.6
			l-1.4,1.5l1.5,1.8h-0.6l-1.2-1.5v1.5h-0.5v-3.2L442.1,486.2L442.1,486.2z M447.8,489.4l-0.3-0.8h-1.4l-0.4,0.8h-0.5l1.6-3.4
			l1.5,3.4H447.8z M446.3,488.1h1l-0.5-1.1L446.3,488.1z M452.5,486.2v1.3h1.4v-1.3h0.5v3.2h-0.5v-1.5h-1.4v1.5H452v-3.2H452.5z
			 M458.4,489.4v-2.2l-2.2,2.3v-3.3h0.5v2.2l2.2-2.3v3.3H458.4z M462.6,486.2v1.3l1.1-1.3h0.6l-1.3,1.5l1.4,1.7h-0.6l-1.2-1.5v1.5
			h-0.5v-1.5l-1.2,1.5h-0.6l1.4-1.7l-1.3-1.5h0.6l1.1,1.3v-1.3H462.6L462.6,486.2z M466.4,486.2v1.3h1.4v-1.3h0.5v3.2h-0.5v-1.5
			h-1.4v1.5h-0.5v-3.2H466.4z M471.9,486.2v0.5h-1.3v0.8h1.2v0.5h-1.2v1.1h1.3v0.5h-1.8v-3.2L471.9,486.2L471.9,486.2z M475.3,486.2
			v0.5h-1.1v2.8h-0.5v-3.2H475.3L475.3,486.2z M478.1,486.1c0.5,0,0.9,0.2,1.2,0.5c0.3,0.3,0.5,0.7,0.5,1.2c0,0.5-0.2,0.9-0.5,1.2
			c-0.3,0.3-0.7,0.5-1.2,0.5c-0.5,0-0.9-0.2-1.2-0.5c-0.3-0.3-0.5-0.7-0.5-1.2c0-0.5,0.2-0.9,0.5-1.2
			C477.2,486.3,477.6,486.1,478.1,486.1z M478.1,489c0.3,0,0.6-0.1,0.8-0.3c0.2-0.2,0.3-0.5,0.3-0.9c0-0.4-0.1-0.6-0.3-0.9
			c-0.2-0.2-0.5-0.3-0.8-0.3c-0.3,0-0.6,0.1-0.8,0.3c-0.2,0.2-0.3,0.5-0.3,0.9c0,0.4,0.1,0.6,0.3,0.9
			C477.5,488.9,477.8,489,478.1,489z M483.6,489.4v-3.2h1.6v0.5h-1.1v0.8h0.3c0.2,0,0.3,0,0.5,0.1c0.1,0,0.2,0.1,0.3,0.2
			c0.1,0.1,0.2,0.2,0.2,0.3c0.1,0.1,0.1,0.3,0.1,0.4c0,0.2,0,0.3-0.1,0.4c-0.1,0.1-0.2,0.3-0.3,0.3c-0.1,0.1-0.2,0.1-0.3,0.1
			s-0.2,0-0.4,0L483.6,489.4L483.6,489.4z M484.1,487.9v1h0.3c0.2,0,0.4,0,0.5-0.1c0.1-0.1,0.2-0.2,0.2-0.4s-0.1-0.3-0.2-0.4
			c-0.1-0.1-0.3-0.1-0.5-0.1H484.1L484.1,487.9z M489,486.2v0.5h-1.3v0.8h1.2v0.5h-1.2v1.1h1.3v0.5h-1.8v-3.2L489,486.2L489,486.2z
			 M491.1,486.2h2v3.2h-0.5v-2.8h-1.1v1.6c0,0.3,0,0.5-0.1,0.6c-0.1,0.1-0.1,0.3-0.2,0.4c-0.1,0.1-0.2,0.1-0.3,0.1
			c-0.1,0-0.2,0-0.3,0c0,0-0.1,0-0.1,0c0,0-0.1,0-0.1,0v-0.5c0,0,0.1,0,0.1,0c0,0,0.1,0,0.1,0c0.1,0,0.1,0,0.2,0
			c0.1,0,0.1,0,0.1-0.1c0.1-0.1,0.1-0.1,0.1-0.3c0-0.1,0-0.3,0-0.5L491.1,486.2L491.1,486.2z M495,489.4v-3.2h0.5v1.3h0.4
			c0.2,0,0.3,0,0.5,0.1c0.1,0,0.3,0.1,0.4,0.2c0.1,0.1,0.2,0.2,0.2,0.3c0.1,0.1,0.1,0.3,0.1,0.4c0,0.2,0,0.3-0.1,0.4
			c-0.1,0.1-0.2,0.3-0.3,0.3c-0.1,0.1-0.2,0.1-0.3,0.1c-0.1,0-0.2,0-0.4,0L495,489.4L495,489.4z M495.5,487.9v1h0.3
			c0.2,0,0.4,0,0.5-0.1c0.1-0.1,0.2-0.2,0.2-0.4c0-0.2-0.1-0.3-0.2-0.4c-0.1-0.1-0.3-0.1-0.5-0.1H495.5z M498.3,489.4l1-1.3
			c-0.1,0-0.2,0-0.3-0.1c-0.1,0-0.2-0.1-0.2-0.1c-0.1-0.1-0.2-0.2-0.2-0.3c0-0.1-0.1-0.2-0.1-0.4c0-0.1,0-0.3,0.1-0.4
			c0-0.1,0.1-0.2,0.2-0.3c0.1-0.1,0.2-0.2,0.3-0.2c0.1-0.1,0.3-0.1,0.5-0.1h0.8v3.2h-0.5v-1.3h-0.1l-0.9,1.3H498.3L498.3,489.4z
			 M499.9,486.6h-0.2c-0.1,0-0.3,0-0.3,0c-0.1,0-0.2,0.1-0.2,0.1c0,0-0.1,0.1-0.1,0.2c0,0.1,0,0.1,0,0.2c0,0.1,0,0.2,0,0.2
			c0,0.1,0.1,0.1,0.1,0.2c0,0,0.1,0.1,0.2,0.1c0.1,0,0.2,0,0.3,0h0.3L499.9,486.6"/>
		<path id="path60" inkscape:connector-curvature="0" fill="#FFFFFF" d="M361.3,491v1.3l1.2-1.3h0.6l-1.5,1.4l1.5,1.7h-0.7l-1.2-1.5
			v1.5h-0.5V491H361.3z M363.4,491h0.6l0.8,1.6l0.7-1.6h0.5l-1.5,3.2h-0.5l0.4-1L363.4,491L363.4,491z M366.6,491h2.4v3.2h-0.5v-2.7
			h-1.4v2.7h-0.5L366.6,491L366.6,491z M372,494.2l-0.3-0.8h-1.4l-0.4,0.8h-0.5l1.6-3.4l1.5,3.4H372L372,494.2z M370.5,492.9h1
			l-0.5-1.1L370.5,492.9z M373.4,491h2.1v3.2h-0.5v-2.7h-1.1v1.6c0,0.3,0,0.5-0.1,0.6c-0.1,0.1-0.1,0.3-0.2,0.3
			c-0.1,0.1-0.2,0.1-0.3,0.1c-0.1,0-0.2,0-0.3,0c0,0-0.1,0-0.1,0c0,0-0.1,0-0.1,0v-0.5c0,0,0.1,0,0.1,0c0,0,0.1,0,0.1,0
			c0.1,0,0.1,0,0.2,0c0.1,0,0.1,0,0.1-0.1c0.1-0.1,0.1-0.1,0.1-0.2c0-0.1,0-0.3,0-0.5V491L373.4,491z M376.3,494.2V491h0.5v1.3h0.4
			c0.2,0,0.3,0,0.5,0.1c0.1,0,0.3,0.1,0.4,0.2c0.1,0.1,0.2,0.2,0.2,0.3c0.1,0.1,0.1,0.3,0.1,0.4c0,0.2,0,0.3-0.1,0.4
			c-0.1,0.1-0.2,0.3-0.3,0.3c-0.1,0.1-0.2,0.1-0.3,0.1c-0.1,0-0.2,0-0.4,0L376.3,494.2L376.3,494.2z M376.8,492.7v1h0.3
			c0.2,0,0.4,0,0.5-0.1c0.1-0.1,0.2-0.2,0.2-0.4c0-0.2-0.1-0.3-0.2-0.4c-0.1-0.1-0.3-0.1-0.5-0.1H376.8z M379.3,491v1.2h1.4V491h0.5
			v3.2h-0.5v-1.5h-1.4v1.5h-0.5V491H379.3z M384.2,494.2V492l-2.2,2.3V491h0.5v2.1l2.2-2.3v3.3H384.2z M386,491v1.3l1.2-1.3h0.6
			l-1.5,1.4l1.5,1.7h-0.7l-1.2-1.5v1.5h-0.5V491H386L386,491z M389.8,490.9c0.5,0,0.9,0.2,1.2,0.5c0.3,0.3,0.5,0.7,0.5,1.2
			c0,0.5-0.2,0.9-0.5,1.2c-0.3,0.3-0.7,0.5-1.2,0.5c-0.5,0-0.9-0.2-1.2-0.5c-0.3-0.3-0.5-0.7-0.5-1.2c0-0.5,0.2-0.9,0.5-1.2
			C388.9,491.1,389.3,490.9,389.8,490.9z M389.8,493.8c0.3,0,0.6-0.1,0.8-0.3s0.3-0.5,0.3-0.9c0-0.4-0.1-0.6-0.3-0.9
			c-0.2-0.2-0.5-0.3-0.8-0.3c-0.3,0-0.6,0.1-0.8,0.3c-0.2,0.2-0.3,0.5-0.3,0.9c0,0.4,0.1,0.6,0.3,0.9
			C389.2,493.7,389.5,493.8,389.8,493.8z M392.2,491h0.5c0.2,0,0.4,0,0.5,0c0.1,0,0.2,0.1,0.3,0.1c0.1,0.1,0.2,0.2,0.3,0.3
			c0.1,0.1,0.1,0.3,0.1,0.4c0,0.1,0,0.2-0.1,0.3c0,0.1-0.1,0.2-0.2,0.3c0.2,0.1,0.3,0.2,0.4,0.3c0.1,0.1,0.2,0.3,0.2,0.5
			c0,0.1,0,0.3-0.1,0.4c-0.1,0.1-0.1,0.2-0.2,0.3c-0.1,0.1-0.2,0.1-0.3,0.2c-0.1,0-0.3,0.1-0.5,0.1h-0.7L392.2,491L392.2,491z
			 M392.7,491.4v0.9h0.1c0.2,0,0.3,0,0.4-0.1c0.1-0.1,0.1-0.2,0.1-0.3c0-0.1,0-0.2-0.1-0.3c-0.1-0.1-0.2-0.1-0.4-0.1H392.7z
			 M392.7,492.7v1h0.3c0.2,0,0.4,0,0.5-0.1c0.1-0.1,0.2-0.2,0.2-0.4c0-0.1-0.1-0.3-0.2-0.4c-0.1-0.1-0.3-0.1-0.5-0.1L392.7,492.7
			L392.7,492.7z M394.4,494.8l0.5-1.2l0.4,0.2l-0.6,1.2L394.4,494.8L394.4,494.8z M397.5,491h2v2.7h0.4v1.2h-0.5v-0.7h-2.1v0.7h-0.5
			v-1.2c0.1,0,0.2,0,0.3-0.1c0.1-0.1,0.2-0.2,0.2-0.3c0-0.1,0.1-0.2,0.1-0.3c0-0.1,0-0.3,0-0.5V491L397.5,491z M398,491.4v1
			c0,0.2,0,0.4,0,0.5c0,0.1,0,0.3-0.1,0.4c0,0.1-0.1,0.2-0.1,0.2c0,0.1-0.1,0.1-0.1,0.2h1.4v-2.3L398,491.4L398,491.4z M401.9,490.9
			c0.5,0,0.9,0.2,1.2,0.5c0.3,0.3,0.5,0.7,0.5,1.2c0,0.5-0.2,0.9-0.5,1.2c-0.3,0.3-0.7,0.5-1.2,0.5c-0.5,0-0.9-0.2-1.2-0.5
			c-0.3-0.3-0.5-0.7-0.5-1.2c0-0.5,0.2-0.9,0.5-1.2C401,491.1,401.4,490.9,401.9,490.9z M401.9,493.8c0.3,0,0.6-0.1,0.8-0.3
			c0.2-0.2,0.3-0.5,0.3-0.9c0-0.4-0.1-0.6-0.3-0.9c-0.2-0.2-0.5-0.3-0.8-0.3c-0.3,0-0.6,0.1-0.8,0.3c-0.2,0.2-0.3,0.5-0.3,0.9
			c0,0.4,0.1,0.6,0.3,0.9C401.3,493.7,401.6,493.8,401.9,493.8z M404.5,494.2H404l0.7-3.4l1.1,2.5l1.1-2.5l0.6,3.4h-0.5l-0.3-1.9
			l-0.9,2.1l-0.9-2.1L404.5,494.2L404.5,494.2z M410.5,494.2l-0.3-0.8h-1.4l-0.4,0.8h-0.5l1.6-3.4l1.5,3.4H410.5L410.5,494.2z
			 M409,492.9h1l-0.5-1.1L409,492.9z M411.6,494.2V491h0.5v2.7h1.1V491h0.5v2.7h1.1V491h0.5v3.2H411.6z M416.6,491v1.2h1.4V491h0.5
			v3.2H418v-1.5h-1.4v1.5h-0.5V491H416.6z M421.1,491v0.5h-1.3v0.8h1.2v0.5h-1.2v1.1h1.3v0.5h-1.8V491L421.1,491L421.1,491z
			 M424,494.2V492l-2.2,2.3V491h0.5v2.1l2.2-2.3v3.3H424z M422.4,490.2l0.4-0.2c0,0.1,0.1,0.1,0.1,0.2c0.1,0,0.2,0.1,0.3,0.1
			c0.1,0,0.2,0,0.3-0.1c0.1,0,0.1-0.1,0.2-0.2l0.4,0.2c-0.1,0.1-0.2,0.3-0.3,0.4c-0.1,0.1-0.3,0.1-0.5,0.1c-0.2,0-0.4,0-0.5-0.1
			C422.5,490.4,422.4,490.3,422.4,490.2L422.4,490.2z M427.9,490.9c0.5,0,0.9,0.2,1.2,0.5c0.3,0.3,0.5,0.7,0.5,1.2
			c0,0.5-0.2,0.9-0.5,1.2c-0.3,0.3-0.7,0.5-1.2,0.5c-0.5,0-0.9-0.2-1.2-0.5c-0.3-0.3-0.5-0.7-0.5-1.2c0-0.5,0.2-0.9,0.5-1.2
			S427.4,490.9,427.9,490.9z M427.9,493.8c0.3,0,0.6-0.1,0.8-0.3s0.3-0.5,0.3-0.9c0-0.4-0.1-0.6-0.3-0.9s-0.5-0.3-0.8-0.3
			c-0.3,0-0.6,0.1-0.8,0.3c-0.2,0.2-0.3,0.5-0.3,0.9c0,0.4,0.1,0.6,0.3,0.9C427.3,493.7,427.6,493.8,427.9,493.8z M430.5,491h2v2.7
			h0.4v1.2h-0.5v-0.7h-2.1v0.7h-0.5v-1.2c0.1,0,0.2,0,0.3-0.1c0.1-0.1,0.2-0.2,0.2-0.3c0-0.1,0.1-0.2,0.1-0.3c0-0.1,0-0.3,0-0.5
			L430.5,491L430.5,491z M431,491.4v1c0,0.2,0,0.4,0,0.5c0,0.1,0,0.3-0.1,0.4c0,0.1-0.1,0.2-0.1,0.2c0,0.1-0.1,0.1-0.1,0.2h1.4v-2.3
			L431,491.4L431,491.4z M435.2,491v0.5h-1.3v0.8h1.2v0.5h-1.2v1.1h1.3v0.5h-1.8V491L435.2,491L435.2,491z M437.8,491v1.3l1.1-1.3
			h0.6l-1.3,1.5l1.4,1.7H439l-1.2-1.5v1.5h-0.5v-1.5l-1.2,1.5h-0.6l1.4-1.7l-1.3-1.5h0.6l1.1,1.3V491H437.8z M440.4,491h2v2.7h0.4
			v1.2h-0.5v-0.7h-2.1v0.7h-0.5v-1.2c0.1,0,0.2,0,0.3-0.1c0.1-0.1,0.2-0.2,0.2-0.3c0-0.1,0.1-0.2,0.1-0.3c0-0.1,0-0.3,0-0.5
			L440.4,491L440.4,491z M440.9,491.4v1c0,0.2,0,0.4,0,0.5c0,0.1,0,0.3-0.1,0.4c0,0.1-0.1,0.2-0.1,0.2c0,0.1-0.1,0.1-0.1,0.2h1.4
			v-2.3L440.9,491.4L440.9,491.4z M443.3,494.2V491h0.5v1.3h0.4c0.2,0,0.3,0,0.5,0.1c0.1,0,0.3,0.1,0.4,0.2c0.1,0.1,0.2,0.2,0.2,0.3
			c0.1,0.1,0.1,0.3,0.1,0.4c0,0.2,0,0.3-0.1,0.4c-0.1,0.1-0.2,0.3-0.3,0.3c-0.1,0.1-0.2,0.1-0.3,0.1s-0.2,0-0.4,0L443.3,494.2
			L443.3,494.2z M443.8,492.7v1h0.3c0.2,0,0.4,0,0.5-0.1c0.1-0.1,0.2-0.2,0.2-0.4c0-0.2-0.1-0.3-0.2-0.4c-0.1-0.1-0.3-0.1-0.5-0.1
			H443.8z M445.6,491h0.5v3.2h-0.5V491z M450.2,494.2V492l-2.2,2.3V491h0.5v2.1l2.2-2.3v3.3H450.2z M454.3,494.2v-1.3
			c-0.3,0-0.4,0-0.5,0c0,0-0.1,0-0.1,0c-0.2,0-0.4,0-0.5,0c-0.1,0-0.2-0.1-0.3-0.2c-0.1-0.1-0.2-0.2-0.2-0.3
			c-0.1-0.1-0.1-0.3-0.1-0.5V491h0.5v0.9c0,0.1,0,0.3,0,0.3c0,0.1,0.1,0.1,0.1,0.2c0,0,0.1,0.1,0.2,0.1c0.1,0,0.2,0,0.3,0
			c0.1,0,0.2,0,0.3,0c0.1,0,0.2,0,0.3,0V491h0.5v3.2L454.3,494.2L454.3,494.2z M455.3,491h0.6l0.8,1.6l0.7-1.6h0.5l-1.5,3.2H456
			l0.4-1L455.3,491z M458.5,491h2.1v3.2H460v-2.7H459v1.6c0,0.3,0,0.5-0.1,0.6c-0.1,0.1-0.1,0.3-0.2,0.3c-0.1,0.1-0.2,0.1-0.3,0.1
			c-0.1,0-0.2,0-0.3,0c0,0-0.1,0-0.1,0c0,0-0.1,0-0.1,0v-0.5c0,0,0.1,0,0.1,0c0,0,0.1,0,0.1,0c0.1,0,0.1,0,0.2,0
			c0.1,0,0.1,0,0.1-0.1c0.1-0.1,0.1-0.1,0.1-0.2c0-0.1,0-0.3,0-0.5L458.5,491L458.5,491z M462.9,490.9c0.5,0,0.9,0.2,1.2,0.5
			s0.5,0.7,0.5,1.2c0,0.5-0.2,0.9-0.5,1.2c-0.3,0.3-0.7,0.5-1.2,0.5c-0.5,0-0.9-0.2-1.2-0.5c-0.3-0.3-0.5-0.7-0.5-1.2
			c0-0.5,0.2-0.9,0.5-1.2C462,491.1,462.4,490.9,462.9,490.9z M462.9,493.8c0.3,0,0.6-0.1,0.8-0.3c0.2-0.2,0.3-0.5,0.3-0.9
			c0-0.4-0.1-0.6-0.3-0.9c-0.2-0.2-0.5-0.3-0.8-0.3c-0.3,0-0.6,0.1-0.8,0.3s-0.3,0.5-0.3,0.9c0,0.4,0.1,0.6,0.3,0.9
			C462.3,493.7,462.6,493.8,462.9,493.8z M466.9,494.2v-1.3c-0.3,0-0.4,0-0.5,0c-0.1,0-0.1,0-0.1,0c-0.2,0-0.4,0-0.5,0
			c-0.1,0-0.2-0.1-0.3-0.2c-0.1-0.1-0.2-0.2-0.2-0.3c-0.1-0.1-0.1-0.3-0.1-0.5V491h0.5v0.9c0,0.1,0,0.3,0,0.3c0,0.1,0.1,0.1,0.1,0.2
			c0,0,0.1,0.1,0.2,0.1c0.1,0,0.2,0,0.3,0c0.1,0,0.2,0,0.3,0c0.1,0,0.2,0,0.3,0V491h0.5v3.2L466.9,494.2L466.9,494.2z M468.8,491
			v1.2h1.4V491h0.5v3.2h-0.5v-1.5h-1.4v1.5h-0.5V491H468.8z M471.5,494.2V491h0.5v1.3h0.4c0.2,0,0.3,0,0.5,0.1
			c0.1,0,0.3,0.1,0.4,0.2c0.1,0.1,0.2,0.2,0.2,0.3c0.1,0.1,0.1,0.3,0.1,0.4c0,0.2,0,0.3-0.1,0.4c-0.1,0.1-0.2,0.3-0.3,0.3
			c-0.1,0.1-0.2,0.1-0.3,0.1c-0.1,0-0.2,0-0.4,0L471.5,494.2L471.5,494.2z M472,492.7v1h0.3c0.2,0,0.4,0,0.5-0.1
			c0.1-0.1,0.2-0.2,0.2-0.4c0-0.2-0.1-0.3-0.2-0.4c-0.1-0.1-0.3-0.1-0.5-0.1H472z M473.8,491h0.5v3.2h-0.5V491z M474.8,494.2l1-1.7
			l-0.9-1.5h0.6l0.6,1.1l0.6-1.1h0.6l-0.9,1.5l1,1.7h-0.6l-0.7-1.2l-0.7,1.2H474.8L474.8,494.2z M481.1,494.2V492l-2.2,2.3V491h0.5
			v2.1l2.2-2.3v3.3H481.1z M482.7,491.7l-0.3-0.3c0.1-0.2,0.3-0.3,0.4-0.4c0.2-0.1,0.3-0.1,0.5-0.1c0.1,0,0.3,0,0.4,0.1
			c0.1,0,0.2,0.1,0.3,0.2c0.1,0.1,0.2,0.2,0.2,0.3c0,0.1,0.1,0.2,0.1,0.3c0,0.2,0,0.3-0.1,0.4c-0.1,0.1-0.2,0.2-0.3,0.3
			c0.2,0.1,0.3,0.2,0.4,0.3c0.1,0.1,0.2,0.3,0.2,0.5c0,0.2,0,0.3-0.1,0.5c-0.1,0.1-0.2,0.2-0.3,0.3c-0.1,0.1-0.2,0.1-0.4,0.2
			c-0.1,0-0.3,0.1-0.4,0.1c-0.3,0-0.5-0.1-0.7-0.2c-0.2-0.1-0.4-0.3-0.5-0.6l0.4-0.2c0.1,0.2,0.2,0.3,0.3,0.4
			c0.1,0.1,0.3,0.1,0.5,0.1c0.1,0,0.1,0,0.2,0c0.1,0,0.1,0,0.2-0.1c0.1,0,0.1-0.1,0.2-0.2c0-0.1,0.1-0.2,0.1-0.2
			c0-0.2-0.1-0.3-0.2-0.4c-0.1-0.1-0.3-0.1-0.6-0.1H483v-0.5h0.3c0.2,0,0.3,0,0.4-0.1c0.1-0.1,0.2-0.2,0.2-0.4c0-0.1,0-0.1,0-0.1
			c0,0,0-0.1-0.1-0.1c0,0-0.1-0.1-0.2-0.1c-0.1,0-0.1,0-0.2,0c-0.1,0-0.3,0-0.4,0.1C482.9,491.5,482.8,491.6,482.7,491.7
			L482.7,491.7z M485.5,491h2v2.7h0.4v1.2h-0.5v-0.7h-2.1v0.7h-0.5v-1.2c0.1,0,0.2,0,0.3-0.1c0.1-0.1,0.2-0.2,0.2-0.3
			c0-0.1,0.1-0.2,0.1-0.3c0-0.1,0-0.3,0-0.5V491L485.5,491z M486,491.4v1c0,0.2,0,0.4,0,0.5c0,0.1,0,0.3-0.1,0.4
			c0,0.1-0.1,0.2-0.1,0.2c0,0.1-0.1,0.1-0.1,0.2h1.4v-2.3L486,491.4L486,491.4z M490.2,491v0.5h-1.3v0.8h1.2v0.5h-1.2v1.1h1.3v0.5
			h-1.8V491L490.2,491L490.2,491z M491.3,491h2.1v3.2h-0.5v-2.7h-1.1v1.6c0,0.3,0,0.5-0.1,0.6c-0.1,0.1-0.1,0.3-0.2,0.3
			c-0.1,0.1-0.2,0.1-0.3,0.1c-0.1,0-0.2,0-0.3,0c0,0-0.1,0-0.1,0c0,0-0.1,0-0.1,0v-0.5c0,0,0.1,0,0.1,0c0,0,0.1,0,0.1,0
			c0.1,0,0.1,0,0.2,0c0.1,0,0.1,0,0.1-0.1c0.1-0.1,0.1-0.1,0.1-0.2s0-0.3,0-0.5L491.3,491L491.3,491z M496.3,494.2V492l-2.2,2.3V491
			h0.5v2.1l2.2-2.3v3.3H496.3z M499.8,494.2V492l-2.2,2.3V491h0.5v2.1l2.2-2.3v3.3H499.8z M498.2,490.2l0.4-0.2
			c0,0.1,0.1,0.1,0.1,0.2c0.1,0,0.2,0.1,0.3,0.1c0.1,0,0.2,0,0.3-0.1c0.1,0,0.1-0.1,0.2-0.2l0.4,0.2c-0.1,0.1-0.2,0.3-0.3,0.4
			c-0.1,0.1-0.3,0.1-0.5,0.1c-0.2,0-0.4,0-0.5-0.1C498.3,490.4,498.2,490.3,498.2,490.2"/>
		<path id="path66" inkscape:connector-curvature="0" display="none" fill="#FFFFFF" d="M516.4,484.9h19.9v-0.8h-19.9V484.9z"/>
	</g>
</g>
<g id="layer2" inkscape:label="Layer 2" inkscape:groupmode="layer" display="none">
	<g id="text6488" display="inline">
		<path id="path5557" fill="#FFFFFF" d="M160.6,20.3h-4.7l2.4-2.9c0.1-0.2,0.3-0.4,0.4-0.5c0.1-0.2,0.3-0.4,0.4-0.6
			c0.1-0.1,0.1-0.2,0.2-0.4c0.1-0.2,0.1-0.4,0.1-0.6c0-0.1,0-0.3-0.1-0.4c0-0.1-0.1-0.3-0.2-0.4c-0.1-0.1-0.2-0.2-0.4-0.3
			c-0.1-0.1-0.3-0.1-0.5-0.1c-0.2,0-0.3,0-0.5,0.1c-0.1,0.1-0.3,0.1-0.4,0.3c-0.1,0.1-0.2,0.2-0.3,0.4c-0.1,0.2-0.1,0.3-0.1,0.5h-1
			c0-0.3,0.1-0.6,0.2-0.8c0.1-0.3,0.2-0.5,0.4-0.7c0.2-0.2,0.4-0.4,0.7-0.5c0.3-0.1,0.6-0.2,1-0.2c0.4,0,0.7,0.1,1,0.2
			c0.3,0.1,0.5,0.3,0.7,0.5c0.2,0.2,0.3,0.4,0.4,0.7s0.1,0.5,0.1,0.8c0,0.3,0,0.5-0.1,0.8c-0.1,0.2-0.2,0.5-0.4,0.7
			c-0.1,0.2-0.3,0.4-0.4,0.6c-0.2,0.2-0.3,0.4-0.6,0.7l-1.1,1.3h2.6L160.6,20.3L160.6,20.3z"/>
		<path id="path5559" fill="#FFFFFF" d="M163.7,14.1c-0.2,0-0.4,0.1-0.6,0.2c-0.1,0.1-0.3,0.2-0.4,0.4c-0.1,0.2-0.2,0.4-0.3,0.6
			c-0.1,0.2-0.1,0.4-0.1,0.6c0,0.2-0.1,0.4-0.1,0.5c0,0.2,0,0.3,0,0.4c0,0.1,0,0.3,0,0.4c0,0.2,0,0.3,0.1,0.5c0,0.2,0.1,0.4,0.1,0.6
			c0.1,0.2,0.2,0.4,0.3,0.5c0.1,0.2,0.2,0.3,0.4,0.4c0.2,0.1,0.3,0.2,0.6,0.2c0.2,0,0.4-0.1,0.5-0.2c0.2-0.1,0.3-0.2,0.4-0.4
			c0.1-0.2,0.2-0.4,0.3-0.5c0.1-0.2,0.1-0.4,0.1-0.6c0-0.2,0.1-0.4,0.1-0.5c0-0.2,0-0.3,0-0.4c0-0.1,0-0.3,0-0.4
			c0-0.2,0-0.4-0.1-0.5c0-0.2-0.1-0.4-0.1-0.6c-0.1-0.2-0.1-0.4-0.3-0.6c-0.1-0.2-0.2-0.3-0.4-0.4C164.1,14.2,163.9,14.1,163.7,14.1
			z M163.7,20.5c-0.3,0-0.6-0.1-0.9-0.2s-0.5-0.3-0.7-0.6c-0.2-0.2-0.3-0.4-0.5-0.7c-0.1-0.2-0.2-0.5-0.3-0.7
			c-0.1-0.2-0.1-0.5-0.1-0.7c0-0.3,0-0.5,0-0.7s0-0.5,0-0.7c0-0.3,0.1-0.5,0.1-0.8c0.1-0.3,0.2-0.5,0.3-0.7c0.1-0.2,0.3-0.5,0.5-0.7
			c0.4-0.5,1-0.8,1.6-0.8c0.6,0,1.1,0.3,1.6,0.8c0.2,0.2,0.3,0.4,0.5,0.7s0.2,0.5,0.3,0.7c0.1,0.2,0.1,0.5,0.1,0.8
			c0,0.2,0,0.5,0,0.7c0,0.2,0,0.5,0,0.7c0,0.2-0.1,0.5-0.1,0.7c-0.1,0.2-0.2,0.5-0.3,0.7c-0.1,0.2-0.3,0.5-0.5,0.7
			c-0.2,0.3-0.5,0.4-0.7,0.6S164,20.5,163.7,20.5z"/>
		<path id="path5561" fill="#FFFFFF" d="M168,14.3h-1.2l0.6-1h1.7v7H168C168,20.3,168,14.3,168,14.3z"/>
		<path id="path5563" fill="#FFFFFF" d="M172.9,16.8c-0.4,0-0.7,0.1-0.9,0.4c-0.2,0.2-0.4,0.6-0.4,1c0,0.2,0,0.4,0.1,0.5
			c0.1,0.2,0.2,0.3,0.3,0.4c0.1,0.1,0.2,0.2,0.4,0.3c0.2,0.1,0.3,0.1,0.5,0.1c0.2,0,0.4,0,0.5-0.1c0.2-0.1,0.3-0.2,0.4-0.3
			c0.1-0.1,0.2-0.3,0.3-0.4c0.1-0.2,0.1-0.3,0.1-0.5c0-0.4-0.1-0.7-0.4-1C173.6,17,173.3,16.8,172.9,16.8z M174.5,13.7l-1.7,2.3
			c0.1,0,0.2,0,0.4,0c0.2,0,0.5,0,0.8,0.1c0.3,0.1,0.5,0.2,0.7,0.4c0.2,0.2,0.4,0.4,0.5,0.7c0.1,0.3,0.2,0.6,0.2,1
			c0,0.3-0.1,0.6-0.2,0.9c-0.1,0.3-0.3,0.5-0.5,0.8c-0.2,0.2-0.4,0.4-0.7,0.5c-0.3,0.1-0.6,0.2-1,0.2c-0.3,0-0.6-0.1-0.9-0.2
			c-0.3-0.1-0.5-0.3-0.8-0.5c-0.2-0.2-0.4-0.4-0.5-0.7c-0.1-0.3-0.2-0.6-0.2-0.9c0-0.3,0.1-0.6,0.2-0.9c0.1-0.3,0.3-0.6,0.5-0.9
			l2.4-3.3L174.5,13.7L174.5,13.7z"/>
	</g>
	<g id="text7295" display="inline">
		<path id="path5552" fill="#FFFFFF" d="M163.3,1.7c-0.2,0-0.4,0.1-0.6,0.2c-0.1,0.1-0.3,0.2-0.4,0.4c-0.1,0.2-0.2,0.4-0.3,0.5
			C162,3,162,3.2,162,3.4c0,0.2-0.1,0.4-0.1,0.5c0,0.2,0,0.3,0,0.4c0,0.1,0,0.3,0,0.4c0,0.2,0,0.3,0.1,0.5c0,0.2,0.1,0.4,0.1,0.6
			c0.1,0.2,0.2,0.4,0.3,0.6c0.1,0.2,0.2,0.3,0.4,0.4c0.2,0.1,0.3,0.2,0.6,0.2c0.2,0,0.4-0.1,0.5-0.2c0.2-0.1,0.3-0.2,0.4-0.4
			c0.1-0.2,0.2-0.4,0.3-0.6c0.1-0.2,0.1-0.4,0.1-0.6c0-0.2,0.1-0.4,0.1-0.5c0-0.2,0-0.3,0-0.4c0-0.1,0-0.3,0-0.4
			c0-0.2,0-0.4-0.1-0.5c0-0.2-0.1-0.4-0.1-0.6c-0.1-0.2-0.1-0.4-0.3-0.5c-0.1-0.2-0.2-0.3-0.4-0.4C163.7,1.7,163.5,1.7,163.3,1.7z
			 M163.3,8c-0.3,0-0.6-0.1-0.9-0.2c-0.3-0.1-0.5-0.3-0.7-0.6c-0.2-0.2-0.3-0.4-0.5-0.7c-0.1-0.2-0.2-0.5-0.3-0.7
			c-0.1-0.2-0.1-0.5-0.1-0.7c0-0.3,0-0.5,0-0.7c0-0.2,0-0.5,0-0.7c0-0.3,0.1-0.5,0.1-0.8c0.1-0.3,0.2-0.5,0.3-0.7
			c0.1-0.2,0.3-0.5,0.5-0.7c0.4-0.5,1-0.8,1.6-0.8c0.6,0,1.1,0.3,1.6,0.8c0.2,0.2,0.3,0.4,0.5,0.7c0.1,0.2,0.2,0.5,0.3,0.7
			c0.1,0.2,0.1,0.5,0.1,0.8c0,0.2,0,0.5,0,0.7c0,0.2,0,0.5,0,0.7c0,0.2-0.1,0.5-0.1,0.7c-0.1,0.2-0.2,0.5-0.3,0.7s-0.3,0.5-0.5,0.7
			c-0.2,0.3-0.5,0.4-0.7,0.6S163.6,8,163.3,8z"/>
		<path id="path5554" fill="#FFFFFF" d="M171.3,7.8h-4.7l2.4-2.9c0.1-0.2,0.3-0.3,0.4-0.5c0.1-0.2,0.3-0.4,0.4-0.6
			c0.1-0.1,0.1-0.2,0.2-0.4c0.1-0.2,0.1-0.4,0.1-0.6c0-0.1,0-0.3-0.1-0.4c0-0.1-0.1-0.3-0.2-0.4c-0.1-0.1-0.2-0.2-0.4-0.3
			c-0.1-0.1-0.3-0.1-0.5-0.1c-0.2,0-0.3,0-0.5,0.1s-0.3,0.1-0.4,0.3c-0.1,0.1-0.2,0.2-0.3,0.4c-0.1,0.2-0.1,0.3-0.1,0.5h-1
			c0-0.3,0.1-0.6,0.2-0.8c0.1-0.3,0.2-0.5,0.4-0.7c0.2-0.2,0.4-0.4,0.7-0.5c0.3-0.1,0.6-0.2,1-0.2c0.4,0,0.7,0.1,1,0.2
			c0.3,0.1,0.5,0.3,0.7,0.5s0.3,0.4,0.4,0.7c0.1,0.3,0.1,0.5,0.1,0.8c0,0.3,0,0.5-0.1,0.8c-0.1,0.2-0.2,0.5-0.4,0.7
			c-0.1,0.2-0.3,0.4-0.4,0.6c-0.2,0.2-0.3,0.4-0.6,0.7l-1.1,1.3h2.6L171.3,7.8L171.3,7.8z"/>
	</g>
</g>
<path id="path56_1_" inkscape:connector-curvature="0" fill="#CA996F" d="M0.2,0.9h1.4v7.9h2.6v1.3h-4V0.9z M5.4,0.9h1.4v9.2H5.4
	V0.9z M10.2,10.1H8.9V0.3l6.5,6.9V0.9h1.4v9.7l-6.5-6.9V10.1z M23.4,6.6V5.3h3.7v0.3c0,0.7-0.1,1.2-0.2,1.7
	c-0.1,0.5-0.3,0.9-0.6,1.2c-0.4,0.6-0.9,1-1.5,1.3c-0.6,0.3-1.2,0.4-1.9,0.4c-0.6,0-1.2-0.1-1.7-0.3c-0.5-0.2-1-0.6-1.5-1
	c-0.5-0.5-0.8-1-1-1.6c-0.2-0.6-0.3-1.2-0.3-1.8c0-0.6,0.1-1.2,0.3-1.8c0.2-0.6,0.5-1.1,1-1.6c0.4-0.5,0.9-0.8,1.5-1
	c0.6-0.2,1.2-0.4,1.9-0.4c0.5,0,1,0.1,1.4,0.2c0.5,0.1,0.9,0.4,1.3,0.7c0.2,0.1,0.4,0.3,0.5,0.5c0.2,0.2,0.3,0.3,0.5,0.5l-1,0.9
	c-0.3-0.5-0.7-0.8-1.2-1.1c-0.5-0.3-1-0.4-1.6-0.4c-0.9,0-1.7,0.3-2.3,1c-0.6,0.7-0.9,1.5-0.9,2.5c0,1,0.3,1.8,0.9,2.5
	c0.6,0.6,1.4,1,2.3,1c0.7,0,1.3-0.2,1.8-0.7c0.5-0.4,0.8-1,0.9-1.7L23.4,6.6L23.4,6.6z M33.7,0.9v1.3h-3.6v2.2h3.5v1.3h-3.5v3h3.6
	v1.3h-4.9V0.9L33.7,0.9L33.7,0.9z M35.4,0.9H37c0.6,0,1.1,0.1,1.4,0.1c0.4,0.1,0.7,0.2,0.9,0.4c0.3,0.2,0.6,0.6,0.8,0.9
	c0.2,0.4,0.3,0.8,0.3,1.2c0,0.7-0.2,1.2-0.5,1.7c-0.4,0.5-0.8,0.8-1.4,0.9l2.8,3.9h-1.7L37,6.3h-0.2v3.8h-1.4L35.4,0.9L35.4,0.9z
	 M36.7,2.2v2.9h0.4c0.6,0,1.1-0.1,1.4-0.4C38.8,4.5,39,4.1,39,3.6c0-0.5-0.1-0.8-0.4-1c-0.3-0.2-0.7-0.3-1.4-0.4H36.7L36.7,2.2z
	 M42.5,0.9h1.4v9.2h-1.4V0.9z M50.8,0.9v1.3h-3.6v2.2h3.5v1.3h-3.5v3h3.6v1.3h-4.9V0.9L50.8,0.9L50.8,0.9z M60.5,2.3L59.4,3
	c-0.1-0.1-0.1-0.2-0.2-0.3c-0.1-0.1-0.1-0.2-0.2-0.3c-0.1-0.1-0.3-0.2-0.4-0.2c-0.1-0.1-0.3-0.1-0.5-0.1c-0.4,0-0.7,0.1-0.9,0.3
	c-0.2,0.2-0.4,0.5-0.4,0.8c0,0.2,0.1,0.5,0.2,0.6c0.1,0.2,0.4,0.3,0.7,0.5l0.9,0.4c0.7,0.3,1.3,0.7,1.6,1.1s0.5,1,0.5,1.6
	c0,0.9-0.3,1.6-0.8,2.1c-0.5,0.5-1.2,0.8-2.1,0.8c-0.4,0-0.8-0.1-1.2-0.2c-0.4-0.1-0.7-0.4-0.9-0.7c-0.2-0.2-0.4-0.5-0.5-0.8
	c-0.1-0.3-0.2-0.6-0.2-1l1.4-0.3c0,0.2,0,0.4,0.1,0.6c0.1,0.2,0.2,0.4,0.3,0.5c0.1,0.2,0.3,0.3,0.5,0.4C57.4,8.9,57.6,9,57.9,9
	c0.4,0,0.8-0.1,1.1-0.4c0.3-0.3,0.4-0.6,0.4-1.1c0-0.3-0.1-0.6-0.3-0.9c-0.2-0.2-0.5-0.5-1-0.7l-0.9-0.4c-0.6-0.3-1.1-0.6-1.4-1
	c-0.3-0.4-0.5-0.8-0.5-1.4c0-0.7,0.3-1.3,0.8-1.8C56.7,1,57.3,0.7,58,0.7c0.4,0,0.7,0.1,1,0.2c0.3,0.1,0.5,0.3,0.8,0.5
	c0.1,0.1,0.3,0.3,0.4,0.4C60.3,2,60.4,2.1,60.5,2.3L60.5,2.3z M63.8,0.9v3.6h3.8V0.9H69v9.2h-1.4V5.8h-3.8v4.3h-1.4V0.9H63.8z
	 M75.2,0.7c1.3,0,2.4,0.5,3.3,1.4c0.9,0.9,1.3,2.1,1.3,3.4c0,1.4-0.5,2.5-1.3,3.4c-0.9,0.9-2,1.4-3.3,1.4c-1.3,0-2.4-0.5-3.3-1.4
	c-0.9-0.9-1.3-2-1.3-3.4c0-1.4,0.4-2.5,1.3-3.4C72.8,1.2,73.9,0.8,75.2,0.7z M75.2,9c0.9,0,1.7-0.3,2.3-1c0.6-0.6,0.9-1.5,0.9-2.5
	c0-1-0.3-1.8-0.9-2.5c-0.6-0.7-1.4-1-2.3-1c-0.9,0-1.7,0.3-2.3,1C72.3,3.7,72,4.5,72,5.5c0,1,0.3,1.8,0.9,2.5
	C73.5,8.7,74.3,9,75.2,9z M80.3,0.9h1.5l2.3,6.2l2.4-6.6l2.3,6.6l2.4-6.1h1.5l-4,9.8l-2.3-6.5l-2.4,6.5L80.3,0.9z M93.4,7.9V6.5h3.2
	v1.4H93.4z M102.6,0.9v1.3h-3.1v2.2h3v1.3h-3v4.4h-1.4V0.9L102.6,0.9L102.6,0.9z M108.3,0.7c1.3,0,2.4,0.5,3.3,1.4
	c0.9,0.9,1.3,2.1,1.3,3.4c0,1.4-0.5,2.5-1.3,3.4c-0.9,0.9-2,1.4-3.3,1.4c-1.3,0-2.4-0.5-3.3-1.4c-0.9-0.9-1.3-2-1.3-3.4
	c0-1.4,0.4-2.5,1.3-3.4C105.9,1.2,107,0.8,108.3,0.7z M108.3,9c0.9,0,1.7-0.3,2.3-1c0.6-0.6,0.9-1.5,0.9-2.5c0-1-0.3-1.8-0.9-2.5
	c-0.6-0.7-1.4-1-2.3-1c-0.9,0-1.7,0.3-2.3,1c-0.6,0.7-0.9,1.5-0.9,2.5c0,1,0.3,1.8,0.9,2.5C106.6,8.7,107.4,9,108.3,9z M114.6,0.9
	h1.6c0.6,0,1.1,0.1,1.4,0.1c0.4,0.1,0.7,0.2,0.9,0.4c0.3,0.2,0.6,0.6,0.8,0.9c0.2,0.4,0.3,0.8,0.3,1.2c0,0.7-0.2,1.2-0.6,1.7
	c-0.4,0.5-0.8,0.8-1.4,0.9l2.8,3.9h-1.7l-2.5-3.8H116v3.8h-1.4L114.6,0.9L114.6,0.9z M116,2.2v2.9h0.4c0.6,0,1.1-0.1,1.4-0.4
	c0.3-0.3,0.5-0.6,0.5-1.1c0-0.5-0.1-0.8-0.4-1c-0.3-0.2-0.7-0.3-1.4-0.4H116z M121.7,0.9h1.4v5.5c0,0.4,0,0.7,0.1,1
	c0,0.2,0.1,0.4,0.2,0.6c0.2,0.3,0.4,0.5,0.7,0.7c0.3,0.2,0.6,0.2,1,0.2s0.7-0.1,1-0.2c0.3-0.2,0.5-0.4,0.7-0.7
	c0.1-0.2,0.2-0.4,0.2-0.6c0-0.2,0.1-0.6,0.1-1V0.9h1.4v5.9c0,0.5-0.1,0.9-0.2,1.3c-0.1,0.4-0.3,0.8-0.6,1.1
	c-0.3,0.4-0.7,0.6-1.1,0.8c-0.4,0.2-0.9,0.3-1.4,0.3c-0.5,0-1-0.1-1.4-0.3c-0.4-0.2-0.8-0.5-1.1-0.8c-0.3-0.3-0.5-0.7-0.6-1.1
	c-0.1-0.4-0.2-0.8-0.2-1.3V0.9L121.7,0.9z M131.6,10.1h-1.4l1.9-9.9l3.1,7.1l3.1-7.1l1.7,9.9h-1.4l-0.9-5.5l-2.6,6l-2.6-6
	L131.6,10.1"/>
<path id="path58_1_" inkscape:connector-curvature="0" fill="#FFFFFF" d="M0.7,15.2H0.2l0.7-3.4L2,14.3l1.1-2.5l0.6,3.4H3.2
	l-0.3-1.9l-0.9,2.1L1,13.3L0.7,15.2z M7.3,12v0.5H6v0.8h1.2v0.5H6v1.1h1.3v0.5H5.5V12L7.3,12L7.3,12z M10.9,12v1.3l1.1-1.3h0.6
	l-1.3,1.5l1.4,1.7h-0.6l-1.2-1.5v1.5h-0.5v-1.5l-1.2,1.5H8.7l1.4-1.7L8.7,12h0.6l1.1,1.3V12H10.9z M14.5,12h2v2.8h0.4v1.2h-0.5v-0.7
	h-2.1v0.7h-0.5v-1.2c0.1,0,0.2,0,0.3-0.1c0.1-0.1,0.2-0.2,0.2-0.3c0-0.1,0.1-0.2,0.1-0.3c0-0.1,0-0.3,0-0.5L14.5,12L14.5,12z
	 M15,12.5v1c0,0.2,0,0.4,0,0.5c0,0.1,0,0.3-0.1,0.4c0,0.1-0.1,0.2-0.1,0.2c0,0.1-0.1,0.1-0.1,0.2H16v-2.3H15L15,12.5z M18.1,12h0.6
	l0.8,1.6l0.7-1.6h0.5l-1.5,3.2h-0.5l0.4-1L18.1,12L18.1,12z M22.9,12v1.3h1.4V12h0.5v3.2h-0.5v-1.5h-1.4v1.5h-0.5V12H22.9z
	 M28.8,15.2l-0.3-0.8h-1.4l-0.4,0.8h-0.5l1.6-3.4l1.5,3.4H28.8z M27.3,14h1l-0.5-1.1L27.3,14L27.3,14z M30.9,12h0.7
	c0.2,0,0.3,0,0.4,0c0.1,0,0.2,0.1,0.3,0.1c0.1,0.1,0.2,0.2,0.3,0.3c0.1,0.1,0.1,0.3,0.1,0.4c0,0.1,0,0.3-0.1,0.4
	c-0.1,0.1-0.1,0.2-0.2,0.3c-0.1,0.1-0.2,0.2-0.4,0.2c-0.1,0-0.3,0.1-0.4,0.1h-0.2v1.3h-0.5V12z M31.4,12.5v1h0.2
	c0.2,0,0.3,0,0.4-0.1c0.1-0.1,0.2-0.2,0.2-0.4c0-0.2-0.1-0.3-0.2-0.4c-0.1-0.1-0.3-0.1-0.4-0.1H31.4L31.4,12.5z M35.8,12
	c0.5,0,0.9,0.2,1.2,0.5c0.3,0.3,0.5,0.7,0.5,1.2c0,0.5-0.2,0.9-0.5,1.2c-0.3,0.3-0.7,0.5-1.2,0.5c-0.5,0-0.9-0.2-1.2-0.5
	c-0.3-0.3-0.5-0.7-0.5-1.2c0-0.5,0.2-0.9,0.5-1.2C35,12.1,35.4,12,35.8,12z M35.8,14.8c0.3,0,0.6-0.1,0.8-0.3
	c0.2-0.2,0.3-0.5,0.3-0.9c0-0.4-0.1-0.6-0.3-0.9c-0.2-0.2-0.5-0.3-0.8-0.3c-0.3,0-0.6,0.1-0.8,0.3c-0.2,0.2-0.3,0.5-0.3,0.9
	c0,0.4,0.1,0.6,0.3,0.9C35.2,14.7,35.5,14.8,35.8,14.8z M39.5,12h2v2.8h0.4v1.2h-0.5v-0.7h-2.1v0.7h-0.5v-1.2c0.1,0,0.2,0,0.3-0.1
	c0.1-0.1,0.2-0.2,0.2-0.3c0-0.1,0.1-0.2,0.1-0.3c0-0.1,0-0.3,0-0.5L39.5,12L39.5,12z M40,12.5v1c0,0.2,0,0.4,0,0.5
	c0,0.1,0,0.3-0.1,0.4c0,0.1-0.1,0.2-0.1,0.2c0,0.1-0.1,0.1-0.1,0.2H41v-2.3H40L40,12.5z M43.9,12v1.3h1.4V12h0.5v3.2h-0.5v-1.5h-1.4
	v1.5h-0.5V12H43.9z M49.9,15.2l-0.3-0.8h-1.4l-0.4,0.8h-0.5l1.6-3.4l1.5,3.4H49.9L49.9,15.2z M48.4,14h1l-0.5-1.1L48.4,14L48.4,14z
	 M51.7,15.2l1-1.3c-0.1,0-0.2,0-0.3-0.1c-0.1,0-0.2-0.1-0.2-0.1c-0.1-0.1-0.2-0.2-0.2-0.3c0-0.1-0.1-0.2-0.1-0.4
	c0-0.1,0-0.3,0.1-0.4c0-0.1,0.1-0.2,0.2-0.3c0.1-0.1,0.2-0.2,0.3-0.2C52.6,12,52.7,12,53,12h0.8v3.2h-0.5v-1.3h-0.1l-0.9,1.3H51.7
	L51.7,15.2z M53.3,12.5H53c-0.1,0-0.3,0-0.3,0c-0.1,0-0.2,0.1-0.2,0.1c0,0-0.1,0.1-0.1,0.2c0,0.1,0,0.1,0,0.2c0,0.1,0,0.2,0,0.2
	c0,0.1,0.1,0.1,0.1,0.2c0.1,0,0.1,0.1,0.2,0.1c0.1,0,0.2,0,0.3,0h0.3V12.5z M57.8,12h0.5c0.2,0,0.4,0,0.5,0c0.1,0,0.2,0.1,0.3,0.1
	c0.1,0.1,0.2,0.2,0.3,0.3c0.1,0.1,0.1,0.3,0.1,0.4c0,0.1,0,0.2-0.1,0.3c0,0.1-0.1,0.2-0.2,0.3c0.2,0.1,0.3,0.2,0.4,0.3
	c0.1,0.1,0.2,0.3,0.2,0.5c0,0.1,0,0.3-0.1,0.4c-0.1,0.1-0.1,0.2-0.2,0.3c-0.1,0.1-0.2,0.1-0.3,0.2c-0.1,0-0.3,0.1-0.5,0.1h-0.7
	L57.8,12L57.8,12z M58.3,12.5v0.9h0.1c0.2,0,0.3,0,0.4-0.1c0.1-0.1,0.1-0.2,0.1-0.4c0-0.1,0-0.2-0.1-0.3c-0.1-0.1-0.2-0.1-0.4-0.1
	H58.3L58.3,12.5z M58.3,13.8v1h0.3c0.2,0,0.4,0,0.5-0.1c0.1-0.1,0.2-0.2,0.2-0.4c0-0.2-0.1-0.3-0.2-0.4c-0.1-0.1-0.3-0.1-0.5-0.1
	L58.3,13.8L58.3,13.8z M61.4,15.2V12h0.5v1.3h0.4c0.2,0,0.3,0,0.5,0.1c0.1,0,0.3,0.1,0.4,0.2c0.1,0.1,0.2,0.2,0.2,0.3
	c0.1,0.1,0.1,0.3,0.1,0.4c0,0.2,0,0.3-0.1,0.4c-0.1,0.1-0.2,0.3-0.3,0.3c-0.1,0.1-0.2,0.1-0.3,0.1c-0.1,0-0.2,0-0.4,0L61.4,15.2
	L61.4,15.2z M61.9,13.8v1h0.3c0.2,0,0.4,0,0.5-0.1c0.1-0.1,0.2-0.2,0.2-0.4c0-0.2-0.1-0.3-0.2-0.4c-0.1-0.1-0.3-0.1-0.5-0.1H61.9z
	 M63.7,12h0.5v3.2h-0.5V12z M68.5,12.2v0.6c-0.1-0.1-0.3-0.2-0.4-0.3c-0.1-0.1-0.3-0.1-0.5-0.1c-0.3,0-0.6,0.1-0.8,0.3
	c-0.2,0.2-0.3,0.5-0.3,0.9c0,0.3,0.1,0.6,0.3,0.9c0.2,0.2,0.5,0.3,0.8,0.3c0.2,0,0.3,0,0.5-0.1c0.1-0.1,0.3-0.2,0.4-0.3V15
	c-0.1,0.1-0.3,0.2-0.4,0.2c-0.1,0-0.3,0.1-0.4,0.1c-0.2,0-0.4,0-0.6-0.1c-0.2-0.1-0.4-0.2-0.5-0.3c-0.2-0.2-0.3-0.3-0.4-0.5
	s-0.1-0.4-0.1-0.7c0-0.3,0-0.5,0.1-0.7c0.1-0.2,0.2-0.4,0.4-0.6c0.1-0.1,0.3-0.2,0.5-0.3c0.2-0.1,0.4-0.1,0.7-0.1
	c0.2,0,0.3,0,0.5,0.1C68.2,12,68.4,12.1,68.5,12.2z M71.8,12.5h-0.7v2.8h-0.5v-2.8h-0.7V12h2V12.5z M75.4,15.2l-0.3-0.8h-1.4
	l-0.4,0.8h-0.5l1.6-3.4l1.5,3.4H75.4z M73.9,14h1l-0.5-1.1L73.9,14z M77.5,12h0.5c0.2,0,0.4,0,0.5,0c0.1,0,0.2,0.1,0.3,0.1
	c0.1,0.1,0.2,0.2,0.3,0.3c0.1,0.1,0.1,0.3,0.1,0.4c0,0.1,0,0.2-0.1,0.3c0,0.1-0.1,0.2-0.2,0.3c0.2,0.1,0.3,0.2,0.4,0.3
	c0.1,0.1,0.2,0.3,0.2,0.5c0,0.1,0,0.3-0.1,0.4c-0.1,0.1-0.1,0.2-0.2,0.3c-0.1,0.1-0.2,0.1-0.3,0.2c-0.1,0-0.3,0.1-0.5,0.1h-0.7
	L77.5,12L77.5,12z M77.9,12.5v0.9h0.1c0.2,0,0.3,0,0.4-0.1c0.1-0.1,0.1-0.2,0.1-0.4c0-0.1,0-0.2-0.1-0.3c-0.1-0.1-0.2-0.1-0.4-0.1
	H77.9L77.9,12.5z M77.9,13.8v1h0.3c0.2,0,0.4,0,0.5-0.1c0.1-0.1,0.2-0.2,0.2-0.4c0-0.2-0.1-0.3-0.2-0.4c-0.1-0.1-0.3-0.1-0.5-0.1
	L77.9,13.8L77.9,13.8z M81.6,12v1.3l1.2-1.3h0.6L82,13.5l1.5,1.8h-0.7l-1.2-1.5v1.5h-0.5V12L81.6,12L81.6,12z M87.3,15.2l-0.3-0.8
	h-1.4l-0.4,0.8h-0.5l1.6-3.4l1.5,3.4H87.3z M85.8,14h1l-0.5-1.1L85.8,14z M92,12v1.3h1.4V12h0.5v3.2h-0.5v-1.5H92v1.5h-0.5V12H92z
	 M97.9,15.2v-2.2l-2.2,2.3V12h0.5v2.2l2.2-2.3v3.3H97.9z M102.2,12v1.3l1.1-1.3h0.6l-1.3,1.5l1.4,1.7h-0.6l-1.2-1.5v1.5h-0.5v-1.5
	l-1.2,1.5h-0.6l1.4-1.7L99.9,12h0.6l1.1,1.3V12H102.2L102.2,12z M105.9,12v1.3h1.4V12h0.5v3.2h-0.5v-1.5h-1.4v1.5h-0.5V12H105.9z
	 M111.5,12v0.5h-1.3v0.8h1.2v0.5h-1.2v1.1h1.3v0.5h-1.8V12L111.5,12L111.5,12z M114.8,12v0.5h-1.1v2.8h-0.5V12H114.8L114.8,12z
	 M117.6,12c0.5,0,0.9,0.2,1.2,0.5c0.3,0.3,0.5,0.7,0.5,1.2c0,0.5-0.2,0.9-0.5,1.2c-0.3,0.3-0.7,0.5-1.2,0.5c-0.5,0-0.9-0.2-1.2-0.5
	c-0.3-0.3-0.5-0.7-0.5-1.2c0-0.5,0.2-0.9,0.5-1.2C116.7,12.1,117.1,12,117.6,12z M117.6,14.8c0.3,0,0.6-0.1,0.8-0.3
	c0.2-0.2,0.3-0.5,0.3-0.9c0-0.4-0.1-0.6-0.3-0.9c-0.2-0.2-0.5-0.3-0.8-0.3c-0.3,0-0.6,0.1-0.8,0.3c-0.2,0.2-0.3,0.5-0.3,0.9
	c0,0.4,0.1,0.6,0.3,0.9C117,14.7,117.3,14.8,117.6,14.8z M123.2,15.2V12h1.6v0.5h-1.1v0.8h0.3c0.2,0,0.3,0,0.5,0.1
	c0.1,0,0.2,0.1,0.3,0.2c0.1,0.1,0.2,0.2,0.2,0.3c0.1,0.1,0.1,0.3,0.1,0.4c0,0.2,0,0.3-0.1,0.4c-0.1,0.1-0.2,0.3-0.3,0.3
	c-0.1,0.1-0.2,0.1-0.3,0.1s-0.2,0-0.4,0L123.2,15.2L123.2,15.2z M123.6,13.8v1h0.3c0.2,0,0.4,0,0.5-0.1c0.1-0.1,0.2-0.2,0.2-0.4
	s-0.1-0.3-0.2-0.4c-0.1-0.1-0.3-0.1-0.5-0.1H123.6L123.6,13.8z M128.6,12v0.5h-1.3v0.8h1.2v0.5h-1.2v1.1h1.3v0.5h-1.8V12L128.6,12
	L128.6,12z M130.6,12h2.1v3.2h-0.5v-2.8h-1.1v1.6c0,0.3,0,0.5-0.1,0.6c-0.1,0.1-0.1,0.3-0.2,0.4c-0.1,0.1-0.2,0.1-0.3,0.1
	c-0.1,0-0.2,0-0.3,0c0,0-0.1,0-0.1,0c0,0-0.1,0-0.1,0v-0.5c0,0,0.1,0,0.1,0c0,0,0.1,0,0.1,0c0.1,0,0.1,0,0.2,0c0.1,0,0.1,0,0.1-0.1
	c0.1-0.1,0.1-0.1,0.1-0.3c0-0.1,0-0.3,0-0.5L130.6,12L130.6,12z M134.6,15.2V12h0.5v1.3h0.4c0.2,0,0.3,0,0.5,0.1
	c0.1,0,0.3,0.1,0.4,0.2c0.1,0.1,0.2,0.2,0.2,0.3c0.1,0.1,0.1,0.3,0.1,0.4c0,0.2,0,0.3-0.1,0.4c-0.1,0.1-0.2,0.3-0.3,0.3
	c-0.1,0.1-0.2,0.1-0.3,0.1c-0.1,0-0.2,0-0.4,0L134.6,15.2L134.6,15.2z M135.1,13.8v1h0.3c0.2,0,0.4,0,0.5-0.1
	c0.1-0.1,0.2-0.2,0.2-0.4c0-0.2-0.1-0.3-0.2-0.4c-0.1-0.1-0.3-0.1-0.5-0.1H135.1z M137.9,15.2l1-1.3c-0.1,0-0.2,0-0.3-0.1
	c-0.1,0-0.2-0.1-0.2-0.1c-0.1-0.1-0.2-0.2-0.2-0.3c0-0.1-0.1-0.2-0.1-0.4c0-0.1,0-0.3,0.1-0.4c0-0.1,0.1-0.2,0.2-0.3
	c0.1-0.1,0.2-0.2,0.3-0.2c0.1-0.1,0.3-0.1,0.5-0.1h0.8v3.2h-0.5v-1.3h-0.1l-0.9,1.3H137.9L137.9,15.2z M139.5,12.5h-0.2
	c-0.1,0-0.3,0-0.3,0c-0.1,0-0.2,0.1-0.2,0.1c0,0-0.1,0.1-0.1,0.2c0,0.1,0,0.1,0,0.2c0,0.1,0,0.2,0,0.2c0,0.1,0.1,0.1,0.1,0.2
	c0,0,0.1,0.1,0.2,0.1c0.1,0,0.2,0,0.3,0h0.3L139.5,12.5"/>
<path id="path60_1_" inkscape:connector-curvature="0" fill="#FFFFFF" d="M0.8,16.8v1.3L2,16.8h0.6l-1.5,1.4L2.7,20H2l-1.2-1.5V20
	H0.3v-3.2H0.8z M2.8,16.8h0.6l0.8,1.6L5,16.8h0.5L4.1,20H3.6l0.4-1L2.8,16.8L2.8,16.8z M6,16.8h2.4V20H7.9v-2.7H6.5V20H6L6,16.8
	L6,16.8z M11.5,20l-0.3-0.8H9.8L9.4,20H8.9l1.6-3.4L12,20H11.5L11.5,20z M10,18.8h1l-0.5-1.1L10,18.8z M12.8,16.8h2.1V20h-0.5v-2.7
	h-1.1v1.6c0,0.3,0,0.5-0.1,0.6c-0.1,0.1-0.1,0.3-0.2,0.3c-0.1,0.1-0.2,0.1-0.3,0.1c-0.1,0-0.2,0-0.3,0c0,0-0.1,0-0.1,0
	c0,0-0.1,0-0.1,0v-0.5c0,0,0.1,0,0.1,0c0,0,0.1,0,0.1,0c0.1,0,0.1,0,0.2,0c0.1,0,0.1,0,0.1-0.1c0.1-0.1,0.1-0.1,0.1-0.2
	c0-0.1,0-0.3,0-0.5V16.8L12.8,16.8z M15.7,20v-3.2h0.5v1.3h0.4c0.2,0,0.3,0,0.5,0.1c0.1,0,0.3,0.1,0.4,0.2c0.1,0.1,0.2,0.2,0.2,0.3
	c0.1,0.1,0.1,0.3,0.1,0.4c0,0.2,0,0.3-0.1,0.4c-0.1,0.1-0.2,0.3-0.3,0.3c-0.1,0.1-0.2,0.1-0.3,0.1c-0.1,0-0.2,0-0.4,0L15.7,20
	L15.7,20z M16.2,18.6v1h0.3c0.2,0,0.4,0,0.5-0.1c0.1-0.1,0.2-0.2,0.2-0.4c0-0.2-0.1-0.3-0.2-0.4c-0.1-0.1-0.3-0.1-0.5-0.1H16.2z
	 M18.8,16.8v1.2h1.4v-1.2h0.5V20h-0.5v-1.5h-1.4V20h-0.5v-3.2H18.8z M23.6,20v-2.2l-2.2,2.3v-3.3H22V19l2.2-2.3V20H23.6z M25.5,16.8
	v1.3l1.2-1.3h0.6l-1.5,1.4l1.5,1.7h-0.7l-1.2-1.5V20H25v-3.2H25.5L25.5,16.8z M29.3,16.7c0.5,0,0.9,0.2,1.2,0.5
	c0.3,0.3,0.5,0.7,0.5,1.2c0,0.5-0.2,0.9-0.5,1.2c-0.3,0.3-0.7,0.5-1.2,0.5c-0.5,0-0.9-0.2-1.2-0.5c-0.3-0.3-0.5-0.7-0.5-1.2
	c0-0.5,0.2-0.9,0.5-1.2C28.4,16.9,28.8,16.8,29.3,16.7z M29.3,19.6c0.3,0,0.6-0.1,0.8-0.3c0.2-0.2,0.3-0.5,0.3-0.9
	c0-0.4-0.1-0.6-0.3-0.9c-0.2-0.2-0.5-0.3-0.8-0.3c-0.3,0-0.6,0.1-0.8,0.3c-0.2,0.2-0.3,0.5-0.3,0.9c0,0.4,0.1,0.6,0.3,0.9
	C28.6,19.5,28.9,19.6,29.3,19.6z M31.6,16.8h0.5c0.2,0,0.4,0,0.5,0c0.1,0,0.2,0.1,0.3,0.1c0.1,0.1,0.2,0.2,0.3,0.3
	c0.1,0.1,0.1,0.3,0.1,0.4c0,0.1,0,0.2-0.1,0.3c0,0.1-0.1,0.2-0.2,0.3c0.2,0.1,0.3,0.2,0.4,0.3c0.1,0.1,0.2,0.3,0.2,0.5
	c0,0.1,0,0.3-0.1,0.4c-0.1,0.1-0.1,0.2-0.2,0.3c-0.1,0.1-0.2,0.1-0.3,0.2c-0.1,0-0.3,0.1-0.5,0.1h-0.7L31.6,16.8L31.6,16.8z
	 M32.1,17.3v0.9h0.1c0.2,0,0.3,0,0.4-0.1c0.1-0.1,0.1-0.2,0.1-0.3c0-0.1,0-0.2-0.1-0.3c-0.1-0.1-0.2-0.1-0.4-0.1H32.1z M32.1,18.6v1
	h0.3c0.2,0,0.4,0,0.5-0.1c0.1-0.1,0.2-0.2,0.2-0.4c0-0.1-0.1-0.3-0.2-0.4c-0.1-0.1-0.3-0.1-0.5-0.1L32.1,18.6L32.1,18.6z M33.8,20.6
	l0.5-1.2l0.4,0.2l-0.6,1.2L33.8,20.6L33.8,20.6z M36.9,16.8h2v2.7h0.4v1.2h-0.5V20h-2.1v0.7h-0.5v-1.2c0.1,0,0.2,0,0.3-0.1
	c0.1-0.1,0.2-0.2,0.2-0.3c0-0.1,0.1-0.2,0.1-0.3c0-0.1,0-0.3,0-0.5V16.8L36.9,16.8z M37.4,17.3v1c0,0.2,0,0.4,0,0.5
	c0,0.1,0,0.3-0.1,0.4c0,0.1-0.1,0.2-0.1,0.2c0,0.1-0.1,0.1-0.1,0.2h1.4v-2.3L37.4,17.3L37.4,17.3z M41.4,16.7c0.5,0,0.9,0.2,1.2,0.5
	c0.3,0.3,0.5,0.7,0.5,1.2c0,0.5-0.2,0.9-0.5,1.2c-0.3,0.3-0.7,0.5-1.2,0.5c-0.5,0-0.9-0.2-1.2-0.5c-0.3-0.3-0.5-0.7-0.5-1.2
	c0-0.5,0.2-0.9,0.5-1.2C40.5,16.9,40.9,16.8,41.4,16.7z M41.4,19.6c0.3,0,0.6-0.1,0.8-0.3c0.2-0.2,0.3-0.5,0.3-0.9
	c0-0.4-0.1-0.6-0.3-0.9c-0.2-0.2-0.5-0.3-0.8-0.3c-0.3,0-0.6,0.1-0.8,0.3c-0.2,0.2-0.3,0.5-0.3,0.9c0,0.4,0.1,0.6,0.3,0.9
	C40.7,19.5,41,19.6,41.4,19.6z M44,20h-0.5l0.7-3.4l1.1,2.5l1.1-2.5L47,20h-0.5l-0.3-1.9l-0.9,2.1l-0.9-2.1L44,20L44,20z M50,20
	l-0.3-0.8h-1.4L48,20h-0.5l1.6-3.4l1.5,3.4H50L50,20z M48.5,18.8h1L49,17.7L48.5,18.8z M51,20v-3.2h0.5v2.7h1.1v-2.7h0.5v2.7h1.1
	v-2.7h0.5V20H51z M56.1,16.8v1.2h1.4v-1.2H58V20h-0.5v-1.5h-1.4V20h-0.5v-3.2H56.1z M60.6,16.8v0.5h-1.3V18h1.2v0.5h-1.2v1.1h1.3V20
	h-1.8v-3.2L60.6,16.8L60.6,16.8z M63.5,20v-2.2l-2.2,2.3v-3.3h0.5V19l2.2-2.3V20H63.5z M61.8,16l0.4-0.2c0,0.1,0.1,0.2,0.1,0.2
	c0.1,0,0.2,0.1,0.3,0.1c0.1,0,0.2,0,0.3-0.1c0.1,0,0.1-0.1,0.2-0.2l0.4,0.2c-0.1,0.1-0.2,0.3-0.3,0.4c-0.1,0.1-0.3,0.1-0.5,0.1
	c-0.2,0-0.4,0-0.5-0.1C62,16.3,61.9,16.2,61.8,16L61.8,16z M67.4,16.7c0.5,0,0.9,0.2,1.2,0.5c0.3,0.3,0.5,0.7,0.5,1.2
	c0,0.5-0.2,0.9-0.5,1.2c-0.3,0.3-0.7,0.5-1.2,0.5c-0.5,0-0.9-0.2-1.2-0.5c-0.3-0.3-0.5-0.7-0.5-1.2c0-0.5,0.2-0.9,0.5-1.2
	C66.5,16.9,66.9,16.8,67.4,16.7z M67.4,19.6c0.3,0,0.6-0.1,0.8-0.3s0.3-0.5,0.3-0.9c0-0.4-0.1-0.6-0.3-0.9c-0.2-0.2-0.5-0.3-0.8-0.3
	c-0.3,0-0.6,0.1-0.8,0.3c-0.2,0.2-0.3,0.5-0.3,0.9c0,0.4,0.1,0.6,0.3,0.9C66.8,19.5,67.1,19.6,67.4,19.6z M70,16.8h2v2.7h0.4v1.2
	h-0.5V20h-2.1v0.7h-0.5v-1.2c0.1,0,0.2,0,0.3-0.1c0.1-0.1,0.2-0.2,0.2-0.3c0-0.1,0.1-0.2,0.1-0.3c0-0.1,0-0.3,0-0.5L70,16.8L70,16.8
	z M70.5,17.3v1c0,0.2,0,0.4,0,0.5c0,0.1,0,0.3-0.1,0.4c0,0.1-0.1,0.2-0.1,0.2c0,0.1-0.1,0.1-0.1,0.2h1.4v-2.3L70.5,17.3L70.5,17.3z
	 M74.7,16.8v0.5h-1.3V18h1.2v0.5h-1.2v1.1h1.3V20h-1.8v-3.2L74.7,16.8L74.7,16.8z M77.3,16.8v1.3l1.1-1.3h0.6l-1.3,1.5l1.4,1.7h-0.6
	l-1.2-1.5V20h-0.5v-1.5L75.7,20h-0.6l1.4-1.7l-1.3-1.5h0.6l1.1,1.3v-1.3H77.3z M79.9,16.8h2v2.7h0.4v1.2h-0.5V20h-2.1v0.7h-0.5v-1.2
	c0.1,0,0.2,0,0.3-0.1c0.1-0.1,0.2-0.2,0.2-0.3c0-0.1,0.1-0.2,0.1-0.3c0-0.1,0-0.3,0-0.5L79.9,16.8L79.9,16.8z M80.4,17.3v1
	c0,0.2,0,0.4,0,0.5c0,0.1,0,0.3-0.1,0.4c0,0.1-0.1,0.2-0.1,0.2c0,0.1-0.1,0.1-0.1,0.2h1.4v-2.3L80.4,17.3L80.4,17.3z M82.8,20v-3.2
	h0.5v1.3h0.4c0.2,0,0.3,0,0.5,0.1c0.1,0,0.3,0.1,0.4,0.2c0.1,0.1,0.2,0.2,0.2,0.3c0.1,0.1,0.1,0.3,0.1,0.4c0,0.2,0,0.3-0.1,0.4
	c-0.1,0.1-0.2,0.3-0.3,0.3c-0.1,0.1-0.2,0.1-0.3,0.1s-0.2,0-0.4,0L82.8,20L82.8,20z M83.3,18.6v1h0.3c0.2,0,0.4,0,0.5-0.1
	c0.1-0.1,0.2-0.2,0.2-0.4c0-0.2-0.1-0.3-0.2-0.4c-0.1-0.1-0.3-0.1-0.5-0.1H83.3z M85.1,16.8h0.5V20h-0.5V16.8z M89.7,20v-2.2
	l-2.2,2.3v-3.3H88V19l2.2-2.3V20H89.7z M93.8,20v-1.3c-0.3,0-0.4,0-0.5,0c-0.1,0-0.1,0-0.1,0c-0.2,0-0.4,0-0.5,0
	c-0.1,0-0.2-0.1-0.3-0.2c-0.1-0.1-0.2-0.2-0.2-0.3C92,18.1,92,17.9,92,17.8v-0.9h0.5v0.9c0,0.1,0,0.3,0,0.3c0,0.1,0.1,0.1,0.1,0.2
	c0,0,0.1,0.1,0.2,0.1c0.1,0,0.2,0,0.3,0c0.1,0,0.2,0,0.3,0c0.1,0,0.2,0,0.3,0v-1.4h0.5V20L93.8,20L93.8,20z M94.8,16.8h0.6l0.8,1.6
	l0.7-1.6h0.5L96,20h-0.5l0.4-1L94.8,16.8z M98,16.8h2.1V20h-0.5v-2.7h-1.1v1.6c0,0.3,0,0.5-0.1,0.6c-0.1,0.1-0.1,0.3-0.2,0.3
	c-0.1,0.1-0.2,0.1-0.3,0.1c-0.1,0-0.2,0-0.3,0c0,0-0.1,0-0.1,0c0,0-0.1,0-0.1,0v-0.5c0,0,0.1,0,0.1,0c0,0,0.1,0,0.1,0
	c0.1,0,0.1,0,0.2,0c0.1,0,0.1,0,0.1-0.1c0.1-0.1,0.1-0.1,0.1-0.2c0-0.1,0-0.3,0-0.5L98,16.8L98,16.8z M102.4,16.7
	c0.5,0,0.9,0.2,1.2,0.5c0.3,0.3,0.5,0.7,0.5,1.2c0,0.5-0.2,0.9-0.5,1.2c-0.3,0.3-0.7,0.5-1.2,0.5c-0.5,0-0.9-0.2-1.2-0.5
	c-0.3-0.3-0.5-0.7-0.5-1.2c0-0.5,0.2-0.9,0.5-1.2C101.5,16.9,101.9,16.8,102.4,16.7z M102.4,19.6c0.3,0,0.6-0.1,0.8-0.3
	c0.2-0.2,0.3-0.5,0.3-0.9c0-0.4-0.1-0.6-0.3-0.9c-0.2-0.2-0.5-0.3-0.8-0.3c-0.3,0-0.6,0.1-0.8,0.3c-0.2,0.2-0.3,0.5-0.3,0.9
	c0,0.4,0.1,0.6,0.3,0.9C101.8,19.5,102.1,19.6,102.4,19.6z M106.4,20v-1.3c-0.3,0-0.4,0-0.5,0c-0.1,0-0.1,0-0.1,0
	c-0.2,0-0.4,0-0.5,0c-0.1,0-0.2-0.1-0.3-0.2c-0.1-0.1-0.2-0.2-0.2-0.3c-0.1-0.1-0.1-0.3-0.1-0.5v-0.9h0.5v0.9c0,0.1,0,0.3,0,0.3
	c0,0.1,0.1,0.1,0.1,0.2c0,0,0.1,0.1,0.2,0.1c0.1,0,0.2,0,0.3,0c0.1,0,0.2,0,0.3,0c0.1,0,0.2,0,0.3,0v-1.4h0.5V20L106.4,20L106.4,20z
	 M108.3,16.8v1.2h1.4v-1.2h0.5V20h-0.5v-1.5h-1.4V20h-0.5v-3.2H108.3z M111,20v-3.2h0.5v1.3h0.4c0.2,0,0.3,0,0.5,0.1
	c0.1,0,0.3,0.1,0.4,0.2c0.1,0.1,0.2,0.2,0.2,0.3c0.1,0.1,0.1,0.3,0.1,0.4c0,0.2,0,0.3-0.1,0.4c-0.1,0.1-0.2,0.3-0.3,0.3
	c-0.1,0.1-0.2,0.1-0.3,0.1c-0.1,0-0.2,0-0.4,0L111,20L111,20z M111.5,18.6v1h0.3c0.2,0,0.4,0,0.5-0.1c0.1-0.1,0.2-0.2,0.2-0.4
	c0-0.2-0.1-0.3-0.2-0.4c-0.1-0.1-0.3-0.1-0.5-0.1H111.5z M113.3,16.8h0.5V20h-0.5V16.8z M114.3,20l1-1.7l-0.9-1.5h0.6l0.6,1.1
	l0.6-1.1h0.6l-0.9,1.5l1,1.7h-0.6l-0.7-1.2l-0.7,1.2H114.3L114.3,20z M120.6,20v-2.2l-2.2,2.3v-3.3h0.5V19l2.2-2.3V20H120.6z
	 M122.2,17.5l-0.3-0.3c0.1-0.2,0.3-0.3,0.4-0.4c0.2-0.1,0.3-0.1,0.5-0.1c0.1,0,0.3,0,0.4,0.1c0.1,0,0.2,0.1,0.3,0.2
	c0.1,0.1,0.2,0.2,0.2,0.3c0,0.1,0.1,0.2,0.1,0.3c0,0.2,0,0.3-0.1,0.4c-0.1,0.1-0.2,0.2-0.3,0.3c0.2,0.1,0.3,0.2,0.4,0.3
	c0.1,0.1,0.2,0.3,0.2,0.5c0,0.2,0,0.3-0.1,0.5c-0.1,0.1-0.2,0.2-0.3,0.3c-0.1,0.1-0.2,0.1-0.4,0.2c-0.1,0-0.3,0.1-0.4,0.1
	c-0.3,0-0.5-0.1-0.7-0.2c-0.2-0.1-0.4-0.3-0.5-0.6l0.4-0.2c0.1,0.2,0.2,0.3,0.3,0.4c0.1,0.1,0.3,0.1,0.5,0.1c0.1,0,0.1,0,0.2,0
	c0.1,0,0.1,0,0.2-0.1c0.1,0,0.1-0.1,0.2-0.2c0-0.1,0.1-0.2,0.1-0.2c0-0.2-0.1-0.3-0.2-0.4c-0.1-0.1-0.3-0.1-0.6-0.1h-0.3v-0.5h0.3
	c0.2,0,0.3,0,0.4-0.1c0.1-0.1,0.2-0.2,0.2-0.4c0-0.1,0-0.1,0-0.2c0,0,0-0.1-0.1-0.1c-0.1,0-0.1-0.1-0.2-0.1c-0.1,0-0.1,0-0.2,0
	c-0.2,0-0.3,0-0.4,0.1C122.4,17.3,122.3,17.4,122.2,17.5L122.2,17.5z M125.1,16.8h2v2.7h0.4v1.2H127V20h-2.1v0.7h-0.5v-1.2
	c0.1,0,0.2,0,0.3-0.1c0.1-0.1,0.2-0.2,0.2-0.3c0-0.1,0.1-0.2,0.1-0.3c0-0.1,0-0.3,0-0.5V16.8L125.1,16.8z M125.6,17.3v1
	c0,0.2,0,0.4,0,0.5c0,0.1,0,0.3-0.1,0.4c0,0.1-0.1,0.2-0.1,0.2c0,0.1-0.1,0.1-0.1,0.2h1.4v-2.3L125.6,17.3L125.6,17.3z M129.7,16.8
	v0.5h-1.3V18h1.2v0.5h-1.2v1.1h1.3V20H128v-3.2L129.7,16.8L129.7,16.8z M130.8,16.8h2.1V20h-0.5v-2.7h-1.1v1.6c0,0.3,0,0.5-0.1,0.6
	c-0.1,0.1-0.1,0.3-0.2,0.3c-0.1,0.1-0.2,0.1-0.3,0.1c-0.1,0-0.2,0-0.3,0c0,0-0.1,0-0.1,0c0,0-0.1,0-0.1,0v-0.5c0,0,0.1,0,0.1,0
	c0,0,0.1,0,0.1,0c0.1,0,0.1,0,0.2,0c0.1,0,0.1,0,0.1-0.1c0.1-0.1,0.1-0.1,0.1-0.2c0-0.1,0-0.3,0-0.5L130.8,16.8L130.8,16.8z
	 M135.8,20v-2.2l-2.2,2.3v-3.3h0.5V19l2.2-2.3V20H135.8z M139.3,20v-2.2l-2.2,2.3v-3.3h0.5V19l2.2-2.3V20H139.3z M137.7,16l0.4-0.2
	c0,0.1,0.1,0.2,0.1,0.2c0.1,0,0.2,0.1,0.3,0.1c0.1,0,0.2,0,0.3-0.1c0.1,0,0.1-0.1,0.2-0.2l0.4,0.2c-0.1,0.1-0.2,0.3-0.3,0.4
	c-0.1,0.1-0.3,0.1-0.5,0.1c-0.2,0-0.4,0-0.5-0.1C137.9,16.3,137.8,16.2,137.7,16"/>
<image overflow="visible" width="150" height="66" xlink:href="../../Загрузки Хром/knopka_25-27.jpg"  transform="matrix(1.0613 0 0 1.0613 400.6366 -48.5813)">
</image>
<image overflow="visible" width="150" height="66" xlink:href="../../Загрузки Хром/knopka_22-24.jpg"  transform="matrix(1.0591 0 0 1.0591 232.7733 -48.5072)">
</image>
</svg>
