<?xml version="1.0" encoding="utf-8"?>
<!-- Generator: Adobe Illustrator 17.1.0, SVG Export Plug-In . SVG Version: 6.00 Build 0)  -->
<!DOCTYPE svg PUBLIC "-//W3C//DTD SVG 1.1//EN" "http://www.w3.org/Graphics/SVG/1.1/DTD/svg11.dtd">
<svg version="1.1"
	 id="svg4235" xmlns:dc="http://purl.org/dc/elements/1.1/" xmlns:cc="http://creativecommons.org/ns#" xmlns:rdf="http://www.w3.org/1999/02/22-rdf-syntax-ns#" xmlns:svg="http://www.w3.org/2000/svg" xmlns:sodipodi="http://sodipodi.sourceforge.net/DTD/sodipodi-0.dtd" xmlns:inkscape="http://www.inkscape.org/namespaces/inkscape" sodipodi:docname="logo.svg" inkscape:version="0.91 r13725"
	 xmlns="http://www.w3.org/2000/svg" xmlns:xlink="http://www.w3.org/1999/xlink" x="0px" y="0px" viewBox="0 0 847 72"
	 enable-background="new 0 0 847 72" xml:space="preserve">
<sodipodi:namedview  units="px" showborder="false" showgrid="false" inkscape:cy="7.8205144" inkscape:cx="155.07989" inkscape:zoom="8" borderopacity="0" bordercolor="#666666" pagecolor="#ffffff" id="base" inkscape:pageshadow="2" inkscape:document-units="px" inkscape:current-layer="layer2" inkscape:window-maximized="1" inkscape:window-x="-8" inkscape:pageopacity="0" inkscape:window-width="1366" inkscape:window-y="-8" inkscape:window-height="706">
	</sodipodi:namedview>
<g id="layer1" transform="translate(0,-1031.3622)" inkscape:label="Layer 1" inkscape:groupmode="layer" display="none">
	<g id="g4853" transform="translate(-360.50772,557.20573)" display="inline">
		<path id="path56" inkscape:connector-curvature="0" fill="#CD9C71" d="M364,477.4h4.8v27.1h8.9v4.5H364V477.4z M381.8,477.4h4.8
			v31.5h-4.8V477.4z M398.3,508.9h-4.8v-33.6l22.3,23.7v-21.6h4.8v33.3L398.3,487V508.9z M443.5,496.9v-4.5h12.7v1
			c0,2.4-0.3,4.1-0.7,5.8c-0.3,1.7-1,3.1-2.1,4.1c-1.4,2.1-3.1,3.4-5.1,4.5c-2.1,1-4.1,1.4-6.5,1.4c-2.1,0-4.1-0.3-5.8-1
			c-1.7-0.7-3.4-2.1-5.1-3.4c-1.7-1.7-2.7-3.4-3.4-5.5s-1-4.1-1-6.2s0.3-4.1,1-6.2s1.7-3.8,3.4-5.5c1.4-1.7,3.1-2.7,5.1-3.4
			c2.1-0.7,4.1-1.4,6.5-1.4c1.7,0,3.4,0.3,4.8,0.7c1.7,0.3,3.1,1.4,4.5,2.4c0.7,0.3,1.4,1,1.7,1.7c0.7,0.7,1,1,1.7,1.7l-3.4,3.1
			c-1-1.7-2.4-2.7-4.1-3.8c-1.7-1-3.4-1.4-5.5-1.4c-3.1,0-5.8,1-7.9,3.4s-3.1,5.1-3.1,8.6c0,3.4,1,6.2,3.1,8.6
			c2.1,2.1,4.8,3.4,7.9,3.4c2.4,0,4.5-0.7,6.2-2.4c1.7-1.4,2.7-3.4,3.1-5.8L443.5,496.9L443.5,496.9z M478.5,477.4v4.5h-12.3v7.5
			h11.7v4.5h-11.7v10.3h12.3v4.5h-16.8V477L478.5,477.4L478.5,477.4z M484.3,477.4h5.5c2.1,0,3.8,0.3,4.8,0.3
			c1.4,0.3,2.4,0.7,3.1,1.4c1,0.7,2.1,2.1,2.7,3.1c0.7,1.4,1,2.7,1,4.1c0,2.4-0.7,4.1-1.7,5.8c-1.4,1.7-2.7,2.7-4.8,3.1l9.6,13.4
			h-5.8l-8.6-13h-0.7v13h-4.8L484.3,477.4L484.3,477.4z M489.1,481.8v9.9h1.4c2.1,0,3.8-0.3,4.8-1.4c1-1,1.7-2.1,1.7-3.8
			s-0.3-2.7-1.4-3.4c-1-0.7-2.4-1-4.8-1.4L489.1,481.8L489.1,481.8z M508.7,477.4h4.8v31.5h-4.8V477.4z M537.5,477.4v4.5h-12.3v7.5
			h12v4.5h-12v10.3h12.3v4.5h-16.8V477L537.5,477.4L537.5,477.4z M570.4,482.2l-3.8,2.4c0-0.3-0.3-0.7-0.7-1c-0.3-0.3-0.3-0.7-0.7-1
			c-0.3-0.3-1-0.7-1.4-0.7c-0.3,0-1-0.3-1.7-0.3c-1.4,0-2.4,0.3-3.1,1c-0.7,0.7-1.4,1.7-1.4,2.7c0,0.7,0.3,1.7,0.7,2.1
			c0.3,0.7,1.4,1,2.4,1.7l3.1,1.4c2.4,1,4.5,2.4,5.5,3.8s1.7,3.4,1.7,5.5c0,3.1-1,5.5-2.7,7.2s-4.1,2.7-7.2,2.7
			c-1.4,0-2.7-0.3-4.1-0.7c-1.4-0.3-2.4-1.4-3.1-2.4c-0.7-0.7-1.4-1.7-1.7-2.7s-0.7-2.1-0.7-3.4l4.8-1c0,0.7,0,1.4,0.3,2.1
			s0.7,1.4,1,1.7c0.3,0.7,1,1,1.7,1.4c0.7,0.3,1.4,0.3,2.4,0.3c1.4,0,2.7-0.3,3.8-1.4c1-1,1.4-2.1,1.4-3.8c0-1-0.3-2.1-1-3.1
			c-0.7-0.7-1.7-1.7-3.4-2.4l-3.1-1.4c-2.1-1-3.8-2.1-4.8-3.4c-1-1.4-1.7-2.7-1.7-4.8c0-2.4,1-4.5,2.7-6.2s3.8-2.4,6.5-2.4
			c1.4,0,2.4,0.3,3.4,0.7c1,0.3,1.7,1,2.7,1.7c0.3,0.3,1,1,1.4,1.4C570,480.1,570,481.5,570.4,482.2L570.4,482.2z M581.7,477.4v12.3
			h13v-12.3h4.8v31.5h-4.8v-14.7h-13v14.7h-4.8v-31.5H581.7L581.7,477.4z M621.1,476.7c4.5,0,8.2,1.7,11.3,4.8s4.5,7.2,4.5,11.7
			c0,4.8-1.7,8.6-4.5,11.7s-6.9,4.8-11.3,4.8s-8.2-1.7-11.3-4.8s-4.5-6.9-4.5-11.7c0-4.8,1.4-8.6,4.5-11.7
			C612.6,478.4,616.3,476.7,621.1,476.7z M621.1,504.8c3.1,0,5.8-1,7.9-3.4c2.1-2.1,3.1-5.1,3.1-8.6c0-3.4-1-6.2-3.1-8.6
			c-2.1-2.1-4.8-3.4-7.9-3.4s-5.8,1-7.9,3.4c-2.1,2.4-3.1,5.1-3.1,8.6c0,3.4,1,6.2,3.1,8.6C615,503.8,617.7,504.8,621.1,504.8z
			 M638.3,477.4h5.1l7.9,20.9l8.2-22.6l7.9,22.6l8.2-20.9h5.1L667.1,511l-7.9-22.3L651,511L638.3,477.4z M683.2,501v-4.8h11v4.8
			H683.2z M714.7,477.4v4.5h-10.6v7.5h10.3v4.5h-10.3V509h-4.8v-31.5L714.7,477.4L714.7,477.4z M734.3,476.7c4.5,0,8.2,1.7,11.3,4.8
			s4.5,7.2,4.5,11.7c0,4.8-1.7,8.6-4.5,11.7c-2.7,3.1-6.9,4.8-11.3,4.8s-8.2-1.7-11.3-4.8s-4.5-6.9-4.5-11.7c0-4.8,1.4-8.6,4.5-11.7
			S729.8,476.7,734.3,476.7z M734.3,504.8c3.1,0,5.8-1,7.9-3.4c2.1-2.1,3.1-5.1,3.1-8.6c0-3.4-1-6.2-3.1-8.6
			c-2.1-2.1-4.8-3.4-7.9-3.4s-5.8,1-7.9,3.4c-2.1,2.4-3.1,5.1-3.1,8.6c0,3.4,1,6.2,3.1,8.6C728.4,503.8,731.2,504.8,734.3,504.8z
			 M755.9,477.4h5.5c2.1,0,3.8,0.3,4.8,0.3c1.4,0.3,2.4,0.7,3.1,1.4c1,0.7,2.1,2.1,2.7,3.1c0.7,1.4,1,2.7,1,4.1
			c0,2.4-0.7,4.1-1.7,5.8c-1.4,1.7-2.7,2.7-4.8,3.1l9.6,13.4h-5.8l-8.6-13H761v13h-4.8L755.9,477.4L755.9,477.4z M760.7,481.8v9.9
			h1.4c2.1,0,3.8-0.3,4.8-1.4c1-1,1.7-2.1,1.7-3.8s-0.3-2.7-1.4-3.4c-1-0.7-2.4-1-4.8-1.4L760.7,481.8L760.7,481.8z M780.2,477.4
			h4.8v18.9c0,1.4,0,2.4,0.3,3.4c0,0.7,0.3,1.4,0.7,2.1c0.7,1,1.4,1.7,2.4,2.4c1,0.7,2.1,0.7,3.4,0.7s2.4-0.3,3.4-0.7
			c1-0.7,1.7-1.4,2.4-2.4c0.3-0.7,0.7-1.4,0.7-2.1s0.3-1.7,0.3-3.4v-18.9h4.8v20.2c0,1.7-0.3,3.1-0.7,4.5c-0.3,1.4-1,2.7-2.1,3.8
			c-1,1.4-2.4,2.1-3.8,2.7c-1.4,0.7-3.1,1-4.8,1s-3.4-0.3-4.8-1c-1.4-0.7-2.7-1.7-3.8-2.7c-1-1-1.7-2.4-2.1-3.8
			c-0.3-1.4-0.7-2.7-0.7-4.5v-20.2H780.2z M813.8,508.9H809l6.5-33.9l10.6,24.3l10.6-24.3l5.8,33.9h-4.8l-3.1-18.9l-8.9,20.2
			l-8.9-20.6L813.8,508.9"/>
		<path id="path58" inkscape:connector-curvature="0" fill="#FFFFFF" d="M365.7,526.4H364l2.4-11.7l3.8,8.6l3.8-8.6l2.1,11.7h-1.7
			l-1-6.5l-3.1,7.2l-3.1-7.2L365.7,526.4z M388,515.4v1.7h-4.5v2.7h4.1v1.7h-4.1v3.8h4.5v1.7h-6.2v-11L388,515.4L388,515.4z
			 M400.7,515.4v4.5l3.8-4.5h2.1l-4.5,5.1l4.8,5.8h-2.1l-4.1-5.1v5.1H399v-5.1l-4.1,5.1h-2.1l4.8-5.8l-4.5-5.1h2.1l3.8,4.5v-4.5
			H400.7z M413,515.4h6.9v9.6h1.4v4.1h-1.7v-2.4h-7.2v2.4h-1.7V525c0.3,0,0.7,0,1-0.3s0.7-0.7,0.7-1s0.3-0.7,0.3-1s0-1,0-1.7
			L413,515.4L413,515.4z M414.7,516.8v3.4c0,0.7,0,1.4,0,1.7s0,1-0.3,1.4c0,0.3-0.3,0.7-0.3,0.7c0,0.3-0.3,0.3-0.3,0.7h4.8v-7.9
			L414.7,516.8L414.7,516.8z M425.4,515.4h2.1l2.7,5.5l2.4-5.5h1.7l-5.1,11h-1.7l1.4-3.4L425.4,515.4L425.4,515.4z M441.5,515.4v4.5
			h4.8v-4.5h1.7v11h-1.7v-5.1h-4.8v5.1h-1.7v-11H441.5z M462,526.4l-1-2.7h-4.8l-1.4,2.7h-1.7l5.5-11.7l5.1,11.7H462z M456.9,522
			h3.4l-1.7-3.8L456.9,522L456.9,522z M468.9,515.4h2.4c0.7,0,1,0,1.4,0c0.3,0,0.7,0.3,1,0.3c0.3,0.3,0.7,0.7,1,1s0.3,1,0.3,1.4
			s0,1-0.3,1.4s-0.3,0.7-0.7,1c-0.3,0.3-0.7,0.7-1.4,0.7c-0.3,0-1,0.3-1.4,0.3h-0.7v4.5h-1.7L468.9,515.4L468.9,515.4z M470.6,516.8
			v3.4h0.7c0.7,0,1,0,1.4-0.3c0.3-0.3,0.7-0.7,0.7-1.4s-0.3-1-0.7-1.4c-0.3-0.3-1-0.3-1.4-0.3H470.6L470.6,516.8z M486,515.1
			c1.7,0,3.1,0.7,4.1,1.7s1.7,2.4,1.7,4.1s-0.7,3.1-1.7,4.1s-2.4,1.7-4.1,1.7s-3.1-0.7-4.1-1.7s-1.7-2.4-1.7-4.1s0.7-3.1,1.7-4.1
			C483,515.8,484.3,515.1,486,515.1z M486,525c1,0,2.1-0.3,2.7-1c0.7-0.7,1-1.7,1-3.1s-0.3-2.1-1-3.1c-0.7-0.7-1.7-1-2.7-1
			s-2.1,0.3-2.7,1c-0.7,0.7-1,1.7-1,3.1s0.3,2.1,1,3.1C484,524.7,484.7,525,486,525z M498.4,515.4h6.9v9.6h1.4v4.1H505v-2.4h-7.2
			v2.4H496V525c0.3,0,0.7,0,1-0.3s0.7-0.7,0.7-1s0.3-0.7,0.3-1s0-1,0-1.7L498.4,515.4L498.4,515.4z M500.1,516.8v3.4
			c0,0.7,0,1.4,0,1.7s0,1-0.3,1.4c0,0.3-0.3,0.7-0.3,0.7c0,0.3-0.3,0.3-0.3,0.7h4.8v-7.9L500.1,516.8L500.1,516.8z M513.5,515.4v4.5
			h4.8v-4.5h1.7v11h-1.7v-5.1h-4.8v5.1h-1.4v-11H513.5z M534,526.4l-1-2.7h-4.8l-1.4,2.7h-1.7l5.5-11.7l5.1,11.7H534L534,526.4z
			 M528.9,522h3.4l-1.7-3.8L528.9,522L528.9,522z M540.2,526.4l3.4-4.5c-0.3,0-0.7,0-1-0.3c-0.3,0-0.7-0.3-0.7-0.3
			c-0.3-0.3-0.7-0.7-0.7-1s-0.3-0.7-0.3-1.4c0-0.3,0-1,0.3-1.4c0-0.3,0.3-0.7,0.7-1c0.3-0.3,0.7-0.7,1-0.7c0.3-0.3,1-0.3,1.7-0.3
			h2.7v11h-1.7V522h-0.3l-3.1,4.5L540.2,526.4L540.2,526.4z M545.7,516.8H545c-0.3,0-1,0-1,0c-0.3,0-0.7,0.3-0.7,0.3
			s-0.3,0.3-0.3,0.7s0,0.3,0,0.7c0,0.3,0,0.7,0,0.7c0,0.3,0.3,0.3,0.3,0.7c0,0,0.3,0.3,0.7,0.3c0.3,0,0.7,0,1,0h1v-3.4H545.7z
			 M561.1,515.4h1.7c0.7,0,1.4,0,1.7,0s0.7,0.3,1,0.3c0.3,0.3,0.7,0.7,1,1s0.3,1,0.3,1.4s0,0.7-0.3,1c0,0.3-0.3,0.7-0.7,1
			c0.7,0.3,1,0.7,1.4,1c0.3,0.3,0.7,1,0.7,1.7c0,0.3,0,1-0.3,1.4c-0.3,0.3-0.3,0.7-0.7,1c-0.3,0.3-0.7,0.3-1,0.7
			c-0.3,0-1,0.3-1.7,0.3h-2.4L561.1,515.4L561.1,515.4z M562.8,516.8v3.1h0.3c0.7,0,1,0,1.4-0.3s0.3-0.7,0.3-1.4c0-0.3,0-0.7-0.3-1
			s-0.7-0.3-1.4-0.3L562.8,516.8L562.8,516.8z M562.8,521.6v3.4h1c0.7,0,1.4,0,1.7-0.3s0.7-0.7,0.7-1.4c0-0.3-0.3-1-0.7-1.4
			c-0.3-0.3-1-0.3-1.7-0.3H562.8L562.8,521.6z M573.5,526.4v-11h1.7v4.5h1.4c0.7,0,1,0,1.7,0.3c0.3,0,1,0.3,1.4,0.7s0.7,0.7,0.7,1
			c0.3,0.3,0.3,1,0.3,1.4c0,0.7,0,1-0.3,1.4c-0.3,0.3-0.7,1-1,1c-0.3,0.3-0.7,0.3-1,0.3s-0.7,0-1.4,0L573.5,526.4L573.5,526.4z
			 M575.2,521.3v3.4h1c0.7,0,1.4,0,1.7-0.3s0.7-0.7,0.7-1.4s-0.3-1-0.7-1.4c-0.3-0.3-1-0.3-1.7-0.3H575.2z M581.4,515.4h1.7v11h-1.7
			V515.4z M597.8,515.8v2.1c-0.3-0.3-1-0.7-1.4-1c-0.3-0.3-1-0.3-1.7-0.3c-1,0-2.1,0.3-2.7,1c-0.7,0.7-1,1.7-1,3.1
			c0,1,0.3,2.1,1,3.1c0.7,0.7,1.7,1,2.7,1c0.7,0,1,0,1.7-0.3c0.3-0.3,1-0.7,1.4-1v2.1c-0.3,0.3-1,0.7-1.4,0.7c-0.3,0-1,0.3-1.4,0.3
			c-0.7,0-1.4,0-2.1-0.3c-0.7-0.3-1.4-0.7-1.7-1c-0.7-0.7-1-1-1.4-1.7c-0.3-0.7-0.3-1.4-0.3-2.4s0-1.7,0.3-2.4s0.7-1.4,1.4-2.1
			c0.3-0.3,1-0.7,1.7-1s1.4-0.3,2.4-0.3c0.7,0,1,0,1.7,0.3C596.8,515.4,597.5,515.8,597.8,515.8z M609.1,516.8h-2.4v9.6H605v-9.6
			h-2.4v-1.7h6.9v1.7H609.1z M621.5,526.4l-1-2.7h-4.8l-1.4,2.7h-1.7l5.5-11.7l5.1,11.7H621.5z M616.3,522h3.4l-1.7-3.8L616.3,522z
			 M628.7,515.4h1.7c0.7,0,1.4,0,1.7,0s0.7,0.3,1,0.3c0.3,0.3,0.7,0.7,1,1s0.3,1,0.3,1.4s0,0.7-0.3,1c0,0.3-0.3,0.7-0.7,1
			c0.7,0.3,1,0.7,1.4,1c0.3,0.3,0.7,1,0.7,1.7c0,0.3,0,1-0.3,1.4s-0.3,0.7-0.7,1c-0.3,0.3-0.7,0.3-1,0.7c-0.3,0-1,0.3-1.7,0.3h-3.1
			L628.7,515.4L628.7,515.4z M630.4,516.8v3.1h0.3c0.7,0,1,0,1.4-0.3s0.3-0.7,0.3-1.4c0-0.3,0-0.7-0.3-1s-0.7-0.3-1.4-0.3
			L630.4,516.8L630.4,516.8z M630.4,521.6v3.4h1c0.7,0,1.4,0,1.7-0.3s0.7-0.7,0.7-1.4c0-0.3-0.3-1-0.7-1.4c-0.3-0.3-1-0.3-1.7-0.3
			H630.4L630.4,521.6z M642.7,515.4v4.5l4.1-4.5h2.1l-4.8,5.1l5.1,6.2h-2.1l-4.1-5.1v5.1h-1.7v-11L642.7,515.4L642.7,515.4z
			 M662.3,526.4l-1-2.7h-4.8l-1.4,2.7h-1.7l5.5-11.7l5.1,11.7H662.3z M657.1,522h3.4l-1.7-3.8L657.1,522z M678.4,515.4v4.5h4.8v-4.5
			h1.7v11h-1.7v-5.1h-4.8v5.1h-1.7v-11H678.4z M698.6,526.4v-7.5l-7.5,7.9v-11.3h1.7v7.5l7.5-7.9v11.3H698.6z M713,515.4v4.5
			l3.8-4.5h2.1l-4.5,5.1l4.8,5.8h-2.1l-4.1-5.1v5.1h-1.7v-5.1l-4.1,5.1h-2.1l4.8-5.8l-4.5-5.1h2.1l3.8,4.5v-4.5H713L713,515.4z
			 M726,515.4v4.5h4.8v-4.5h1.7v11h-1.7v-5.1H726v5.1h-1.7v-11H726z M744.9,515.4v1.7h-4.5v2.7h4.1v1.7h-4.1v3.8h4.5v1.7h-6.2v-11
			L744.9,515.4L744.9,515.4z M756.6,515.4v1.7h-3.8v9.6h-1.7v-11h5.5V515.4z M766.2,515.1c1.7,0,3.1,0.7,4.1,1.7s1.7,2.4,1.7,4.1
			s-0.7,3.1-1.7,4.1s-2.4,1.7-4.1,1.7c-1.7,0-3.1-0.7-4.1-1.7s-1.7-2.4-1.7-4.1s0.7-3.1,1.7-4.1
			C763.1,515.8,764.4,515.1,766.2,515.1z M766.2,525c1,0,2.1-0.3,2.7-1c0.7-0.7,1-1.7,1-3.1s-0.3-2.1-1-3.1c-0.7-0.7-1.7-1-2.7-1
			s-2.1,0.3-2.7,1c-0.7,0.7-1,1.7-1,3.1s0.3,2.1,1,3.1C764.1,524.7,765.1,525,766.2,525z M785,526.4v-11h5.5v1.7h-3.8v2.7h1
			c0.7,0,1,0,1.7,0.3c0.3,0,0.7,0.3,1,0.7c0.3,0.3,0.7,0.7,0.7,1c0.3,0.3,0.3,1,0.3,1.4c0,0.7,0,1-0.3,1.4s-0.7,1-1,1
			c-0.3,0.3-0.7,0.3-1,0.3s-0.7,0-1.4,0L785,526.4L785,526.4z M786.7,521.3v3.4h1c0.7,0,1.4,0,1.7-0.3s0.7-0.7,0.7-1.4
			s-0.3-1-0.7-1.4c-0.3-0.3-1-0.3-1.7-0.3H786.7L786.7,521.3z M803.5,515.4v1.7H799v2.7h4.1v1.7H799v3.8h4.5v1.7h-6.2v-11
			L803.5,515.4L803.5,515.4z M810.7,515.4h6.9v11h-1.7v-9.6h-3.8v5.5c0,1,0,1.7-0.3,2.1c-0.3,0.3-0.3,1-0.7,1.4
			c-0.3,0.3-0.7,0.3-1,0.3s-0.7,0-1,0h-0.3h-0.3v-1.7h0.3h0.3c0.3,0,0.3,0,0.7,0c0.3,0,0.3,0,0.3-0.3c0.3-0.3,0.3-0.3,0.3-1
			c0-0.3,0-1,0-1.7L810.7,515.4L810.7,515.4z M824.1,526.4v-11h1.7v4.5h1.4c0.7,0,1,0,1.7,0.3c0.3,0,1,0.3,1.4,0.7s0.7,0.7,0.7,1
			c0.3,0.3,0.3,1,0.3,1.4c0,0.7,0,1-0.3,1.4c-0.3,0.3-0.7,1-1,1c-0.3,0.3-0.7,0.3-1,0.3s-0.7,0-1.4,0L824.1,526.4L824.1,526.4z
			 M825.8,521.3v3.4h1c0.7,0,1.4,0,1.7-0.3s0.7-0.7,0.7-1.4s-0.3-1-0.7-1.4c-0.3-0.3-1-0.3-1.7-0.3H825.8z M835.4,526.4l3.4-4.5
			c-0.3,0-0.7,0-1-0.3c-0.3,0-0.7-0.3-0.7-0.3c-0.3-0.3-0.7-0.7-0.7-1s-0.3-0.7-0.3-1.4c0-0.3,0-1,0.3-1.4c0-0.3,0.3-0.7,0.7-1
			c0.3-0.3,0.7-0.7,1-0.7c0.3-0.3,1-0.3,1.7-0.3h2.7v11h-1.7V522h-0.3l-3.1,4.5L835.4,526.4L835.4,526.4z M840.9,516.8h-0.7
			c-0.3,0-1,0-1,0c-0.3,0-0.7,0.3-0.7,0.3s-0.3,0.3-0.3,0.7s0,0.3,0,0.7c0,0.3,0,0.7,0,0.7c0,0.3,0.3,0.3,0.3,0.7
			c0,0,0.3,0.3,0.7,0.3s0.7,0,1,0h1L840.9,516.8"/>
		<path id="path60" inkscape:connector-curvature="0" fill="#FFFFFF" d="M365.7,531.9v4.5l4.1-4.5h2.1l-5.1,4.8l5.1,5.8h-2.4
			l-4.1-5.1v5.1h-1.7v-10.6H365.7z M372.9,531.9h2.1l2.7,5.5l2.4-5.5h1.7l-5.1,11H375l1.4-3.4L372.9,531.9L372.9,531.9z
			 M383.9,531.9h8.2v11h-1.7v-9.3h-4.8v9.3h-1.7V531.9L383.9,531.9z M402.4,542.9l-1-2.7h-4.8l-1.4,2.7h-1.7l5.5-11.7l5.1,11.7
			H402.4L402.4,542.9z M397.2,538.4h3.4l-1.7-3.8L397.2,538.4z M407.2,531.9h7.2v11h-1.7v-9.3h-3.8v5.5c0,1,0,1.7-0.3,2.1
			c-0.3,0.3-0.3,1-0.7,1c-0.3,0.3-0.7,0.3-1,0.3s-0.7,0-1,0h-0.3h-0.3v-1.7h0.3h0.3c0.3,0,0.3,0,0.7,0c0.3,0,0.3,0,0.3-0.3
			c0.3-0.3,0.3-0.3,0.3-0.7c0-0.3,0-1,0-1.7V531.9L407.2,531.9z M417.1,542.9v-11h1.7v4.5h1.4c0.7,0,1,0,1.7,0.3
			c0.3,0,1,0.3,1.4,0.7c0.3,0.3,0.7,0.7,0.7,1c0.3,0.3,0.3,1,0.3,1.4c0,0.7,0,1-0.3,1.4c-0.3,0.3-0.7,1-1,1c-0.3,0.3-0.7,0.3-1,0.3
			s-0.7,0-1.4,0L417.1,542.9L417.1,542.9z M418.8,537.7v3.4h1c0.7,0,1.4,0,1.7-0.3c0.3-0.3,0.7-0.7,0.7-1.4s-0.3-1-0.7-1.4
			c-0.3-0.3-1-0.3-1.7-0.3H418.8z M427.4,531.9v4.1h4.8v-4.1h1.7v11h-1.7v-5.1h-4.8v5.1h-1.7v-11H427.4z M444.2,542.9v-7.5l-7.5,7.9
			V532h1.7v7.2l7.5-7.9v11.3h-1.7V542.9z M450.4,531.9v4.5l4.1-4.5h2.1l-5.1,4.8l5.1,5.8h-2.4l-4.1-5.1v5.1h-1.7v-10.6H450.4
			L450.4,531.9z M463.4,531.6c1.7,0,3.1,0.7,4.1,1.7s1.7,2.4,1.7,4.1s-0.7,3.1-1.7,4.1s-2.4,1.7-4.1,1.7s-3.1-0.7-4.1-1.7
			s-1.7-2.4-1.7-4.1s0.7-3.1,1.7-4.1C460.3,532.2,461.7,531.6,463.4,531.6z M463.4,541.5c1,0,2.1-0.3,2.7-1c0.7-0.7,1-1.7,1-3.1
			s-0.3-2.1-1-3.1c-0.7-0.7-1.7-1-2.7-1s-2.1,0.3-2.7,1c-0.7,0.7-1,1.7-1,3.1s0.3,2.1,1,3.1C461.4,541.2,462.4,541.5,463.4,541.5z
			 M471.6,531.9h1.7c0.7,0,1.4,0,1.7,0c0.3,0,0.7,0.3,1,0.3c0.3,0.3,0.7,0.7,1,1s0.3,1,0.3,1.4s0,0.7-0.3,1c0,0.3-0.3,0.7-0.7,1
			c0.7,0.3,1,0.7,1.4,1c0.3,0.3,0.7,1,0.7,1.7c0,0.3,0,1-0.3,1.4c-0.3,0.3-0.3,0.7-0.7,1c-0.3,0.3-0.7,0.3-1,0.7
			c-0.3,0-1,0.3-1.7,0.3h-2.4L471.6,531.9L471.6,531.9z M473.4,533.3v3.1h0.3c0.7,0,1,0,1.4-0.3c0.3-0.3,0.3-0.7,0.3-1s0-0.7-0.3-1
			s-0.7-0.3-1.4-0.3h-0.3V533.3z M473.4,537.7v3.4h1c0.7,0,1.4,0,1.7-0.3c0.3-0.3,0.7-0.7,0.7-1.4c0-0.3-0.3-1-0.7-1.4
			c-0.3-0.3-1-0.3-1.7-0.3H473.4L473.4,537.7z M479.2,544.9l1.7-4.1l1.4,0.7l-2.1,4.1L479.2,544.9L479.2,544.9z M489.8,531.9h6.9
			v9.3h1.4v4.1h-1.7v-2.4h-7.2v2.4h-1.7v-4.1c0.3,0,0.7,0,1-0.3s0.7-0.7,0.7-1s0.3-0.7,0.3-1s0-1,0-1.7v-5.1h0.3L489.8,531.9
			L489.8,531.9z M491.5,533.3v3.4c0,0.7,0,1.4,0,1.7s0,1-0.3,1.4c0,0.3-0.3,0.7-0.3,0.7c0,0.3-0.3,0.3-0.3,0.7h4.8v-7.9L491.5,533.3
			L491.5,533.3z M504.9,531.6c1.7,0,3.1,0.7,4.1,1.7s1.7,2.4,1.7,4.1s-0.7,3.1-1.7,4.1s-2.4,1.7-4.1,1.7s-3.1-0.7-4.1-1.7
			s-1.7-2.4-1.7-4.1s0.7-3.1,1.7-4.1C501.8,532.2,503.2,531.6,504.9,531.6z M504.9,541.5c1,0,2.1-0.3,2.7-1c0.7-0.7,1-1.7,1-3.1
			s-0.3-2.1-1-3.1c-0.7-0.7-1.7-1-2.7-1s-2.1,0.3-2.7,1c-0.7,0.7-1,1.7-1,3.1s0.3,2.1,1,3.1C502.8,541.2,503.9,541.5,504.9,541.5z
			 M513.8,542.9h-1.7l2.4-11.7l3.8,8.6l3.8-8.6l2.1,11.7h-1.7l-1-6.5l-3.1,7.2l-3.1-7.2L513.8,542.9L513.8,542.9z M534.4,542.9
			l-1-2.7h-4.8l-1.4,2.7h-1.7l5.5-11.7l5.1,11.7H534.4L534.4,542.9z M529.2,538.4h3.4l-1.7-3.8L529.2,538.4z M538.2,542.9v-11h1.7
			v9.3h3.8v-9.3h1.7v9.3h3.8v-9.3h1.7v11H538.2z M555.3,531.9v4.1h4.8v-4.1h1.7v11h-1.7v-5.1h-4.8v5.1h-1.7v-11H555.3z M570.7,531.9
			v1.7h-4.5v2.7h4.1v1.7h-4.1v3.8h4.5v1.7h-6.2v-11.7L570.7,531.9L570.7,531.9z M580.7,542.9v-7.5l-7.5,7.9V532h1.7v7.2l7.5-7.9
			v11.3h-1.7V542.9z M575.2,529.2l1.4-0.7c0,0.3,0.3,0.3,0.3,0.7c0.3,0,0.7,0.3,1,0.3s0.7,0,1-0.3c0.3,0,0.3-0.3,0.7-0.7l1.4,0.7
			c-0.3,0.3-0.7,1-1,1.4c-0.3,0.3-1,0.3-1.7,0.3s-1.4,0-1.7-0.3C575.5,529.8,575.2,529.5,575.2,529.2L575.2,529.2z M594,531.6
			c1.7,0,3.1,0.7,4.1,1.7s1.7,2.4,1.7,4.1s-0.7,3.1-1.7,4.1s-2.4,1.7-4.1,1.7s-3.1-0.7-4.1-1.7s-1.7-2.4-1.7-4.1s0.7-3.1,1.7-4.1
			C591,532.2,592.3,531.6,594,531.6z M594,541.5c1,0,2.1-0.3,2.7-1c0.7-0.7,1-1.7,1-3.1s-0.3-2.1-1-3.1s-1.7-1-2.7-1s-2.1,0.3-2.7,1
			c-0.7,0.7-1,1.7-1,3.1s0.3,2.1,1,3.1C592,541.2,593,541.5,594,541.5z M603,531.9h6.9v9.3h1.4v4.1h-1.7v-2.4h-7.2v2.4h-1.7v-4.1
			c0.3,0,0.7,0,1-0.3s0.7-0.7,0.7-1s0.3-0.7,0.3-1s0-1,0-1.7L603,531.9L603,531.9z M604.7,533.3v3.4c0,0.7,0,1.4,0,1.7s0,1-0.3,1.4
			c0,0.3-0.3,0.7-0.3,0.7c0,0.3-0.3,0.3-0.3,0.7h4.8v-7.9L604.7,533.3L604.7,533.3z M619.1,531.9v1.7h-4.5v2.7h4.1v1.7h-4.1v3.8h4.5
			v1.7h-6.2v-11.7L619.1,531.9L619.1,531.9z M628,531.9v4.5l3.8-4.5h2.1l-4.5,5.1l4.8,5.8h-2.1l-4.1-5.1v5.1h-1.7v-5.1l-4.1,5.1
			h-2.1l4.8-5.8l-4.5-5.1h2.1l3.8,4.5v-4.5H628z M636.9,531.9h6.9v9.3h1.4v4.1h-1.7v-2.4h-7.2v2.4h-1.7v-4.1c0.3,0,0.7,0,1-0.3
			s0.7-0.7,0.7-1s0.3-0.7,0.3-1s0-1,0-1.7L636.9,531.9L636.9,531.9z M638.6,533.3v3.4c0,0.7,0,1.4,0,1.7s0,1-0.3,1.4
			c0,0.3-0.3,0.7-0.3,0.7c0,0.3-0.3,0.3-0.3,0.7h4.8v-7.9L638.6,533.3L638.6,533.3z M646.8,542.9v-11h1.7v4.5h1.4c0.7,0,1,0,1.7,0.3
			c0.3,0,1,0.3,1.4,0.7s0.7,0.7,0.7,1c0.3,0.3,0.3,1,0.3,1.4c0,0.7,0,1-0.3,1.4c-0.3,0.3-0.7,1-1,1c-0.3,0.3-0.7,0.3-1,0.3
			s-0.7,0-1.4,0L646.8,542.9L646.8,542.9z M648.6,537.7v3.4h1c0.7,0,1.4,0,1.7-0.3s0.7-0.7,0.7-1.4s-0.3-1-0.7-1.4
			c-0.3-0.3-1-0.3-1.7-0.3H648.6z M654.7,531.9h1.7v11h-1.7V531.9z M670.5,542.9v-7.5l-7.5,7.9V532h1.7v7.2l7.5-7.9v11.3h-1.7V542.9
			z M684.6,542.9v-4.5c-1,0-1.4,0-1.7,0h-0.3c-0.7,0-1.4,0-1.7,0s-0.7-0.3-1-0.7c-0.3-0.3-0.7-0.7-0.7-1c-0.3-0.3-0.3-1-0.3-1.7
			v-3.1h1.7v3.1c0,0.3,0,1,0,1c0,0.3,0.3,0.3,0.3,0.7c0,0,0.3,0.3,0.7,0.3s0.7,0,1,0s0.7,0,1,0s0.7,0,1,0v-5.1h1.7v11H684.6
			L684.6,542.9z M688,531.9h2.1l2.7,5.5l2.4-5.5h1.7l-5.1,11h-1.4l1.4-3.4L688,531.9z M699,531.9h7.2v11h-2.1v-9.3h-3.4v5.5
			c0,1,0,1.7-0.3,2.1c-0.3,0.3-0.3,1-0.7,1c-0.3,0.3-0.7,0.3-1,0.3s-0.7,0-1,0h-0.3h-0.3v-1.7h0.3h0.3c0.3,0,0.3,0,0.7,0
			c0.3,0,0.3,0,0.3-0.3c0.3-0.3,0.3-0.3,0.3-0.7c0-0.3,0-1,0-1.7V531.9L699,531.9z M714,531.6c1.7,0,3.1,0.7,4.1,1.7
			s1.7,2.4,1.7,4.1s-0.7,3.1-1.7,4.1s-2.4,1.7-4.1,1.7s-3.1-0.7-4.1-1.7s-1.7-2.4-1.7-4.1s0.7-3.1,1.7-4.1
			C711,532.2,712.3,531.6,714,531.6z M714,541.5c1,0,2.1-0.3,2.7-1c0.7-0.7,1-1.7,1-3.1s-0.3-2.1-1-3.1c-0.7-0.7-1.7-1-2.7-1
			s-2.1,0.3-2.7,1s-1,1.7-1,3.1s0.3,2.1,1,3.1C712,541.2,713,541.5,714,541.5z M727.8,542.9v-4.5c-1,0-1.4,0-1.7,0s-0.3,0-0.3,0
			c-0.7,0-1.4,0-1.7,0s-0.7-0.3-1-0.7c-0.3-0.3-0.7-0.7-0.7-1c-0.3-0.3-0.3-1-0.3-1.7v-3.1h1.7v3.1c0,0.3,0,1,0,1
			c0,0.3,0.3,0.3,0.3,0.7c0,0,0.3,0.3,0.7,0.3s0.7,0,1,0s0.7,0,1,0s0.7,0,1,0v-5.1h1.7v11H727.8L727.8,542.9z M734.3,531.9v4.1h4.8
			v-4.1h1.7v11h-1.7v-5.1h-4.8v5.1h-1.7v-11H734.3z M743.5,542.9v-11h1.7v4.5h1.4c0.7,0,1,0,1.7,0.3c0.3,0,1,0.3,1.4,0.7
			c0.3,0.3,0.7,0.7,0.7,1c0.3,0.3,0.3,1,0.3,1.4c0,0.7,0,1-0.3,1.4c-0.3,0.3-0.7,1-1,1c-0.3,0.3-0.7,0.3-1,0.3s-0.7,0-1.4,0
			L743.5,542.9L743.5,542.9z M745.2,537.7v3.4h1c0.7,0,1.4,0,1.7-0.3s0.7-0.7,0.7-1.4s-0.3-1-0.7-1.4c-0.3-0.3-1-0.3-1.7-0.3H745.2z
			 M751.4,531.9h1.7v11h-1.7V531.9z M754.8,542.9l3.4-5.8l-3.1-5.1h2.1l2.1,3.8l2.1-3.8h2.1l-3.1,5.1l3.4,5.8h-2.1l-2.4-4.1
			l-2.4,4.1H754.8L754.8,542.9z M776.4,542.9v-7.5l-7.5,7.9V532h1.7v7.2l7.5-7.9v11.3h-1.7V542.9z M781.9,534.3l-1-1
			c0.3-0.7,1-1,1.4-1.4c0.7-0.3,1-0.3,1.7-0.3c0.3,0,1,0,1.4,0.3c0.3,0,0.7,0.3,1,0.7c0.3,0.3,0.7,0.7,0.7,1s0.3,0.7,0.3,1
			c0,0.7,0,1-0.3,1.4c-0.3,0.3-0.7,0.7-1,1c0.7,0.3,1,0.7,1.4,1c0.3,0.3,0.7,1,0.7,1.7s0,1-0.3,1.7c-0.3,0.3-0.7,0.7-1,1
			s-0.7,0.3-1.4,0.7c-0.3,0-1,0.3-1.4,0.3c-1,0-1.7-0.3-2.4-0.7c-0.7-0.3-1.4-1-1.7-2.1l1.4-0.7c0.3,0.7,0.7,1,1,1.4
			c0.3,0.3,1,0.3,1.7,0.3c0.3,0,0.3,0,0.7,0s0.3,0,0.7-0.3c0.3,0,0.3-0.3,0.7-0.7c0-0.3,0.3-0.7,0.3-0.7c0-0.7-0.3-1-0.7-1.4
			c-0.3-0.3-1-0.3-2.1-0.3H783v-1.7h1c0.7,0,1,0,1.4-0.3c0.3-0.3,0.7-0.7,0.7-1.4c0-0.3,0-0.3,0-0.3s0-0.3-0.3-0.3
			c0,0-0.3-0.3-0.7-0.3s-0.3,0-0.7,0c-0.3,0-1,0-1.4,0.3C782.6,533.6,782.3,534,781.9,534.3L781.9,534.3z M791.5,531.9h6.9v9.3h1.4
			v4.1H798v-2.4h-7.2v2.4h-1.7v-4.1c0.3,0,0.7,0,1-0.3s0.7-0.7,0.7-1s0.3-0.7,0.3-1s0-1,0-1.7v-5.1h0.4V531.9z M793.2,533.3v3.4
			c0,0.7,0,1.4,0,1.7s0,1-0.3,1.4c0,0.3-0.3,0.7-0.3,0.7c0,0.3-0.3,0.3-0.3,0.7h4.8v-7.9L793.2,533.3L793.2,533.3z M807.6,531.9v1.7
			h-4.5v2.7h4.1v1.7h-4.1v3.8h4.5v1.7h-6.2v-11.7L807.6,531.9L807.6,531.9z M811.4,531.9h7.2v11h-1.7v-9.3h-3.8v5.5
			c0,1,0,1.7-0.3,2.1c-0.3,0.3-0.3,1-0.7,1c-0.3,0.3-0.7,0.3-1,0.3s-0.7,0-1,0h-0.3h-0.3v-1.7h0.3h0.3c0.3,0,0.3,0,0.7,0
			s0.3,0,0.3-0.3c0.3-0.3,0.3-0.3,0.3-0.7c0-0.3,0-1,0-1.7V531.9L811.4,531.9z M828.6,542.9v-7.5l-7.5,7.9V532h1.7v7.2l7.5-7.9v11.3
			h-1.7V542.9z M840.6,542.9v-7.5l-7.5,7.9V532h1.7v7.2l7.5-7.9v11.3h-1.7V542.9z M835.1,529.2l1.4-0.7c0,0.3,0.3,0.3,0.3,0.7
			c0.3,0,0.7,0.3,1,0.3s0.7,0,1-0.3c0.3,0,0.3-0.3,0.7-0.7l1.4,0.7c-0.3,0.3-0.7,1-1,1.4c-0.3,0.3-1,0.3-1.7,0.3s-1.4,0-1.7-0.3
			C835.4,529.8,835.1,529.5,835.1,529.2"/>
		<path id="path66" inkscape:connector-curvature="0" display="none" fill="#FFFFFF" d="M897.5,511h68.2v-2.7h-68.2V511z"/>
	</g>
</g>
<g id="layer2" inkscape:label="Layer 2" inkscape:groupmode="layer" display="none">
	<g id="text6488" display="inline">
		<path id="path5557" fill="#FFFFFF" d="M553.1,69.6H537l8.2-9.9c0.3-0.7,1-1.4,1.4-1.7c0.3-0.7,1-1.4,1.4-2.1
			c0.3-0.3,0.3-0.7,0.7-1.4c0.3-0.7,0.3-1.4,0.3-2.1c0-0.3,0-1-0.3-1.4c0-0.3-0.3-1-0.7-1.4c-0.3-0.3-0.7-0.7-1.4-1
			c-0.3-0.3-1-0.3-1.7-0.3s-1,0-1.7,0.3c-0.3,0.3-1,0.3-1.4,1c-0.3,0.3-0.7,0.7-1,1.4s-0.3,1-0.3,1.7H537c0-1,0.3-2.1,0.7-2.7
			c0.3-1,0.7-1.7,1.4-2.4s1.4-1.4,2.4-1.7s2.1-0.7,3.4-0.7s2.4,0.3,3.4,0.7c1,0.3,1.7,1,2.4,1.7s1,1.4,1.4,2.4
			c0.3,1,0.3,1.7,0.3,2.7s0,1.7-0.3,2.7c-0.3,0.7-0.7,1.7-1.4,2.4c-0.3,0.7-1,1.4-1.4,2.1c-0.7,0.7-1,1.4-2.1,2.4l-3.8,4.5h8.9
			L553.1,69.6L553.1,69.6z"/>
		<path id="path5559" fill="#FFFFFF" d="M563.7,48.3c-0.7,0-1.4,0.3-2.1,0.7c-0.3,0.3-1,0.7-1.4,1.4c-0.3,0.7-0.7,1.4-1,2.1
			c-0.3,0.7-0.3,1.4-0.3,2.1c0,0.7-0.3,1.4-0.3,1.7c0,0.7,0,1,0,1.4c0,0.3,0,1,0,1.4c0,0.7,0,1,0.3,1.7c0,0.7,0.3,1.4,0.3,2.1
			c0.3,0.7,0.7,1.4,1,1.7c0.3,0.7,0.7,1,1.4,1.4c0.7,0.3,1,0.7,2.1,0.7c0.7,0,1.4-0.3,1.7-0.7c0.7-0.3,1-0.7,1.4-1.4
			c0.3-0.7,0.7-1.4,1-1.7c0.3-0.7,0.3-1.4,0.3-2.1c0-0.7,0.3-1.4,0.3-1.7c0-0.7,0-1,0-1.4c0-0.3,0-1,0-1.4c0-0.7,0-1.4-0.3-1.7
			c0-0.7-0.3-1.4-0.3-2.1c-0.3-0.7-0.3-1.4-1-2.1c-0.3-0.7-0.7-1-1.4-1.4C565.1,48.7,564.4,48.3,563.7,48.3z M563.7,70.3
			c-1,0-2.1-0.3-3.1-0.7c-1-0.3-1.7-1-2.4-2.1c-0.7-0.7-1-1.4-1.7-2.4c-0.3-0.7-0.7-1.7-1-2.4s-0.3-1.7-0.3-2.4c0-1,0-1.7,0-2.4
			s0-1.7,0-2.4c0-1,0.3-1.7,0.3-2.7c0.3-1,0.7-1.7,1-2.4s1-1.7,1.7-2.4c1.4-1.7,3.4-2.7,5.5-2.7s3.8,1,5.5,2.7
			c0.7,0.7,1,1.4,1.7,2.4s0.7,1.7,1,2.4s0.3,1.7,0.3,2.7c0,0.7,0,1.7,0,2.4s0,1.7,0,2.4s-0.3,1.7-0.3,2.4c-0.3,0.7-0.7,1.7-1,2.4
			c-0.3,0.7-1,1.7-1.7,2.4c-0.7,1-1.7,1.4-2.4,2.1S564.8,70.3,563.7,70.3z"/>
		<path id="path5561" fill="#FFFFFF" d="M578.5,49h-4.1l2.1-3.4h5.8v24h-3.8V49z"/>
		<path id="path5563" fill="#FFFFFF" d="M595.3,57.6c-1.4,0-2.4,0.3-3.1,1.4c-0.7,0.7-1.4,2.1-1.4,3.4c0,0.7,0,1.4,0.3,1.7
			c0.3,0.7,0.7,1,1,1.4c0.3,0.3,0.7,0.7,1.4,1s1,0.3,1.7,0.3s1.4,0,1.7-0.3c0.7-0.3,1-0.7,1.4-1c0.3-0.3,0.7-1,1-1.4
			c0.3-0.7,0.3-1,0.3-1.7c0-1.4-0.3-2.4-1.4-3.4C597.7,58.3,596.6,57.6,595.3,57.6z M600.8,47l-5.8,7.9c0.3,0,0.7,0,1.4,0
			s1.7,0,2.7,0.3s1.7,0.7,2.4,1.4s1.4,1.4,1.7,2.4s0.7,2.1,0.7,3.4c0,1-0.3,2.1-0.7,3.1c-0.3,1-1,1.7-1.7,2.7
			c-0.7,0.7-1.4,1.4-2.4,1.7s-2.1,0.7-3.4,0.7c-1,0-2.1-0.3-3.1-0.7s-1.7-1-2.7-1.7c-0.7-0.7-1.4-1.4-1.7-2.4s-0.7-2.1-0.7-3.1
			s0.3-2.1,0.7-3.1c0.3-1,1-2.1,1.7-3.1l8.2-11.3L600.8,47L600.8,47z"/>
	</g>
	<g id="text7295" display="inline">
		<path id="path5552" fill="#FFFFFF" d="M562.4,5.8c-0.7,0-1.4,0.3-2.1,0.7c-0.3,0.3-1,0.7-1.4,1.4c-0.3,0.7-0.7,1.4-1,1.7
			c0,0.7,0,1.4,0,2.1c0,0.7-0.3,1.4-0.3,1.7c0,0.7,0,1,0,1.4s0,1,0,1.4c0,0.7,0,1,0.3,1.7c0,0.7,0.3,1.4,0.3,2.1
			c0.3,0.7,0.7,1.4,1,2.1s0.7,1,1.4,1.4c0.7,0.3,1,0.7,2.1,0.7c0.7,0,1.4-0.3,1.7-0.7c0.7-0.3,1-0.7,1.4-1.4c0.3-0.7,0.7-1.4,1-2.1
			s0.3-1.4,0.3-2.1s0.3-1.4,0.3-1.7c0-0.7,0-1,0-1.4s0-1,0-1.4c0-0.7,0-1.4-0.3-1.7c0-0.7-0.3-1.4-0.3-2.1c-0.3-0.7-0.3-1.4-1-1.7
			c-0.3-0.7-0.7-1-1.4-1.4C563.7,5.8,563,5.8,562.4,5.8z M562.4,27.4c-1,0-2.1-0.3-3.1-0.7c-1-0.3-1.7-1-2.4-2.1
			c-0.7-0.7-1-1.4-1.7-2.4c-0.3-0.7-0.7-1.7-1-2.4c-0.3-0.7-0.3-1.7-0.3-2.4c0-1,0-1.7,0-2.4s0-1.7,0-2.4c0-1,0.3-1.7,0.3-2.7
			c0.3-1,0.7-1.7,1-2.4s1-1.7,1.7-2.4c1.4-1.7,3.4-2.7,5.5-2.7s3.8,1,5.5,2.7c0.7,0.7,1,1.4,1.7,2.4c0.3,0.7,0.7,1.7,1,2.4
			s0.3,1.7,0.3,2.7c0,0.7,0,1.7,0,2.4s0,1.7,0,2.4c0,0.7-0.3,1.7-0.3,2.4c-0.3,0.7-0.7,1.7-1,2.4c-0.3,0.7-1,1.7-1.7,2.4
			c-0.7,1-1.7,1.4-2.4,2.1S563.4,27.4,562.4,27.4z"/>
		<path id="path5554" fill="#FFFFFF" d="M589.8,26.7h-16.1l8.2-9.9c0.3-0.7,1-1,1.4-1.7c0.3-0.7,1-1.4,1.4-2.1
			c0.3-0.3,0.3-0.7,0.7-1.4c0.3-0.7,0.3-1.4,0.3-2.1c0-0.3,0-1-0.3-1.4c0-0.3-0.3-1-0.7-1.4c-0.3-0.3-0.7-0.7-1.4-1
			c-0.3-0.3-1-0.3-1.7-0.3s-1,0-1.7,0.3s-1,0.3-1.4,1c-0.3,0.3-0.7,0.7-1,1.4s-0.3,1-0.3,1.7h-3.4c0-1,0.3-2.1,0.7-2.7
			c0.3-1,0.7-1.7,1.4-2.4s1.4-1.4,2.4-1.7s2.1-0.7,3.4-0.7s2.4,0.3,3.4,0.7c1,0.3,1.7,1,2.4,1.7s1,1.4,1.4,2.4
			c0.3,1,0.3,1.7,0.3,2.7s0,1.7-0.3,2.7c-0.3,0.7-0.7,1.7-1.4,2.4c-0.3,0.7-1,1.4-1.4,2.1c-0.7,0.7-1,1.4-2.1,2.4l-3.8,4.5h8.9
			L589.8,26.7L589.8,26.7z"/>
	</g>
</g>
<path id="path56_1_" inkscape:connector-curvature="0" fill="#CA996F" d="M3.2,3.1H8v27.1h8.9v4.5H3.2C3.2,34.6,3.2,3.1,3.2,3.1z
	 M21,3.1h4.8v31.5H21V3.1z M37.4,34.6H33V1l22.3,23.7V3.1h4.8v33.3L37.8,12.7v21.9H37.4z M82.7,22.6v-4.5h12.7v1
	c0,2.4-0.3,4.1-0.7,5.8c-0.3,1.7-1,3.1-2.1,4.1c-1.4,2.1-3.1,3.4-5.1,4.5S83.4,35,81,35c-2.1,0-4.1-0.3-5.8-1
	c-1.7-0.7-3.4-2.1-5.1-3.4c-1.7-1.7-2.7-3.4-3.4-5.5c-0.7-2.1-1-4.1-1-6.2s0.3-4.1,1-6.2s1.7-3.8,3.4-5.5c1.4-1.7,3.1-2.7,5.1-3.4
	s4.1-1.4,6.5-1.4c1.7,0,3.4,0.3,4.8,0.7c1.7,0.3,3.1,1.4,4.5,2.4c0.7,0.3,1.4,1,1.7,1.7c0.7,0.7,1,1,1.7,1.7L90.9,12
	c-1-1.7-2.4-2.7-4.1-3.8c-1.7-1-3.4-1.4-5.5-1.4c-3.1,0-5.8,1-7.9,3.4s-3.1,5.1-3.1,8.6s1,6.2,3.1,8.6c2.1,2.1,4.8,3.4,7.9,3.4
	c2.4,0,4.5-0.7,6.2-2.4c1.7-1.4,2.7-3.4,3.1-5.8L82.7,22.6L82.7,22.6z M118,3.1v4.5h-12.3v7.5h12v4.5h-12v10.3H118v4.5h-16.8V3.1
	H118L118,3.1z M123.8,3.1h5.5c2.1,0,3.8,0.3,4.8,0.3c1.4,0.3,2.4,0.7,3.1,1.4c1,0.7,2.1,2.1,2.7,3.1c0.7,1.4,1,2.7,1,4.1
	c0,2.4-0.7,4.1-1.7,5.8c-1.4,1.7-2.7,2.7-4.8,3.1l9.6,13.4h-5.8l-8.9-12.7h-0.7v13h-4.8L123.8,3.1L123.8,3.1z M128.3,7.5v9.9h1.4
	c2.1,0,3.8-0.3,4.8-1.4c1-0.7,1.7-2.1,1.7-3.8s-0.3-2.7-1.4-3.4c-1-0.7-2.4-1-4.8-1.4L128.3,7.5L128.3,7.5z M148.2,3.1h4.8v31.5
	h-4.8V3.1z M176.6,3.1v4.5h-12.3v7.5h12v4.5h-12v10.3h12.3v4.5h-16.8V3.1H176.6L176.6,3.1z M209.9,7.9l-3.8,2.4
	c-0.3-0.3-0.3-0.7-0.7-1c-0.3-0.3-0.3-0.7-0.7-1c-0.3-0.3-1-0.7-1.4-0.7c-0.3-0.3-1-0.3-1.7-0.3c-1.4,0-2.4,0.3-3.1,1
	s-1.4,1.7-1.4,2.7c0,0.7,0.3,1.7,0.7,2.1c0.3,0.7,1.4,1,2.4,1.7l3.1,1.4c2.4,1,4.5,2.4,5.5,3.8s1.7,3.4,1.7,5.5c0,3.1-1,5.5-2.7,7.2
	s-4.1,2.7-7.2,2.7c-1.4,0-2.7-0.3-4.1-0.7c-1.4-0.3-2.4-1.4-3.1-2.4c-0.7-0.7-1.4-1.7-1.7-2.7s-0.7-2.1-0.7-3.4l4.8-1
	c0,0.7,0,1.4,0.3,2.1s0.7,1.4,1,1.7c0.3,0.7,1,1,1.7,1.4c0.3,0.3,1,0.7,2.1,0.7c1.4,0,2.7-0.3,3.8-1.4c1-1,1.4-2.1,1.4-3.8
	c0-1-0.3-2.1-1-3.1c-0.7-0.7-1.7-1.7-3.4-2.4l-3.1-1.4c-2.1-1-3.8-2.1-4.8-3.4c-1-1.4-1.7-2.7-1.7-4.8c0-2.4,1-4.5,2.7-6.2
	c2.1-1,4.1-2.1,6.5-2.1c1.4,0,2.4,0.3,3.4,0.7c1,0.3,1.7,1,2.7,1.7c0.3,0.3,1,1,1.4,1.4C209.2,6.9,209.6,7.2,209.9,7.9L209.9,7.9z
	 M221.2,3.1v12.3h13V3.1h4.8v31.5h-4.8V19.9h-13v14.7h-4.8V3.1H221.2z M260.3,2.4c4.5,0,8.2,1.7,11.3,4.8s4.5,7.2,4.5,11.7
	c0,4.8-1.7,8.6-4.5,11.7c-3.1,3.1-6.9,4.8-11.3,4.8c-4.5,0-8.2-1.7-11.3-4.8s-4.5-6.9-4.5-11.7s1.4-8.6,4.5-11.7
	C252.1,4.1,255.8,2.7,260.3,2.4z M260.3,30.9c3.1,0,5.8-1,7.9-3.4c2.1-2.1,3.1-5.1,3.1-8.6s-1-6.2-3.1-8.6s-4.8-3.4-7.9-3.4
	s-5.8,1-7.9,3.4c-2.1,2.4-3.1,5.1-3.1,8.6s1,6.2,3.1,8.6C254.5,29.8,257.2,30.9,260.3,30.9z M277.8,3.1h5.1l7.9,21.3L299,1.7
	l7.9,22.6l8.2-20.9h5.1L306.6,37l-7.9-22.3L290.5,37L277.8,3.1z M322.7,27.1v-4.8h11v4.8C333.7,27.1,322.7,27.1,322.7,27.1z
	 M354.2,3.1v4.5h-10.6v7.5h10.3v4.5h-10.3v15.1h-4.8V3.1H354.2L354.2,3.1z M373.8,2.4c4.5,0,8.2,1.7,11.3,4.8s4.5,7.2,4.5,11.7
	c0,4.8-1.7,8.6-4.5,11.7c-3.1,3.1-6.9,4.8-11.3,4.8s-8.2-1.7-11.3-4.8s-4.5-6.9-4.5-11.7s1.4-8.6,4.5-11.7S369.3,2.7,373.8,2.4z
	 M373.8,30.9c3.1,0,5.8-1,7.9-3.4c2.1-2.1,3.1-5.1,3.1-8.6s-1-6.2-3.1-8.6s-4.8-3.4-7.9-3.4s-5.8,1-7.9,3.4s-3.1,5.1-3.1,8.6
	s1,6.2,3.1,8.6C368,29.8,370.7,30.9,373.8,30.9z M395.4,3.1h5.5c2.1,0,3.8,0.3,4.8,0.3c1.4,0.3,2.4,0.7,3.1,1.4
	c1,0.7,2.1,2.1,2.7,3.1c0.7,1.4,1,2.7,1,4.1c0,2.4-0.7,4.1-2.1,5.8c-1.4,1.7-2.7,2.7-4.8,3.1l9.6,13.4h-5.8l-8.6-13h-0.7v13h-4.8
	L395.4,3.1L395.4,3.1z M400.2,7.5v9.9h1.4c2.1,0,3.8-0.3,4.8-1.4c1-1,1.7-2.1,1.7-3.8s-0.3-2.7-1.4-3.4c-1-0.7-2.4-1-4.8-1.4
	C401.9,7.5,400.2,7.5,400.2,7.5z M419.7,3.1h4.8V22c0,1.4,0,2.4,0.3,3.4c0,0.7,0.3,1.4,0.7,2.1c0.7,1,1.4,1.7,2.4,2.4
	c1,0.7,2.1,0.7,3.4,0.7c1.4,0,2.4-0.3,3.4-0.7c1-0.7,1.7-1.4,2.4-2.4c0.3-0.7,0.7-1.4,0.7-2.1s0.3-2.1,0.3-3.4V3.1h4.8v20.2
	c0,1.7-0.3,3.1-0.7,4.5c-0.3,1.4-1,2.7-2.1,3.8c-1,1.4-2.4,2.1-3.8,2.7c-1.4,0.7-3.1,1-4.8,1s-3.4-0.3-4.8-1s-2.7-1.7-3.8-2.7
	c-1-1-1.7-2.4-2.1-3.8c-0.3-1.4-0.7-2.7-0.7-4.5V3.1H419.7z M453.7,34.6h-4.8l6.5-33.9L466,25l10.6-24.3l5.8,33.9h-4.8l-3.1-18.9
	l-8.9,20.6l-8.9-20.6L453.7,34.6"/>
<path id="path58_1_" inkscape:connector-curvature="0" fill="#FFFFFF" d="M4.9,52.1H3.2l2.4-11.7L9.3,49l3.8-8.6l2.1,11.7h-1.7
	l-1-6.5l-3.1,7.2L6,45.6L4.9,52.1z M27.5,41.1v1.7H23v2.7h4.1v1.7H23V51h4.5v1.7h-6.2V41.1H27.5L27.5,41.1z M39.8,41.1v4.5l3.8-4.5
	h2.1l-4.5,5.1L46,52h-2l-4.2-5v5.1h-1.7V47L34,52.1h-1.7l4.8-5.8l-4.8-5.1h2.1l3.8,4.5v-4.5h1.6C39.8,41.2,39.8,41.1,39.8,41.1z
	 M52.2,41.1H59v9.6h1.4v4.1h-1.7v-2.4h-7.2v2.4h-1.7v-4.1c0.3,0,0.7,0,1-0.3s0.7-0.7,0.7-1s0.3-0.7,0.3-1s0-1,0-1.7L52.2,41.1
	L52.2,41.1z M53.9,42.9v3.4c0,0.7,0,1.4,0,1.7s0,1-0.3,1.4c0,0.3-0.3,0.7-0.3,0.7c0,0.3-0.3,0.3-0.3,0.7h4.5v-7.9L53.9,42.9
	L53.9,42.9z M64.5,41.1h2.1l2.7,5.5l2.4-5.5h1.7l-5.1,11h-1.7l1.4-3.4L64.5,41.1L64.5,41.1z M81,41.1v4.5h4.8v-4.5h1.7v11h-1.7V47
	H81v5.1h-1.7v-11H81z M101.2,52.1l-1-2.7h-4.8L94,52.1h-1.7l5.5-11.7l5.1,11.7H101.2z M96.1,48h3.4l-1.7-3.8L96.1,48L96.1,48z
	 M108.4,41.1h2.4c0.7,0,1,0,1.4,0c0.3,0,0.7,0.3,1,0.3c0.3,0.3,0.7,0.7,1,1s0.3,1,0.3,1.4c0,0.3,0,1-0.3,1.4c-0.3,0.3-0.3,0.7-0.7,1
	c-0.3,0.3-0.7,0.7-1.4,0.7c-0.3,0-1,0.3-1.4,0.3H110v4.5h-1.7C108.4,51.8,108.4,41.1,108.4,41.1z M110.1,42.9v3.4h0.7
	c0.7,0,1,0,1.4-0.3c0.3-0.3,0.7-0.7,0.7-1.4s-0.3-1-0.7-1.4c-0.3-0.3-1-0.3-1.4-0.3H110.1L110.1,42.9z M125.2,41.1
	c1.7,0,3.1,0.7,4.1,1.7s1.7,2.4,1.7,4.1s-0.7,3.1-1.7,4.1s-2.4,1.7-4.1,1.7s-3.1-0.7-4.1-1.7s-1.7-2.4-1.7-4.1s0.7-3.1,1.7-4.1
	C122.5,41.5,123.8,41.1,125.2,41.1z M125.2,50.7c1,0,2.1-0.3,2.7-1c0.7-0.7,1-1.7,1-3.1c0-1.4-0.3-2.1-1-3.1c-0.7-0.7-1.7-1-2.7-1
	s-2.1,0.3-2.7,1c-0.7,0.7-1,1.7-1,3.1c0,1.4,0.3,2.1,1,3.1C123.2,50.4,124.2,50.7,125.2,50.7z M137.9,41.1h6.9v9.6h1.4v4.1h-1.7
	v-2.4h-7.2v2.4h-1.7v-4.1c0.3,0,0.7,0,1-0.3s0.7-0.7,0.7-1s0.3-0.7,0.3-1s0-1,0-1.7L137.9,41.1L137.9,41.1z M139.6,42.9v3.4
	c0,0.7,0,1.4,0,1.7s0,1-0.3,1.4c0,0.3-0.3,0.7-0.3,0.7c0,0.3-0.3,0.3-0.3,0.7h4.5v-7.9L139.6,42.9L139.6,42.9z M153,41.1v4.5h4.8
	v-4.5h1.7v11h-1.7V47H153v5.1h-1.7v-11H153z M173.6,52.1l-1-2.7h-4.8l-1.4,2.7h-1.7l5.5-11.7l5.1,11.7H173.6L173.6,52.1z M168.4,48
	h3.4l-1.7-3.8L168.4,48L168.4,48z M179.7,52.1l3.4-4.5c-0.3,0-0.7,0-1-0.3c-0.3,0-0.7-0.3-0.7-0.3c-0.3-0.3-0.7-0.7-0.7-1
	s-0.3-0.7-0.3-1.4c0-0.3,0-1,0.3-1.4c0-0.3,0.3-0.7,0.7-1c0.3-0.3,0.7-0.7,1-0.7c0.3-0.3,0.7-0.3,1.7-0.3h2.7v11h-1.7v-4.5h-0.3
	l-3.1,4.5L179.7,52.1L179.7,52.1z M185.2,42.9h-1c-0.3,0-1,0-1,0c-0.3,0-0.7,0.3-0.7,0.3s-0.3,0.3-0.3,0.7c0,0.3,0,0.3,0,0.7
	s0,0.7,0,0.7c0,0.3,0.3,0.3,0.3,0.7c0.3,0,0.3,0.3,0.7,0.3c0.3,0,0.7,0,1,0h1V42.9z M200.6,41.1h1.7c0.7,0,1.4,0,1.7,0
	s0.7,0.3,1,0.3c0.3,0.3,0.7,0.7,1,1s0.3,1,0.3,1.4c0,0.3,0,0.7-0.3,1c0,0.3-0.3,0.7-0.7,1c0.7,0.3,1,0.7,1.4,1
	c0.3,0.3,0.7,1,0.7,1.7c0,0.3,0,1-0.3,1.4c-0.3,0.3-0.3,0.7-0.7,1c-0.3,0.3-0.7,0.3-1,0.7c-0.3,0-1,0.3-1.7,0.3h-2.4L200.6,41.1
	L200.6,41.1z M202.4,42.9V46h0.3c0.7,0,1,0,1.4-0.3c0.3-0.3,0.3-0.7,0.3-1.4c0-0.3,0-0.7-0.3-1s-0.7-0.3-1.4-0.3L202.4,42.9
	L202.4,42.9z M202.4,47.3v3.4h1c0.7,0,1.4,0,1.7-0.3s0.7-0.7,0.7-1.4s-0.3-1-0.7-1.4c-0.3-0.3-1-0.3-1.7-0.3H202.4L202.4,47.3z
	 M213,52.1v-11h1.7v4.5h1.4c0.7,0,1,0,1.7,0.3c0.3,0,1,0.3,1.4,0.7c0.3,0.3,0.7,0.7,0.7,1c0.3,0.3,0.3,1,0.3,1.4c0,0.7,0,1-0.3,1.4
	s-0.7,1-1,1c-0.3,0.3-0.7,0.3-1,0.3s-0.7,0-1.4,0L213,52.1L213,52.1z M214.7,47.3v3.4h1c0.7,0,1.4,0,1.7-0.3s0.7-0.7,0.7-1.4
	s-0.3-1-0.7-1.4c-0.3-0.3-1-0.3-1.7-0.3H214.7z M220.9,41.1h1.7v11h-1.7V41.1L220.9,41.1z M237.3,41.8v2.1c-0.3-0.3-1-0.7-1.4-1
	c-0.3-0.3-1-0.3-1.7-0.3c-1,0-2.1,0.3-2.7,1c-0.7,0.7-1,1.7-1,3.1c0,1,0.3,2.1,1,3.1c0.7,0.7,1.7,1,2.7,1c0.7,0,1,0,1.7-0.3
	c0.3-0.3,1-0.7,1.4-1v2.1c-0.3,0.3-1,0.7-1.4,0.7c-0.3,0-1,0.3-1.4,0.3c-0.7,0-1.4,0-2.1-0.3c-0.7-0.3-1.4-0.7-1.7-1
	c-0.7-0.7-1-1-1.4-1.7c-0.3-0.7-0.3-1.4-0.3-2.4s0-1.7,0.3-2.4s0.7-1.4,1.4-2.1c0.3-0.3,1-0.7,1.7-1s1.4-0.3,2.4-0.3
	c0.7,0,1,0,1.7,0.3C236.3,41.1,237,41.5,237.3,41.8z M248.6,42.9h-2.4v9.6h-1.7v-9.6h-2.4v-1.7h6.9v1.7H248.6z M261,52.1l-1-2.7
	h-4.8l-1.4,2.7h-1.7l5.5-11.7l5.1,11.7H261z M255.8,48h3.4l-1.7-3.8L255.8,48z M268.2,41.1h1.7c0.7,0,1.4,0,1.7,0
	c0.3,0,0.7,0.3,1,0.3c0.3,0.3,0.7,0.7,1,1s0.3,1,0.3,1.4c0,0.3,0,0.7-0.3,1c0,0.3-0.3,0.7-0.7,1c0.7,0.3,1,0.7,1.4,1
	c0.3,0.3,0.7,1,0.7,1.7c0,0.3,0,1-0.3,1.4c-0.3,0.3-0.3,0.7-0.7,1c-0.3,0.3-0.7,0.3-1,0.7c-0.3,0-1,0.3-1.7,0.3h-2.4L268.2,41.1
	L268.2,41.1z M269.6,42.9V46h0.3c0.7,0,1,0,1.4-0.3c0.3-0.3,0.3-0.7,0.3-1.4c0-0.3,0-0.7-0.3-1s-0.7-0.3-1.4-0.3L269.6,42.9
	L269.6,42.9z M269.6,47.3v3.4h1c0.7,0,1.4,0,1.7-0.3c0.3-0.3,0.7-0.7,0.7-1.4s-0.3-1-0.7-1.4c-0.3-0.3-1-0.3-1.7-0.3H269.6
	L269.6,47.3z M282.2,41.1v4.5l4.1-4.5h2.1l-4.8,5.1l5.1,6.2h-2.4l-4.1-5.1v5.1h-1.7V41.1H282.2L282.2,41.1z M301.8,52.1l-1-2.7H296
	l-1.4,2.7h-1.7l5.5-11.7l5.1,11.7H301.8z M296.6,48h3.4l-1.7-3.8L296.6,48z M317.9,41.1v4.5h4.8v-4.5h1.7v11h-1.7V47h-4.8v5.1h-1.7
	v-11H317.9z M338.1,52.1v-7.5l-7.5,7.9V41.1h1.7v7.5l7.5-7.9V52L338.1,52.1L338.1,52.1z M352.9,41.1v4.5l3.8-4.5h2.1l-4.5,5.1
	l4.8,5.8H357l-4.1-5.1V52h-1.7v-5l-4.1,5.1H345l4.8-5.8l-4.8-5.1h2.1l3.8,4.5v-4.5h2V41.1z M365.6,41.1v4.5h4.8v-4.5h1.7v11h-1.7V47
	h-4.8v5.1h-1.7v-11H365.6z M384.8,41.1v1.7h-4.5v2.7h4.1v1.7h-4.1V51h4.5v1.7h-6.2V41.1H384.8L384.8,41.1z M396.1,41.1v1.7h-3.8v9.6
	h-1.7V41.1H396.1L396.1,41.1z M405.7,41.1c1.7,0,3.1,0.7,4.1,1.7s1.7,2.4,1.7,4.1s-0.7,3.1-1.7,4.1s-2.4,1.7-4.1,1.7
	s-3.1-0.7-4.1-1.7s-1.7-2.4-1.7-4.1s0.7-3.1,1.7-4.1C402.6,41.5,404,41.1,405.7,41.1z M405.7,50.7c1,0,2.1-0.3,2.7-1
	c0.7-0.7,1-1.7,1-3.1c0-1.4-0.3-2.1-1-3.1c-0.7-0.7-1.7-1-2.7-1s-2.1,0.3-2.7,1c-0.7,0.7-1,1.7-1,3.1c0,1.4,0.3,2.1,1,3.1
	C403.6,50.4,404.6,50.7,405.7,50.7z M424.9,52.1v-11h5.5v1.7h-3.8v2.7h1c0.7,0,1,0,1.7,0.3c0.3,0,0.7,0.3,1,0.7
	c0.3,0.3,0.7,0.7,0.7,1c0.3,0.3,0.3,1,0.3,1.4c0,0.7,0,1-0.3,1.4c-0.3,0.3-0.7,1-1,1c-0.3,0.3-0.7,0.3-1,0.3s-0.7,0-1.4,0
	L424.9,52.1L424.9,52.1z M426.2,47.3v3.4h1c0.7,0,1.4,0,1.7-0.3c0.3-0.3,0.7-0.7,0.7-1.4s-0.3-1-0.7-1.4c-0.3-0.3-1-0.3-1.7-0.3
	H426.2L426.2,47.3z M443.4,41.1v1.7h-4.5v2.7h4.1v1.7h-4.1V51h4.5v1.7h-6.2V41.1H443.4L443.4,41.1z M450.2,41.1h7.2v11h-1.7v-9.6
	H452V48c0,1,0,1.7-0.3,2.1c-0.3,0.3-0.3,1-0.7,1.4c-0.3,0.3-0.7,0.3-1,0.3s-0.7,0-1,0h-0.3h-0.3v-1.7h0.3h0.3c0.3,0,0.3,0,0.7,0
	c0.3,0,0.3,0,0.3-0.3c0.3-0.3,0.3-0.3,0.3-1c0-0.3,0-1,0-1.7L450.2,41.1L450.2,41.1z M464,52.1v-11h1.7v4.5h1.4c0.7,0,1,0,1.7,0.3
	c0.3,0,1,0.3,1.4,0.7c0.3,0.3,0.7,0.7,0.7,1c0.3,0.3,0.3,1,0.3,1.4c0,0.7,0,1-0.3,1.4c-0.3,0.3-0.7,1-1,1c-0.3,0.3-0.7,0.3-1,0.3
	s-0.7,0-1.4,0L464,52.1L464,52.1z M465.7,47.3v3.4h1c0.7,0,1.4,0,1.7-0.3c0.3-0.3,0.7-0.7,0.7-1.4s-0.3-1-0.7-1.4
	c-0.3-0.3-1-0.3-1.7-0.3H465.7z M475.3,52.1l3.4-4.5c-0.3,0-0.7,0-1-0.3c-0.3,0-0.7-0.3-0.7-0.3c-0.3-0.3-0.7-0.7-0.7-1
	s-0.3-0.7-0.3-1.4c0-0.3,0-1,0.3-1.4c0-0.3,0.3-0.7,0.7-1c0.3-0.3,0.7-0.7,1-0.7c0.3-0.3,1-0.3,1.7-0.3h2.7v11h-1.7v-4.5h-0.3
	l-3.1,4.5L475.3,52.1L475.3,52.1z M480.8,42.9h-0.7c-0.3,0-1,0-1,0c-0.3,0-0.7,0.3-0.7,0.3s-0.3,0.3-0.3,0.7c0,0.3,0,0.3,0,0.7
	s0,0.7,0,0.7c0,0.3,0.3,0.3,0.3,0.7c0,0,0.3,0.3,0.7,0.3c0.3,0,0.7,0,1,0h1L480.8,42.9"/>
<path id="path60_1_" inkscape:connector-curvature="0" fill="#FFFFFF" d="M5.2,57.6v4.5l4.1-4.5h2.1l-5.1,4.8l5.5,6.2H9.3l-4.1-5.1
	v5.1H3.5v-11H5.2z M12.1,57.6h2.1l2.7,5.5l2.7-5.5h1.7l-4.8,11h-1.7l1.4-3.4L12.1,57.6L12.1,57.6z M23,57.6h8.2v11h-1.7v-9.3h-4.8
	v9.3H23V57.6L23,57.6z M41.9,68.6l-1-2.7h-4.8l-1.4,2.7H33l5.5-11.7l5.1,11.7H41.9L41.9,68.6z M36.8,64.5h3.4l-1.7-3.8L36.8,64.5z
	 M46.4,57.6h7.2v11h-1.7v-9.3h-3.8v5.5c0,1,0,1.7-0.3,2.1c-0.3,0.3-0.3,1-0.7,1c-0.3,0.3-0.7,0.3-1,0.3s-0.7,0-1,0h-0.3h-0.3v-1.7
	h0.3H45c0.3,0,0.3,0,0.7,0s0.3,0,0.3-0.3c0.3-0.3,0.3-0.3,0.3-0.7s0-1,0-1.7L46.4,57.6L46.4,57.6z M56.3,68.6v-11H58v4.5h1.4
	c0.7,0,1,0,1.7,0.3c0.3,0,1,0.3,1.4,0.7c0.3,0.3,0.7,0.7,0.7,1c0.3,0.3,0.3,1,0.3,1.4c0,0.7,0,1-0.3,1.4c-0.3,0.3-0.7,1-1,1
	c-0.3,0.3-0.7,0.3-1,0.3s-0.7,0-1.4,0L56.3,68.6L56.3,68.6z M58,63.8v3.4h1c0.7,0,1.4,0,1.7-0.3s0.7-0.7,0.7-1.4
	c0-0.7-0.3-1-0.7-1.4c-0.3-0.3-1-0.3-1.7-0.3C59,63.8,58,63.8,58,63.8z M66.9,57.6v4.1h4.8v-4.1h1.7v11h-1.7v-5.1h-4.8v5.1h-1.7v-11
	H66.9z M83.4,68.6V61l-7.5,7.9V57.6H78v7.5l7.5-7.9v11.3L83.4,68.6L83.4,68.6z M89.9,57.6v4.5l4.1-4.5h2.1L91,62.4l5.1,5.8h-2.4
	l-4.1-5.1v5.5h-1.4v-11L89.9,57.6L89.9,57.6z M102.9,57.3c1.7,0,3.1,0.7,4.1,1.7s1.7,2.4,1.7,4.1s-0.7,3.1-1.7,4.1s-2.4,1.7-4.1,1.7
	s-3.1-0.7-4.1-1.7s-1.7-2.4-1.7-4.1c0-1.7,0.7-3.1,1.7-4.1C99.8,57.9,101.2,57.6,102.9,57.3z M102.9,67.2c1,0,2.1-0.3,2.7-1
	s1-1.7,1-3.1s-0.3-2.1-1-3.1c-0.7-0.7-1.7-1-2.7-1s-2.1,0.3-2.7,1c-0.7,0.7-1,1.7-1,3.1c0,1.4,0.3,2.1,1,3.1
	C100.5,66.9,101.6,67.2,102.9,67.2z M110.8,57.6h1.7c0.7,0,1.4,0,1.7,0s0.7,0.3,1,0.3c0.3,0.3,0.7,0.7,1,1s0.3,1,0.3,1.4
	c0,0.3,0,0.7-0.3,1c0,0.3-0.3,0.7-0.7,1c0.7,0.3,1,0.7,1.4,1c0.3,0.3,0.7,1,0.7,1.7c0,0.3,0,1-0.3,1.4c-0.3,0.3-0.3,0.7-0.7,1
	c-0.3,0.3-0.7,0.3-1,0.7c-0.3,0-1,0.3-1.7,0.3h-2.4L110.8,57.6L110.8,57.6z M112.5,59.3v3.1h0.3c0.7,0,1,0,1.4-0.3
	c0.3-0.3,0.3-0.7,0.3-1s0-0.7-0.3-1s-0.7-0.3-1.4-0.3h-0.3V59.3z M112.5,63.8v3.4h1c0.7,0,1.4,0,1.7-0.3c0.3-0.3,0.7-0.7,0.7-1.4
	c0-0.3-0.3-1-0.7-1.4c-0.3-0.3-1-0.3-1.7-0.3L112.5,63.8L112.5,63.8z M118.4,70.6l1.7-4.1l1.4,0.7l-2.1,4.1L118.4,70.6L118.4,70.6z
	 M129,57.6h6.9v9.3h1.4V71h-1.7v-2.4h-7.2V71h-1.7v-4.1c0.3,0,0.7,0,1-0.3s0.7-0.7,0.7-1s0.3-0.7,0.3-1s0-1,0-1.7v-5.1h0.3V57.6z
	 M130.7,59.3v3.4c0,0.7,0,1.4,0,1.7s0,1-0.3,1.4c0,0.3-0.3,0.7-0.3,0.7c0,0.3-0.3,0.3-0.3,0.7h4.8v-7.9L130.7,59.3L130.7,59.3z
	 M144.4,57.3c1.7,0,3.1,0.7,4.1,1.7s1.7,2.4,1.7,4.1s-0.7,3.1-1.7,4.1s-2.4,1.7-4.1,1.7c-1.7,0-3.1-0.7-4.1-1.7s-1.7-2.4-1.7-4.1
	c0-1.7,0.7-3.1,1.7-4.1C141.3,57.9,142.7,57.6,144.4,57.3z M144.4,67.2c1,0,2.1-0.3,2.7-1s1-1.7,1-3.1s-0.3-2.1-1-3.1
	c-0.7-0.7-1.7-1-2.7-1s-2.1,0.3-2.7,1c-0.7,0.7-1,1.7-1,3.1c0,1.4,0.3,2.1,1,3.1C142,66.9,143,67.2,144.4,67.2z M153.3,68.6h-1.7
	l2.4-11.7l3.8,8.6l3.8-8.6l2.1,11.7H162l-1-6.5l-3.1,7.2l-3.1-7.2L153.3,68.6L153.3,68.6z M173.9,68.6l-1-2.7h-4.8l-1,2.7h-1.7
	l5.5-11.7l5.1,11.7H173.9L173.9,68.6z M168.8,64.5h3.4l-1.7-3.8L168.8,64.5z M177.3,68.6v-11h1.7v9.3h3.8v-9.3h1.7v9.3h3.8v-9.3h1.7
	v11C190,68.6,177.3,68.6,177.3,68.6z M194.8,57.6v4.1h4.8v-4.1h1.7v11h-1.7v-5.1h-4.8v5.1h-1.7v-11H194.8z M210.2,57.6v1.7h-4.5v2.4
	h4.1v1.7h-4.1v3.8h4.5v1.4H204v-11L210.2,57.6L210.2,57.6z M220.2,68.6V61l-7.5,7.9V57.6h1.7v7.5l7.5-7.9v11.3L220.2,68.6
	L220.2,68.6z M214.4,54.9l1.4-0.7c0,0.3,0.3,0.7,0.3,0.7c0.3,0,0.7,0.3,1,0.3s0.7,0,1-0.3c0.3,0,0.3-0.3,0.7-0.7l1.4,0.7
	c-0.3,0.3-0.7,1-1,1.4c-0.3,0.3-1,0.3-1.7,0.3s-1.4,0-1.7-0.3C215,55.9,214.7,55.5,214.4,54.9L214.4,54.9z M233.6,57.3
	c1.7,0,3.1,0.7,4.1,1.7s1.7,2.4,1.7,4.1s-0.7,3.1-1.7,4.1s-2.4,1.7-4.1,1.7c-1.7,0-3.1-0.7-4.1-1.7s-1.7-2.4-1.7-4.1
	c0-1.7,0.7-3.1,1.7-4.1C230.5,57.9,231.8,57.6,233.6,57.3z M233.6,67.2c1,0,2.1-0.3,2.7-1c0.7-0.7,1-1.7,1-3.1s-0.3-2.1-1-3.1
	c-0.7-0.7-1.7-1-2.7-1s-2.1,0.3-2.7,1c-0.7,0.7-1,1.7-1,3.1c0,1.4,0.3,2.1,1,3.1C231.5,66.9,232.5,67.2,233.6,67.2z M242.5,57.6h6.9
	v9.3h1.4V71H249v-2.4h-7.2V71h-1.7v-4.1c0.3,0,0.7,0,1-0.3s0.7-0.7,0.7-1s0.3-0.7,0.3-1s0-1,0-1.7L242.5,57.6L242.5,57.6z
	 M244.2,59.3v3.4c0,0.7,0,1.4,0,1.7s0,1-0.3,1.4c0,0.3-0.3,0.7-0.3,0.7c0,0.3-0.3,0.3-0.3,0.7h4.8v-7.9L244.2,59.3L244.2,59.3z
	 M258.6,57.6v1.7h-4.5v2.4h4.1v1.7h-4.1v3.8h4.5v1.4h-6.2v-11L258.6,57.6L258.6,57.6z M267.5,57.6v4.5l3.8-4.5h2.1l-4.5,5.1l4.8,5.8
	h-2.1l-4.1-5.1v5.1h-1.7v-5.1l-3.8,5.1h-2l4.8-5.8l-4.5-5.1h2.1l3.8,4.5v-4.5C266.2,57.6,267.5,57.6,267.5,57.6z M276.4,57.6h6.9
	v9.3h1.4V71H283v-2.4h-7.2V71H274v-4.1c0.3,0,0.7,0,1-0.3s0.7-0.7,0.7-1s0.3-0.7,0.3-1s0-1,0-1.7L276.4,57.6L276.4,57.6z
	 M278.1,59.3v3.4c0,0.7,0,1.4,0,1.7s0,1-0.3,1.4c0,0.3-0.3,0.7-0.3,0.7c0,0.3-0.3,0.3-0.3,0.7h4.8v-7.9L278.1,59.3L278.1,59.3z
	 M286.4,68.6v-11h1.7v4.5h1.4c0.7,0,1,0,1.7,0.3c0.3,0,1,0.3,1.4,0.7c0.3,0.3,0.7,0.7,0.7,1c0.3,0.3,0.3,1,0.3,1.4
	c0,0.7,0,1-0.3,1.4c-0.3,0.3-0.7,1-1,1c-0.3,0.3-0.7,0.3-1,0.3s-0.7,0-1.4,0L286.4,68.6L286.4,68.6z M288.1,63.8v3.4h1
	c0.7,0,1.4,0,1.7-0.3c0.3-0.3,0.7-0.7,0.7-1.4c0-0.7-0.3-1-0.7-1.4c-0.3-0.3-1-0.3-1.7-0.3C289.1,63.8,288.1,63.8,288.1,63.8z
	 M294.2,57.6h1.7v11h-1.7V57.6z M310,68.6V61l-7.5,7.9V57.6h1.7v7.5l7.5-7.9v11.3L310,68.6L310,68.6z M324.1,68.6v-4.5
	c-1,0-1.4,0-1.7,0c-0.3,0-0.3,0-0.3,0c-0.7,0-1.4,0-1.7,0c-0.3,0-0.7-0.3-1-0.7c-0.3-0.3-0.7-0.7-0.7-1c-0.7-0.3-0.7-1-0.7-1.4v-3.1
	h1.7V61c0,0.3,0,1,0,1c0,0.3,0.3,0.3,0.3,0.7c0,0,0.3,0.3,0.7,0.3s0.7,0,1,0s0.7,0,1,0s0.7,0,1,0v-4.8h1.7v10.3L324.1,68.6
	L324.1,68.6z M327.5,57.6h2.1l2.7,5.5l2.4-5.5h1.7l-4.8,11h-1.7l1.4-3.4L327.5,57.6z M338.5,57.6h7.2v11H344v-9.3h-3.8v5.5
	c0,1,0,1.7-0.3,2.1c-0.3,0.3-0.3,1-0.7,1c-0.3,0.3-0.7,0.3-1,0.3s-0.7,0-1,0h-0.3h-0.3v-1.7h0.3h0.3c0.3,0,0.3,0,0.7,0
	c0.3,0,0.3,0,0.3-0.3c0.3-0.3,0.3-0.3,0.3-0.7s0-1,0-1.7V57.6L338.5,57.6z M353.6,57.3c1.7,0,3.1,0.7,4.1,1.7s1.7,2.4,1.7,4.1
	s-0.7,3.1-1.7,4.1s-2.4,1.7-4.1,1.7s-3.1-0.7-4.1-1.7s-1.7-2.4-1.7-4.1c0-1.7,0.7-3.1,1.7-4.1S351.8,57.6,353.6,57.3z M353.6,67.2
	c1,0,2.1-0.3,2.7-1c0.7-0.7,1-1.7,1-3.1s-0.3-2.1-1-3.1c-0.7-0.7-1.7-1-2.7-1s-2.1,0.3-2.7,1c-0.7,0.7-1,1.7-1,3.1
	c0,1.4,0.3,2.1,1,3.1C351.5,66.9,352.5,67.2,353.6,67.2z M367.3,68.6v-4.5c-1,0-1.4,0-1.7,0s-0.3,0-0.3,0c-0.7,0-1.4,0-1.7,0
	c-0.3,0-0.7-0.3-1-0.7c-0.3-0.3-0.7-0.7-0.7-1c-0.3-0.3-0.3-1-0.3-1.7v-3.1h1.7v3.1c0,0.3,0,1,0,1c0,0.3,0.3,0.3,0.3,0.7
	c0,0,0.3,0.3,0.7,0.3c0.3,0,0.7,0,1,0s0.7,0,1,0s0.7,0,1,0v-4.8h1.7v10.6L367.3,68.6L367.3,68.6z M373.8,57.6v4.1h4.8v-4.1h1.7v11
	h-1.7v-5.1h-4.8v5.1h-1.7v-11H373.8z M383,68.6v-11h1.7v4.5h1.4c0.7,0,1,0,1.7,0.3c0.3,0,1,0.3,1.4,0.7c0.3,0.3,0.7,0.7,0.7,1
	c0.3,0.3,0.3,1,0.3,1.4c0,0.7,0,1-0.3,1.4c-0.3,0.3-0.7,1-1,1c-0.3,0.3-0.7,0.3-1,0.3s-0.7,0-1.4,0L383,68.6L383,68.6z M384.8,63.8
	v3.4h1c0.7,0,1.4,0,1.7-0.3c0.3-0.3,0.7-0.7,0.7-1.4c0-0.7-0.3-1-0.7-1.4c-0.3-0.3-1-0.3-1.7-0.3C385.8,63.8,384.8,63.8,384.8,63.8z
	 M390.9,57.6h1.7v11h-1.7V57.6z M394.4,68.6l3.4-5.8l-3.1-5.1h2.1l2.1,3.8l2.1-3.8h2.1l-3.1,5.1l3.4,5.8h-2.1l-2.4-4.1l-2.4,4.1
	H394.4L394.4,68.6z M416,68.6V61l-7.5,7.9V57.6h1.7v7.5l7.5-7.9v11.3L416,68.6L416,68.6z M421.4,60l-1-1c0.3-0.7,1-1,1.4-1.4
	c0.7-0.3,1-0.3,1.7-0.3c0.3,0,1,0,1.4,0.3c0.3,0,0.7,0.3,1,0.7c0.3,0.3,0.7,0.7,0.7,1s0.3,0.7,0.3,1c0,0.7,0,1-0.3,1.4
	c-0.3,0.3-0.7,0.7-1,1c0.7,0.3,1,0.7,1.4,1c0.3,0.3,0.7,1,0.7,1.7s0,1-0.3,1.7c-0.3,0.3-0.7,0.7-1,1s-0.7,0.3-1.4,0.7
	c-0.3,0-1,0.3-1.4,0.3c-1,0-1.7-0.3-2.4-0.7c-0.7-0.3-1.4-1-1.7-2.1l1.4-0.7c0.3,0.7,0.7,1,1,1.4s1,0.3,1.7,0.3c0.3,0,0.3,0,0.7,0
	s0.3,0,0.7-0.3c0.3,0,0.3-0.3,0.7-0.7c0-0.3,0.3-0.7,0.3-0.7c0-0.7-0.3-1-0.7-1.4c-0.3-0.3-1-0.3-2.1-0.3h-1v-1.7h1
	c0.7,0,1,0,1.4-0.3c0.3-0.3,0.7-0.7,0.7-1.4c0-0.3,0-0.3,0-0.7c0,0,0-0.3-0.3-0.3s-0.3-0.3-0.7-0.3s-0.3,0-0.7,0c-0.7,0-1,0-1.4,0.3
	C422.1,59.3,421.8,59.7,421.4,60L421.4,60z M431.4,57.6h6.9v9.3h1.4V71H438v-2.4h-7.2V71H429v-4.1c0.3,0,0.7,0,1-0.3s0.7-0.7,0.7-1
	s0.3-0.7,0.3-1s0-1,0-1.7v-5.1h0.4V57.6z M433.1,59.3v3.4c0,0.7,0,1.4,0,1.7s0,1-0.3,1.4c0,0.3-0.3,0.7-0.3,0.7
	c0,0.3-0.3,0.3-0.3,0.7h4.8v-7.9L433.1,59.3L433.1,59.3z M447.2,57.6v1.7h-4.5v2.4h4.1v1.7h-4.1v3.8h4.5v1.4h-5.8v-11L447.2,57.6
	L447.2,57.6z M450.9,57.6h7.2v11h-1.7v-9.3h-3.8v5.5c0,1,0,1.7-0.3,2.1c-0.3,0.3-0.3,1-0.7,1c-0.3,0.3-0.7,0.3-1,0.3s-0.7,0-1,0
	h-0.3H449v-1.7h0.3h0.3c0.3,0,0.3,0,0.7,0c0.3,0,0.3,0,0.3-0.3c0.3-0.3,0.3-0.3,0.3-0.7s0-1,0-1.7L450.9,57.6L450.9,57.6z
	 M468.1,68.6V61l-7.5,7.9V57.6h1.7v7.5l7.5-7.9v11.3L468.1,68.6L468.1,68.6z M480.1,68.6V61l-7.5,7.9V57.6h1.7v7.5l7.5-7.9v11.3
	L480.1,68.6L480.1,68.6z M474.6,54.9l1.4-0.7c0,0.3,0.3,0.7,0.3,0.7c0.3,0,0.7,0.3,1,0.3s0.7,0,1-0.3c0.3,0,0.3-0.3,0.7-0.7l1.4,0.7
	c-0.3,0.3-0.7,1-1,1.4c-0.3,0.3-1,0.3-1.7,0.3s-1.4,0-1.7-0.3C475.3,55.9,474.9,55.5,474.6,54.9"/>
<a xlink:href="http://lingerie-show-forum.ru/show-forum/" target ="_top"><rect x="695" y="2" fill="#E76E9C" width="150" height="66"/></a>
<g>
	<g>
		<path fill="#FFFFFF" d="M707.4,16.6v1.3h-6.6l3.4-4.1c0.3-0.4,0.6-0.7,0.7-0.9c0.2-0.2,0.3-0.4,0.4-0.6c0.2-0.3,0.3-0.5,0.4-0.7
			c0.1-0.2,0.1-0.4,0.1-0.7c0-0.4-0.1-0.8-0.4-1.1c-0.3-0.3-0.7-0.5-1.2-0.5c-0.5,0-0.9,0.2-1.2,0.5c-0.3,0.3-0.5,0.8-0.5,1.3h-1.5
			c0-0.4,0.1-0.8,0.2-1.2c0.1-0.4,0.3-0.7,0.6-1c0.3-0.3,0.6-0.6,1-0.7c0.4-0.2,0.8-0.3,1.3-0.3c1,0,1.7,0.3,2.3,0.9
			c0.6,0.6,0.8,1.3,0.8,2.1c0,0.3-0.1,0.7-0.2,1c-0.1,0.3-0.3,0.7-0.5,1.1c-0.1,0.2-0.3,0.4-0.4,0.6c-0.2,0.2-0.5,0.6-1,1.2
			l-1.6,1.8H707.4z"/>
		<path fill="#FFFFFF" d="M716,8.1v1.3h-3.1l-0.5,1.7c0.1,0,0.1,0,0.2,0c0.1,0,0.1,0,0.2,0c0.4,0,0.8,0.1,1.2,0.2
			c0.4,0.1,0.7,0.3,1,0.5c0.4,0.3,0.6,0.7,0.8,1.2c0.2,0.5,0.3,1,0.3,1.5c0,1.1-0.3,2-1,2.6c-0.7,0.7-1.6,1-2.6,1
			c-0.7,0-1.3-0.2-1.8-0.5c-0.5-0.3-1-0.8-1.3-1.4l1.1-0.9c0.2,0.5,0.5,0.8,0.8,1.1c0.4,0.2,0.8,0.4,1.2,0.4c0.7,0,1.2-0.2,1.5-0.6
			c0.4-0.4,0.5-0.9,0.5-1.6c0-0.6-0.2-1.1-0.5-1.5c-0.4-0.4-0.8-0.6-1.4-0.6c-0.4,0-0.7,0.1-1,0.2c-0.3,0.1-0.5,0.4-0.7,0.6h-0.5
			l1.5-5.2H716z"/>
		<path fill="#FFFFFF" d="M718.2,15.5V14h3.5v1.5H718.2z"/>
		<path fill="#FFFFFF" d="M729.7,16.6v1.3h-6.6l3.4-4.1c0.3-0.4,0.6-0.7,0.7-0.9c0.2-0.2,0.3-0.4,0.4-0.6c0.2-0.3,0.3-0.5,0.4-0.7
			c0.1-0.2,0.1-0.4,0.1-0.7c0-0.4-0.1-0.8-0.4-1.1c-0.3-0.3-0.7-0.5-1.2-0.5c-0.5,0-0.9,0.2-1.2,0.5c-0.3,0.3-0.5,0.8-0.5,1.3h-1.5
			c0-0.4,0.1-0.8,0.2-1.2c0.1-0.4,0.3-0.7,0.6-1c0.3-0.3,0.6-0.6,1-0.7c0.4-0.2,0.8-0.3,1.3-0.3c1,0,1.7,0.3,2.3,0.9
			c0.6,0.6,0.8,1.3,0.8,2.1c0,0.3-0.1,0.7-0.2,1c-0.1,0.3-0.3,0.7-0.5,1.1c-0.1,0.2-0.3,0.4-0.4,0.6c-0.2,0.2-0.5,0.6-1,1.2
			l-1.6,1.8H729.7z"/>
		<path fill="#FFFFFF" d="M732,17.5l4.9-8.1h-4.8V8.1h7.3l-6.1,10.1L732,17.5z"/>
		<path fill="#FFFFFF" d="M748.5,17.9v-1.3h-0.2c-1.4,0-2.4-0.3-3-1c-0.7-0.7-1-1.5-1-2.6c0-1.1,0.3-1.9,1-2.6c0.7-0.6,1.7-1,3-1
			h0.2V8.4h1.4v1.1h0.2c1.3,0,2.3,0.3,3,1c0.7,0.6,1,1.5,1.1,2.6c0,1.1-0.3,1.9-1,2.6c-0.7,0.7-1.7,1-3,1h-0.2v1.3H748.5z
			 M748.5,15.3v-4.5h-0.3c-0.9,0-1.5,0.2-1.9,0.6c-0.4,0.4-0.7,1-0.7,1.6c0,0.7,0.2,1.2,0.7,1.6c0.4,0.4,1.1,0.6,1.9,0.6H748.5z
			 M749.9,10.8v4.5h0.3c0.8,0,1.5-0.2,1.9-0.6c0.4-0.4,0.7-1,0.7-1.6c0-0.6-0.2-1.2-0.7-1.6c-0.4-0.4-1.1-0.6-1.9-0.6H749.9z"/>
		<path fill="#FFFFFF" d="M761.2,8.8v1.3h-3.6v2.2h3.5v1.3h-3.5v3h3.6v1.3h-5V8.8H761.2z"/>
		<path fill="#FFFFFF" d="M763.3,8.8h1.4c0.7,0,1.1,0.1,1.4,0.1c0.3,0.1,0.6,0.2,0.8,0.4c0.3,0.2,0.6,0.5,0.8,0.9
			c0.2,0.3,0.3,0.7,0.3,1.2c0,0.4-0.1,0.7-0.2,0.9c-0.1,0.3-0.3,0.5-0.6,0.7c0.5,0.2,0.9,0.4,1.2,0.8c0.3,0.4,0.4,0.9,0.4,1.4
			c0,0.4-0.1,0.8-0.2,1.1c-0.2,0.4-0.4,0.7-0.7,0.9c-0.3,0.2-0.6,0.4-0.9,0.5c-0.3,0.1-0.9,0.2-1.5,0.2h-2.1V8.8z M764.7,10.1v2.6
			h0.4c0.5,0,0.9-0.1,1.1-0.3c0.2-0.2,0.4-0.6,0.4-1c0-0.4-0.1-0.7-0.4-0.9c-0.2-0.2-0.6-0.3-1.1-0.3H764.7z M764.7,13.9v2.7h0.8
			c0.6,0,1.1-0.1,1.4-0.4c0.3-0.2,0.4-0.6,0.4-1c0-0.4-0.1-0.8-0.4-1c-0.3-0.2-0.7-0.4-1.3-0.4H764.7z"/>
		<path fill="#FFFFFF" d="M770.8,8.8h2c0.5,0,0.8,0.1,1.1,0.1c0.3,0.1,0.6,0.2,0.8,0.4c0.4,0.3,0.7,0.6,0.8,1
			c0.2,0.4,0.3,0.8,0.3,1.3c0,0.4-0.1,0.8-0.2,1.1c-0.1,0.3-0.4,0.6-0.7,0.9c-0.3,0.3-0.6,0.4-1,0.6c-0.4,0.1-0.8,0.2-1.2,0.2h-0.6
			v3.7h-1.4V8.8z M772.2,10.1v2.8h0.6c0.6,0,1-0.1,1.3-0.4c0.3-0.2,0.4-0.6,0.4-1.1c0-0.5-0.2-0.8-0.5-1c-0.3-0.2-0.7-0.3-1.3-0.3
			H772.2z"/>
		<path fill="#FFFFFF" d="M783.6,17.9l-1-2.2h-3.9l-1,2.2h-1.5l4.5-9.6l4.3,9.6H783.6z M779.3,14.4h2.7l-1.3-3.1L779.3,14.4z"/>
		<path fill="#FFFFFF" d="M787.5,8.8h5.8v9.1h-1.4v-7.8h-3v4.5c0,0.8-0.1,1.4-0.2,1.8c-0.2,0.4-0.4,0.7-0.7,1
			c-0.2,0.2-0.5,0.3-0.7,0.4c-0.3,0.1-0.6,0.1-0.9,0.1c-0.1,0-0.2,0-0.3,0c-0.1,0-0.2,0-0.3-0.1v-1.3c0.1,0,0.2,0,0.2,0.1
			c0.1,0,0.1,0,0.2,0c0.2,0,0.3,0,0.5-0.1c0.2-0.1,0.3-0.1,0.4-0.2c0.2-0.1,0.3-0.4,0.3-0.7c0.1-0.3,0.1-0.8,0.1-1.4V8.8z"/>
		<path fill="#FFFFFF" d="M794.9,17.9l2.7-3.8c-0.2,0-0.5-0.1-0.7-0.2c-0.3-0.1-0.5-0.2-0.7-0.4c-0.3-0.2-0.5-0.5-0.6-0.8
			c-0.1-0.3-0.2-0.7-0.2-1.1c0-0.4,0.1-0.7,0.2-1c0.1-0.3,0.3-0.6,0.5-0.9c0.3-0.3,0.6-0.5,0.9-0.6c0.4-0.2,0.9-0.2,1.6-0.2h2.2v9.1
			h-1.4v-3.6h-0.3l-2.5,3.6H794.9z M799.5,10.1h-0.7c-0.4,0-0.7,0-1,0.1c-0.2,0.1-0.4,0.2-0.6,0.3c-0.1,0.1-0.2,0.3-0.3,0.5
			c-0.1,0.2-0.1,0.4-0.1,0.6c0,0.2,0,0.4,0.1,0.6c0.1,0.2,0.2,0.3,0.4,0.5c0.1,0.1,0.3,0.2,0.6,0.2c0.2,0,0.5,0.1,0.8,0.1h0.8V10.1z
			"/>
		<path fill="#FFFFFF" d="M813,16.6v1.3h-6.6l3.4-4.1c0.3-0.4,0.6-0.7,0.7-0.9c0.2-0.2,0.3-0.4,0.4-0.6c0.2-0.3,0.3-0.5,0.4-0.7
			c0.1-0.2,0.1-0.4,0.1-0.7c0-0.4-0.1-0.8-0.4-1.1c-0.3-0.3-0.7-0.5-1.2-0.5c-0.5,0-0.9,0.2-1.2,0.5c-0.3,0.3-0.5,0.8-0.5,1.3h-1.5
			c0-0.4,0.1-0.8,0.2-1.2c0.1-0.4,0.3-0.7,0.6-1c0.3-0.3,0.6-0.6,1-0.7c0.4-0.2,0.8-0.3,1.3-0.3c1,0,1.7,0.3,2.3,0.9
			c0.5,0.6,0.8,1.3,0.8,2.1c0,0.3-0.1,0.7-0.2,1c-0.1,0.3-0.3,0.7-0.5,1.1c-0.1,0.2-0.3,0.4-0.4,0.6c-0.2,0.2-0.5,0.6-1,1.2
			l-1.6,1.8H813z"/>
		<path fill="#FFFFFF" d="M818.7,18.1c-0.4,0-0.8-0.1-1.2-0.3c-0.4-0.2-0.7-0.4-1-0.8c-0.4-0.5-0.8-1.1-1-1.7
			c-0.2-0.7-0.3-1.4-0.3-2.3c0-0.9,0.1-1.6,0.3-2.3c0.2-0.7,0.5-1.3,1-1.8c0.3-0.4,0.6-0.6,1-0.8c0.4-0.2,0.8-0.3,1.2-0.3
			c0.4,0,0.8,0.1,1.2,0.3c0.4,0.2,0.7,0.4,1,0.8c0.4,0.5,0.8,1.1,1,1.8c0.2,0.7,0.3,1.4,0.3,2.3c0,0.9-0.1,1.6-0.3,2.3
			c-0.2,0.7-0.5,1.2-1,1.7c-0.3,0.4-0.7,0.6-1,0.8C819.6,18,819.2,18.1,818.7,18.1z M818.7,9.3c-0.3,0-0.5,0.1-0.7,0.2
			c-0.2,0.1-0.4,0.3-0.6,0.6c-0.2,0.3-0.4,0.8-0.5,1.3c-0.1,0.5-0.2,1.1-0.2,1.7c0,0.6,0.1,1.2,0.2,1.7c0.1,0.5,0.3,0.9,0.5,1.3
			c0.2,0.3,0.4,0.5,0.6,0.6c0.2,0.1,0.5,0.2,0.7,0.2c0.3,0,0.5-0.1,0.7-0.2c0.2-0.1,0.4-0.3,0.6-0.6c0.2-0.3,0.4-0.8,0.5-1.3
			c0.1-0.5,0.2-1.1,0.2-1.7c0-0.6-0.1-1.2-0.2-1.7c-0.1-0.5-0.3-0.9-0.5-1.3c-0.2-0.3-0.4-0.5-0.6-0.6C819.2,9.3,819,9.3,818.7,9.3z
			"/>
		<path fill="#FFFFFF" d="M826.9,17.9V9.5h-1.7l0.8-1.4h2.4v9.8H826.9z"/>
		<path fill="#FFFFFF" d="M837.1,7.8l1.1,0.8l-2.3,3.2c0.1,0,0.2,0,0.2,0c0.1,0,0.2,0,0.2,0c0.9,0,1.6,0.3,2.1,0.9
			c0.5,0.6,0.8,1.3,0.8,2.2c0,1-0.3,1.7-0.9,2.4c-0.6,0.6-1.4,0.9-2.4,0.9c-1,0-1.7-0.3-2.4-0.9c-0.6-0.6-0.9-1.3-0.9-2.3
			c0-0.4,0.1-0.8,0.2-1.2c0.1-0.4,0.4-0.8,0.8-1.3L837.1,7.8z M836,13c-0.5,0-1,0.2-1.3,0.5c-0.3,0.3-0.5,0.8-0.5,1.3
			c0,0.5,0.2,1,0.5,1.3c0.3,0.3,0.8,0.5,1.3,0.5c0.5,0,1-0.2,1.3-0.5c0.3-0.3,0.5-0.8,0.5-1.3c0-0.6-0.2-1-0.5-1.3
			C837,13.2,836.6,13,836,13z"/>
	</g>
</g>
<g>
	<g>
		<path fill="#6B3422" d="M707.8,24.2v1.6c-0.3-0.3-0.7-0.6-1.1-0.8c-0.4-0.2-0.9-0.3-1.3-0.3c-1,0-1.8,0.3-2.4,1
			c-0.6,0.7-0.9,1.5-0.9,2.5c0,1,0.3,1.8,0.9,2.4s1.4,1,2.4,1c0.4,0,0.9-0.1,1.3-0.3c0.4-0.2,0.8-0.4,1.2-0.8v1.7
			c-0.4,0.3-0.8,0.4-1.2,0.5c-0.4,0.1-0.8,0.2-1.3,0.2c-0.7,0-1.3-0.1-1.8-0.3c-0.5-0.2-1-0.5-1.4-0.9c-0.5-0.4-0.8-0.9-1.1-1.5
			c-0.3-0.6-0.4-1.2-0.4-1.9c0-0.7,0.1-1.4,0.4-2c0.3-0.6,0.6-1.1,1.1-1.6c0.4-0.4,0.9-0.7,1.4-0.9c0.5-0.2,1.2-0.3,1.9-0.3
			c0.5,0,0.9,0.1,1.3,0.2C707.1,23.8,707.4,23.9,707.8,24.2z"/>
		<path fill="#6B3422" d="M709.8,23.7h2c0.5,0,0.8,0.1,1.1,0.1c0.3,0.1,0.6,0.2,0.8,0.4c0.4,0.3,0.7,0.6,0.8,1
			c0.2,0.4,0.3,0.8,0.3,1.3c0,0.4-0.1,0.8-0.2,1.1c-0.1,0.3-0.4,0.6-0.7,0.9c-0.3,0.3-0.6,0.4-1,0.6c-0.4,0.1-0.8,0.2-1.2,0.2h-0.6
			v3.7h-1.4V23.7z M711.2,25v2.8h0.6c0.6,0,1-0.1,1.3-0.4c0.3-0.2,0.4-0.6,0.4-1.1c0-0.5-0.2-0.8-0.5-1c-0.3-0.2-0.7-0.3-1.3-0.3
			H711.2z"/>
		<path fill="#6B3422" d="M721.7,23.7V25h-3.6v2.2h3.5v1.3h-3.5v3h3.6v1.3h-5v-9.1H721.7z"/>
		<path fill="#6B3422" d="M724.7,23.7h5.7v7.8h1v3.4h-1.3v-2.1h-5.9v2.1H723v-3.4c0.3,0,0.6-0.1,0.8-0.3c0.3-0.2,0.5-0.5,0.6-0.9
			c0.1-0.3,0.2-0.6,0.2-1c0.1-0.4,0.1-0.8,0.1-1.4V23.7z M726.1,25v2.9c0,0.5,0,1-0.1,1.4c-0.1,0.4-0.1,0.8-0.2,1.1
			c-0.1,0.2-0.2,0.4-0.3,0.6c-0.1,0.2-0.3,0.3-0.4,0.5h3.9V25H726.1z"/>
		<path fill="#6B3422" d="M734.5,23.7v3.6h3.9v-3.6h1.4v9.1h-1.4v-4.2h-3.9v4.2h-1.4v-9.1H734.5z"/>
		<path fill="#6B3422" d="M748.4,32.8v-6.1l-6.1,6.5v-9.5h1.4v6.1l6.1-6.5v9.5H748.4z"/>
		<path fill="#6B3422" d="M758.4,32.8v-6.1l-6.1,6.5v-9.5h1.4v6.1l6.1-6.5v9.5H758.4z M753.8,21.4l1.1-0.5c0.1,0.2,0.2,0.4,0.4,0.6
			c0.2,0.1,0.5,0.2,0.7,0.2c0.3,0,0.5-0.1,0.7-0.2c0.2-0.1,0.4-0.3,0.4-0.6l1.1,0.5c-0.2,0.4-0.5,0.8-0.9,1
			c-0.4,0.3-0.9,0.4-1.4,0.4c-0.5,0-1-0.1-1.4-0.4C754.2,22.2,753.9,21.9,753.8,21.4z"/>
		<path fill="#6B3422" d="M761.2,35.2l5.2-12.1l1.1,0.5l-5.2,12.1L761.2,35.2z"/>
		<path fill="#6B3422" d="M776.7,24.2v1.6c-0.3-0.3-0.7-0.6-1.1-0.8c-0.4-0.2-0.9-0.3-1.3-0.3c-1,0-1.8,0.3-2.4,1
			c-0.6,0.7-0.9,1.5-0.9,2.5c0,1,0.3,1.8,0.9,2.4c0.6,0.6,1.4,1,2.4,1c0.4,0,0.9-0.1,1.3-0.3c0.4-0.2,0.8-0.4,1.2-0.8v1.7
			c-0.4,0.3-0.8,0.4-1.2,0.5c-0.4,0.1-0.8,0.2-1.3,0.2c-0.7,0-1.3-0.1-1.8-0.3c-0.5-0.2-1-0.5-1.4-0.9c-0.5-0.4-0.8-0.9-1.1-1.5
			c-0.3-0.6-0.4-1.2-0.4-1.9c0-0.7,0.1-1.4,0.4-2c0.3-0.6,0.6-1.1,1.1-1.6c0.4-0.4,0.9-0.7,1.4-0.9c0.5-0.2,1.2-0.3,1.9-0.3
			c0.5,0,0.9,0.1,1.3,0.2C776,23.8,776.4,23.9,776.7,24.2z"/>
		<path fill="#6B3422" d="M778.8,23.7h2c0.5,0,0.8,0.1,1.1,0.1c0.3,0.1,0.6,0.2,0.8,0.4c0.4,0.3,0.7,0.6,0.8,1
			c0.2,0.4,0.3,0.8,0.3,1.3c0,0.4-0.1,0.8-0.2,1.1c-0.1,0.3-0.4,0.6-0.7,0.9c-0.3,0.3-0.6,0.4-1,0.6c-0.4,0.1-0.8,0.2-1.2,0.2h-0.6
			v3.7h-1.4V23.7z M780.2,25v2.8h0.6c0.6,0,1-0.1,1.3-0.4c0.3-0.2,0.4-0.6,0.4-1.1c0-0.5-0.2-0.8-0.5-1c-0.3-0.2-0.7-0.3-1.3-0.3
			H780.2z"/>
		<path fill="#6B3422" d="M790.7,23.7V25h-3.6v2.2h3.5v1.3h-3.5v3h3.6v1.3h-5v-9.1H790.7z"/>
		<path fill="#6B3422" d="M793.7,23.7h5.7v7.8h1v3.4h-1.3v-2.1h-5.9v2.1h-1.3v-3.4c0.3,0,0.6-0.1,0.8-0.3c0.3-0.2,0.5-0.5,0.6-0.9
			c0.1-0.3,0.2-0.6,0.2-1c0.1-0.4,0.1-0.8,0.1-1.4V23.7z M795.1,25v2.9c0,0.5,0,1-0.1,1.4c-0.1,0.4-0.1,0.8-0.2,1.1
			c-0.1,0.2-0.2,0.4-0.3,0.6c-0.1,0.2-0.3,0.3-0.4,0.5h3.9V25H795.1z"/>
		<path fill="#6B3422" d="M803.4,23.7v3.6h3.9v-3.6h1.4v9.1h-1.4v-4.2h-3.9v4.2H802v-9.1H803.4z"/>
		<path fill="#6B3422" d="M817.3,32.8v-6.1l-6.1,6.5v-9.5h1.4v6.1l6.1-6.5v9.5H817.3z"/>
		<path fill="#6B3422" d="M827.4,32.8v-6.1l-6.1,6.5v-9.5h1.4v6.1l6.1-6.5v9.5H827.4z M822.7,21.4l1.1-0.5c0.1,0.2,0.2,0.4,0.4,0.6
			c0.2,0.1,0.5,0.2,0.7,0.2c0.3,0,0.5-0.1,0.7-0.2c0.2-0.1,0.4-0.3,0.4-0.6l1.1,0.5c-0.2,0.4-0.5,0.8-0.9,1
			c-0.4,0.3-0.9,0.4-1.4,0.4c-0.5,0-1-0.1-1.4-0.4C823.2,22.2,822.9,21.9,822.7,21.4z"/>
		<path fill="#6B3422" d="M738.8,38.7h1.4c0.7,0,1.1,0.1,1.4,0.1c0.3,0.1,0.6,0.2,0.8,0.4c0.3,0.2,0.6,0.5,0.8,0.9
			c0.2,0.3,0.3,0.7,0.3,1.2c0,0.4-0.1,0.7-0.2,0.9c-0.1,0.3-0.3,0.5-0.6,0.7c0.5,0.2,0.9,0.4,1.2,0.8c0.3,0.4,0.4,0.9,0.4,1.4
			c0,0.4-0.1,0.8-0.2,1.1c-0.2,0.4-0.4,0.7-0.7,0.9c-0.3,0.2-0.6,0.4-0.9,0.5c-0.3,0.1-0.9,0.2-1.5,0.2h-2.1V38.7z M740.2,40v2.6
			h0.4c0.5,0,0.9-0.1,1.1-0.3c0.2-0.2,0.4-0.6,0.4-1c0-0.4-0.1-0.7-0.4-0.9c-0.2-0.2-0.6-0.3-1.1-0.3H740.2z M740.2,43.7v2.7h0.8
			c0.6,0,1.1-0.1,1.4-0.4c0.3-0.2,0.4-0.6,0.4-1c0-0.4-0.1-0.8-0.4-1c-0.3-0.2-0.7-0.4-1.3-0.4H740.2z"/>
		<path fill="#6B3422" d="M746.1,47.8v-9.1h1.4v3.7h1c0.5,0,0.9,0.1,1.3,0.2c0.4,0.1,0.7,0.3,1,0.5c0.3,0.2,0.5,0.5,0.6,0.9
			c0.2,0.4,0.2,0.7,0.2,1.1c0,0.5-0.1,0.9-0.3,1.3c-0.2,0.4-0.5,0.7-0.8,0.9c-0.3,0.2-0.5,0.3-0.8,0.4c-0.3,0.1-0.7,0.1-1.2,0.1
			H746.1z M747.5,43.6v2.8h1c0.6,0,1.1-0.1,1.4-0.4c0.3-0.2,0.4-0.6,0.4-1c0-0.4-0.2-0.8-0.5-1.1c-0.3-0.3-0.7-0.4-1.3-0.4H747.5z
			 M752.6,38.7h1.4v9.1h-1.4V38.7z"/>
		<path fill="#6B3422" d="M763.1,39.2v1.6c-0.3-0.3-0.7-0.6-1.1-0.8c-0.4-0.2-0.9-0.3-1.3-0.3c-1,0-1.8,0.3-2.4,1s-0.9,1.5-0.9,2.5
			c0,1,0.3,1.8,0.9,2.4c0.6,0.6,1.4,1,2.4,1c0.4,0,0.9-0.1,1.3-0.3c0.4-0.2,0.8-0.4,1.2-0.8v1.7c-0.4,0.3-0.8,0.4-1.2,0.5
			c-0.4,0.1-0.8,0.2-1.3,0.2c-0.7,0-1.3-0.1-1.8-0.3c-0.5-0.2-1-0.5-1.4-0.9c-0.5-0.4-0.8-0.9-1.1-1.5c-0.3-0.6-0.4-1.2-0.4-1.9
			c0-0.7,0.1-1.4,0.4-2c0.3-0.6,0.6-1.1,1.1-1.6c0.4-0.4,0.9-0.7,1.4-0.9c0.5-0.2,1.2-0.3,1.9-0.3c0.5,0,0.9,0.1,1.3,0.2
			C762.4,38.8,762.7,38.9,763.1,39.2z"/>
		<path fill="#6B3422" d="M769.2,38.5c1.4,0,2.5,0.5,3.4,1.4c0.9,0.9,1.4,2,1.4,3.4c0,1.3-0.5,2.5-1.4,3.4c-0.9,0.9-2,1.4-3.4,1.4
			c-1.4,0-2.5-0.5-3.4-1.4c-0.9-0.9-1.3-2-1.3-3.4c0-1.3,0.4-2.5,1.3-3.4C766.7,39,767.9,38.5,769.2,38.5z M769.2,46.7
			c1,0,1.7-0.3,2.4-1c0.6-0.6,0.9-1.5,0.9-2.5c0-1-0.3-1.8-0.9-2.5c-0.6-0.6-1.4-1-2.4-1c-1,0-1.7,0.3-2.4,1
			c-0.6,0.6-0.9,1.5-0.9,2.5c0,1,0.3,1.8,0.9,2.5C767.5,46.3,768.3,46.7,769.2,46.7z"/>
		<path fill="#6B3422" d="M777.2,38.7v3.6l3.5-3.6h1.8l-4.1,4.1l4.1,5h-1.8l-3.5-4.4v4.4h-1.4v-9.1H777.2z"/>
		<path fill="#6B3422" d="M790.1,47.8v-6.1l-6.1,6.5v-9.5h1.4v6.1l6.1-6.5v9.5H790.1z"/>
		<path fill="#6B3422" d="M799.9,47.8v-6.1l-6.1,6.5v-9.5h1.4v6.1l6.1-6.5v9.5H799.9z M795.3,36.4l1.1-0.5c0.1,0.2,0.2,0.4,0.4,0.6
			c0.2,0.1,0.5,0.2,0.7,0.2c0.3,0,0.5-0.1,0.7-0.2c0.2-0.1,0.4-0.3,0.4-0.6l1.1,0.5c-0.2,0.4-0.5,0.8-0.9,1
			c-0.4,0.3-0.9,0.4-1.4,0.4c-0.5,0-1-0.1-1.4-0.4C795.8,37.2,795.5,36.9,795.3,36.4z"/>
		<path fill="#6B3422" d="M701.7,62.8v-9.1h1.4v7.8h3.7v-7.8h1.4v7.8h1.2v3.4h-1.3v-2.1H701.7z"/>
		<path fill="#6B3422" d="M717,53.7V55h-3.6v2.2h3.5v1.3h-3.5v3h3.6v1.3h-5v-9.1H717z"/>
		<path fill="#6B3422" d="M721.5,53.7v3.6h3.9v-3.6h1.4v9.1h-1.4v-4.2h-3.9v4.2h-1.4v-9.1H721.5z"/>
		<path fill="#6B3422" d="M734.6,53.5c1.4,0,2.5,0.5,3.4,1.4c0.9,0.9,1.4,2,1.4,3.4c0,1.3-0.5,2.5-1.4,3.4c-0.9,0.9-2,1.4-3.4,1.4
			c-1.4,0-2.5-0.5-3.4-1.4c-0.9-0.9-1.3-2-1.3-3.4c0-1.3,0.4-2.5,1.3-3.4C732.1,54,733.2,53.5,734.6,53.5z M734.6,61.7
			c1,0,1.7-0.3,2.4-1c0.6-0.6,0.9-1.5,0.9-2.5c0-1-0.3-1.8-0.9-2.5c-0.6-0.6-1.4-1-2.4-1c-1,0-1.7,0.3-2.4,1
			c-0.6,0.6-0.9,1.5-0.9,2.5c0,1,0.3,1.8,0.9,2.5C732.9,61.3,733.6,61.7,734.6,61.7z"/>
		<path fill="#6B3422" d="M742.4,53.7h1.4c0.7,0,1.1,0.1,1.4,0.1c0.3,0.1,0.6,0.2,0.8,0.4c0.3,0.2,0.6,0.5,0.8,0.9
			c0.2,0.3,0.3,0.7,0.3,1.2c0,0.4-0.1,0.7-0.2,0.9c-0.1,0.3-0.3,0.5-0.6,0.7c0.5,0.2,0.9,0.4,1.2,0.8c0.3,0.4,0.4,0.9,0.4,1.4
			c0,0.4-0.1,0.8-0.2,1.1c-0.2,0.4-0.4,0.7-0.7,0.9c-0.3,0.2-0.6,0.4-0.9,0.5c-0.3,0.1-0.9,0.2-1.5,0.2h-2.1V53.7z M743.8,55v2.6
			h0.4c0.5,0,0.9-0.1,1.1-0.3c0.2-0.2,0.4-0.6,0.4-1c0-0.4-0.1-0.7-0.4-0.9c-0.2-0.2-0.6-0.3-1.1-0.3H743.8z M743.8,58.7v2.7h0.8
			c0.6,0,1.1-0.1,1.4-0.4c0.3-0.2,0.4-0.6,0.4-1c0-0.4-0.1-0.8-0.4-1c-0.3-0.2-0.7-0.4-1.3-0.4H743.8z"/>
		<path fill="#6B3422" d="M755.2,53.5c1.4,0,2.5,0.5,3.4,1.4c0.9,0.9,1.4,2,1.4,3.4c0,1.3-0.5,2.5-1.4,3.4c-0.9,0.9-2,1.4-3.4,1.4
			c-1.4,0-2.5-0.5-3.4-1.4c-0.9-0.9-1.3-2-1.3-3.4c0-1.3,0.4-2.5,1.3-3.4C752.7,54,753.8,53.5,755.2,53.5z M755.2,61.7
			c1,0,1.7-0.3,2.4-1c0.6-0.6,0.9-1.5,0.9-2.5c0-1-0.3-1.8-0.9-2.5c-0.6-0.6-1.4-1-2.4-1c-1,0-1.7,0.3-2.4,1
			c-0.6,0.6-0.9,1.5-0.9,2.5c0,1,0.3,1.8,0.9,2.5C753.5,61.3,754.2,61.7,755.2,61.7z"/>
		<path fill="#6B3422" d="M769.1,62.8v-6.1l-6.1,6.5v-9.5h1.4v6.1l6.1-6.5v9.5H769.1z M764.5,51.4l1.1-0.5c0.1,0.2,0.2,0.4,0.4,0.6
			c0.2,0.1,0.5,0.2,0.7,0.2c0.3,0,0.5-0.1,0.7-0.2c0.2-0.1,0.4-0.3,0.4-0.6l1.1,0.5c-0.2,0.4-0.5,0.8-0.9,1
			c-0.4,0.3-0.9,0.4-1.4,0.4c-0.5,0-1-0.1-1.4-0.4C765,52.2,764.7,51.9,764.5,51.4z"/>
		<path fill="#6B3422" d="M785.2,54.2v1.6c-0.3-0.3-0.7-0.6-1.1-0.8c-0.4-0.2-0.9-0.3-1.3-0.3c-1,0-1.8,0.3-2.4,1
			c-0.6,0.7-0.9,1.5-0.9,2.5c0,1,0.3,1.8,0.9,2.4c0.6,0.6,1.4,1,2.4,1c0.4,0,0.9-0.1,1.3-0.3c0.4-0.2,0.8-0.4,1.2-0.8v1.7
			c-0.4,0.3-0.8,0.4-1.2,0.5c-0.4,0.1-0.8,0.2-1.3,0.2c-0.7,0-1.3-0.1-1.8-0.3c-0.5-0.2-1-0.5-1.4-0.9c-0.5-0.4-0.8-0.9-1.1-1.5
			c-0.3-0.6-0.4-1.2-0.4-1.9c0-0.7,0.1-1.4,0.4-2c0.3-0.6,0.6-1.1,1.1-1.6c0.4-0.4,0.9-0.7,1.4-0.9c0.5-0.2,1.2-0.3,1.9-0.3
			c0.5,0,0.9,0.1,1.3,0.2C784.5,53.8,784.8,53.9,785.2,54.2z"/>
		<path fill="#6B3422" d="M793.2,53.7V55h-3.6v2.2h3.5v1.3h-3.5v3h3.6v1.3h-5v-9.1H793.2z"/>
		<path fill="#6B3422" d="M800.9,53.7V55h-3.1v7.8h-1.4v-9.1H800.9z"/>
		<path fill="#6B3422" d="M804.7,62.8h-1.4l1.9-9.8l3.2,7l3.2-7l1.7,9.8h-1.4l-0.9-5.5l-2.7,5.9l-2.6-5.9L804.7,62.8z"/>
		<path fill="#6B3422" d="M821.4,53.7V55h-3.6v2.2h3.5v1.3h-3.5v3h3.6v1.3h-5v-9.1H821.4z"/>
		<path fill="#6B3422" d="M826,53.7v3.6h3.9v-3.6h1.4v9.1h-1.4v-4.2H826v4.2h-1.4v-9.1H826z"/>
		<path fill="#6B3422" d="M839.4,55h-2.1v7.8h-1.4V55h-2.1v-1.3h5.6V55z"/>
	</g>
</g>
<g>
	<rect x="830.4" y="26.6" fill="#6B3422" width="8.8" height="2.8"/>
	<rect x="833.4" y="23.6" fill="#6B3422" width="2.8" height="8.8"/>
</g>
<a xlink:href="http://lingerie-show-forum.ru/show-forum/" target ="_top"><rect x="536.3" y="2" fill="#B791B8" width="150" height="66"/></a>
<g>
	<g>
		<path fill="#FFFFFF" d="M548.7,16.6v1.3h-6.6l3.4-4.1c0.3-0.4,0.6-0.7,0.7-0.9c0.2-0.2,0.3-0.4,0.4-0.6c0.2-0.3,0.3-0.5,0.4-0.7
			c0.1-0.2,0.1-0.4,0.1-0.7c0-0.4-0.1-0.8-0.4-1.1c-0.3-0.3-0.7-0.5-1.2-0.5c-0.5,0-0.9,0.2-1.2,0.5c-0.3,0.3-0.5,0.8-0.5,1.3h-1.5
			c0-0.4,0.1-0.8,0.2-1.2c0.1-0.4,0.3-0.7,0.6-1c0.3-0.3,0.6-0.6,1-0.7c0.4-0.2,0.8-0.3,1.3-0.3c1,0,1.7,0.3,2.3,0.9
			c0.6,0.6,0.8,1.3,0.8,2.1c0,0.3-0.1,0.7-0.2,1c-0.1,0.3-0.3,0.7-0.5,1.1c-0.1,0.2-0.3,0.4-0.4,0.6c-0.2,0.2-0.5,0.6-1,1.2
			l-1.6,1.8H548.7z"/>
		<path fill="#FFFFFF" d="M557.3,16.6v1.3h-6.6l3.4-4.1c0.3-0.4,0.6-0.7,0.7-0.9c0.2-0.2,0.3-0.4,0.4-0.6c0.2-0.3,0.3-0.5,0.4-0.7
			c0.1-0.2,0.1-0.4,0.1-0.7c0-0.4-0.1-0.8-0.4-1.1c-0.3-0.3-0.7-0.5-1.2-0.5c-0.5,0-0.9,0.2-1.2,0.5c-0.3,0.3-0.5,0.8-0.5,1.3H551
			c0-0.4,0.1-0.8,0.2-1.2c0.1-0.4,0.3-0.7,0.6-1c0.3-0.3,0.6-0.6,1-0.7c0.4-0.2,0.8-0.3,1.3-0.3c1,0,1.7,0.3,2.3,0.9
			c0.6,0.6,0.8,1.3,0.8,2.1c0,0.3-0.1,0.7-0.2,1c-0.1,0.3-0.3,0.7-0.5,1.1c-0.1,0.2-0.3,0.4-0.4,0.6c-0.2,0.2-0.5,0.6-1,1.2
			l-1.6,1.8H557.3z"/>
		<path fill="#FFFFFF" d="M559.5,15.5V14h3.5v1.5H559.5z"/>
		<path fill="#FFFFFF" d="M571,16.6v1.3h-6.6l3.4-4.1c0.3-0.4,0.6-0.7,0.7-0.9c0.2-0.2,0.3-0.4,0.4-0.6c0.2-0.3,0.3-0.5,0.4-0.7
			c0.1-0.2,0.1-0.4,0.1-0.7c0-0.4-0.1-0.8-0.4-1.1c-0.3-0.3-0.7-0.5-1.2-0.5c-0.5,0-0.9,0.2-1.2,0.5c-0.3,0.3-0.5,0.8-0.5,1.3h-1.5
			c0-0.4,0.1-0.8,0.2-1.2c0.1-0.4,0.3-0.7,0.6-1c0.3-0.3,0.6-0.6,1-0.7c0.4-0.2,0.8-0.3,1.3-0.3c1,0,1.7,0.3,2.3,0.9
			c0.6,0.6,0.8,1.3,0.8,2.1c0,0.3-0.1,0.7-0.2,1c-0.1,0.3-0.3,0.7-0.5,1.1c-0.1,0.2-0.3,0.4-0.4,0.6c-0.2,0.2-0.5,0.6-1,1.2
			l-1.6,1.8H571z"/>
		<path fill="#FFFFFF" d="M579.1,7.4v7.8h1v1.3h-1v1.4h-1.4v-1.4h-4.8L579.1,7.4z M575.4,15.2h2.3v-3.3L575.4,15.2z"/>
		<path fill="#FFFFFF" d="M589.7,17.9v-1.3h-0.2c-1.4,0-2.4-0.3-3-1c-0.7-0.7-1-1.5-1-2.6c0-1.1,0.3-1.9,1-2.6c0.7-0.6,1.7-1,3-1
			h0.2V8.4h1.4v1.1h0.2c1.3,0,2.3,0.3,3,1c0.7,0.6,1,1.5,1.1,2.6c0,1.1-0.3,1.9-1,2.6c-0.7,0.7-1.7,1-3,1h-0.2v1.3H589.7z
			 M589.7,15.3v-4.5h-0.3c-0.9,0-1.5,0.2-1.9,0.6c-0.4,0.4-0.7,1-0.7,1.6c0,0.7,0.2,1.2,0.7,1.6c0.4,0.4,1.1,0.6,1.9,0.6H589.7z
			 M591.2,10.8v4.5h0.3c0.8,0,1.5-0.2,1.9-0.6c0.4-0.4,0.7-1,0.7-1.6c0-0.6-0.2-1.2-0.7-1.6c-0.4-0.4-1.1-0.6-1.9-0.6H591.2z"/>
		<path fill="#FFFFFF" d="M602.5,8.8v1.3h-3.6v2.2h3.5v1.3h-3.5v3h3.6v1.3h-5V8.8H602.5z"/>
		<path fill="#FFFFFF" d="M604.5,8.8h1.4c0.7,0,1.1,0.1,1.4,0.1c0.3,0.1,0.6,0.2,0.8,0.4c0.3,0.2,0.6,0.5,0.8,0.9
			c0.2,0.3,0.3,0.7,0.3,1.2c0,0.4-0.1,0.7-0.2,0.9c-0.1,0.3-0.3,0.5-0.6,0.7c0.5,0.2,0.9,0.4,1.2,0.8c0.3,0.4,0.4,0.9,0.4,1.4
			c0,0.4-0.1,0.8-0.2,1.1c-0.2,0.4-0.4,0.7-0.7,0.9c-0.3,0.2-0.6,0.4-0.9,0.5c-0.3,0.1-0.9,0.2-1.5,0.2h-2.1V8.8z M605.9,10.1v2.6
			h0.4c0.5,0,0.9-0.1,1.1-0.3c0.2-0.2,0.4-0.6,0.4-1c0-0.4-0.1-0.7-0.4-0.9c-0.2-0.2-0.6-0.3-1.1-0.3H605.9z M605.9,13.9v2.7h0.8
			c0.6,0,1.1-0.1,1.4-0.4c0.3-0.2,0.4-0.6,0.4-1c0-0.4-0.1-0.8-0.4-1c-0.3-0.2-0.7-0.4-1.3-0.4H605.9z"/>
		<path fill="#FFFFFF" d="M612,8.8h2c0.5,0,0.8,0.1,1.1,0.1c0.3,0.1,0.6,0.2,0.8,0.4c0.4,0.3,0.7,0.6,0.8,1c0.2,0.4,0.3,0.8,0.3,1.3
			c0,0.4-0.1,0.8-0.2,1.1c-0.1,0.3-0.4,0.6-0.7,0.9c-0.3,0.3-0.6,0.4-1,0.6c-0.4,0.1-0.8,0.2-1.2,0.2h-0.6v3.7H612V8.8z M613.4,10.1
			v2.8h0.6c0.6,0,1-0.1,1.3-0.4c0.3-0.2,0.4-0.6,0.4-1.1c0-0.5-0.2-0.8-0.5-1c-0.3-0.2-0.7-0.3-1.3-0.3H613.4z"/>
		<path fill="#FFFFFF" d="M624.8,17.9l-1-2.2h-3.9l-1,2.2h-1.5l4.5-9.6l4.3,9.6H624.8z M620.5,14.4h2.7l-1.3-3.1L620.5,14.4z"/>
		<path fill="#FFFFFF" d="M628.6,8.8h5.8v9.1H633v-7.8h-3v4.5c0,0.8-0.1,1.4-0.2,1.8c-0.2,0.4-0.4,0.7-0.7,1
			c-0.2,0.2-0.5,0.3-0.7,0.4c-0.3,0.1-0.6,0.1-0.9,0.1c-0.1,0-0.2,0-0.3,0c-0.1,0-0.2,0-0.3-0.1v-1.3c0.1,0,0.2,0,0.2,0.1
			c0.1,0,0.1,0,0.2,0c0.2,0,0.3,0,0.5-0.1c0.2-0.1,0.3-0.1,0.4-0.2c0.2-0.1,0.3-0.4,0.3-0.7c0.1-0.3,0.1-0.8,0.1-1.4V8.8z"/>
		<path fill="#FFFFFF" d="M636.1,17.9l2.7-3.8c-0.2,0-0.5-0.1-0.7-0.2c-0.3-0.1-0.5-0.2-0.7-0.4c-0.3-0.2-0.5-0.5-0.6-0.8
			c-0.1-0.3-0.2-0.7-0.2-1.1c0-0.4,0.1-0.7,0.2-1c0.1-0.3,0.3-0.6,0.5-0.9c0.3-0.3,0.6-0.5,0.9-0.6c0.4-0.2,0.9-0.2,1.6-0.2h2.3v9.1
			h-1.4v-3.6h-0.3l-2.5,3.6H636.1z M640.6,10.1h-0.7c-0.4,0-0.7,0-1,0.1c-0.2,0.1-0.4,0.2-0.6,0.3c-0.1,0.1-0.2,0.3-0.3,0.5
			c-0.1,0.2-0.1,0.4-0.1,0.6c0,0.2,0,0.4,0.1,0.6c0.1,0.2,0.2,0.3,0.4,0.5c0.1,0.1,0.3,0.2,0.6,0.2c0.2,0,0.5,0.1,0.8,0.1h0.8V10.1z
			"/>
		<path fill="#FFFFFF" d="M654.1,16.6v1.3h-6.6l3.4-4.1c0.3-0.4,0.6-0.7,0.7-0.9c0.2-0.2,0.3-0.4,0.4-0.6c0.2-0.3,0.3-0.5,0.4-0.7
			c0.1-0.2,0.1-0.4,0.1-0.7c0-0.4-0.1-0.8-0.4-1.1c-0.3-0.3-0.7-0.5-1.2-0.5c-0.5,0-0.9,0.2-1.2,0.5c-0.3,0.3-0.5,0.8-0.5,1.3h-1.5
			c0-0.4,0.1-0.8,0.2-1.2c0.1-0.4,0.3-0.7,0.6-1c0.3-0.3,0.6-0.6,1-0.7c0.4-0.2,0.8-0.3,1.3-0.3c1,0,1.7,0.3,2.3,0.9
			c0.6,0.6,0.8,1.3,0.8,2.1c0,0.3-0.1,0.7-0.2,1c-0.1,0.3-0.3,0.7-0.5,1.1c-0.1,0.2-0.3,0.4-0.4,0.6c-0.2,0.2-0.5,0.6-1,1.2
			l-1.6,1.8H654.1z"/>
		<path fill="#FFFFFF" d="M659.8,18.1c-0.4,0-0.8-0.1-1.2-0.3c-0.4-0.2-0.7-0.4-1-0.8c-0.4-0.5-0.8-1.1-1-1.7
			c-0.2-0.7-0.3-1.4-0.3-2.3c0-0.9,0.1-1.6,0.3-2.3c0.2-0.7,0.5-1.3,1-1.8c0.3-0.4,0.6-0.6,1-0.8c0.4-0.2,0.8-0.3,1.2-0.3
			c0.4,0,0.8,0.1,1.2,0.3c0.4,0.2,0.7,0.4,1,0.8c0.4,0.5,0.8,1.1,1,1.8c0.2,0.7,0.3,1.4,0.3,2.3c0,0.9-0.1,1.6-0.3,2.3
			c-0.2,0.7-0.5,1.2-1,1.7c-0.3,0.4-0.7,0.6-1,0.8C660.7,18,660.3,18.1,659.8,18.1z M659.8,9.3c-0.3,0-0.5,0.1-0.7,0.2
			c-0.2,0.1-0.4,0.3-0.6,0.6c-0.2,0.3-0.4,0.8-0.5,1.3c-0.1,0.5-0.2,1.1-0.2,1.7c0,0.6,0.1,1.2,0.2,1.7c0.1,0.5,0.3,0.9,0.5,1.3
			c0.2,0.3,0.4,0.5,0.6,0.6c0.2,0.1,0.5,0.2,0.7,0.2c0.3,0,0.5-0.1,0.7-0.2c0.2-0.1,0.4-0.3,0.6-0.6c0.2-0.3,0.4-0.8,0.5-1.3
			c0.1-0.5,0.2-1.1,0.2-1.7c0-0.6-0.1-1.2-0.2-1.7c-0.1-0.5-0.3-0.9-0.5-1.3c-0.2-0.3-0.4-0.5-0.6-0.6
			C660.3,9.3,660.1,9.3,659.8,9.3z"/>
		<path fill="#FFFFFF" d="M668,17.9V9.5h-1.7l0.8-1.4h2.4v9.8H668z"/>
		<path fill="#FFFFFF" d="M678.2,7.8l1.1,0.8l-2.3,3.2c0.1,0,0.2,0,0.2,0c0.1,0,0.2,0,0.2,0c0.9,0,1.6,0.3,2.1,0.9
			c0.5,0.6,0.8,1.3,0.8,2.2c0,1-0.3,1.7-0.9,2.4c-0.6,0.6-1.4,0.9-2.4,0.9c-1,0-1.7-0.3-2.4-0.9c-0.6-0.6-0.9-1.3-0.9-2.3
			c0-0.4,0.1-0.8,0.2-1.2c0.1-0.4,0.4-0.8,0.8-1.3L678.2,7.8z M677.1,13c-0.5,0-1,0.2-1.3,0.5c-0.3,0.3-0.5,0.8-0.5,1.3
			c0,0.5,0.2,1,0.5,1.3c0.3,0.3,0.8,0.5,1.3,0.5c0.5,0,1-0.2,1.3-0.5c0.3-0.3,0.5-0.8,0.5-1.3c0-0.6-0.2-1-0.5-1.3
			C678.1,13.2,677.6,13,677.1,13z"/>
	</g>
</g>
<g>
	<g>
		<path fill="#6B3422" d="M549.2,24.2v1.6c-0.3-0.3-0.7-0.6-1.1-0.8c-0.4-0.2-0.9-0.3-1.3-0.3c-1,0-1.8,0.3-2.4,1
			c-0.6,0.7-0.9,1.5-0.9,2.5c0,1,0.3,1.8,0.9,2.4s1.4,1,2.4,1c0.4,0,0.9-0.1,1.3-0.3c0.4-0.2,0.8-0.4,1.2-0.8v1.7
			c-0.4,0.3-0.8,0.4-1.2,0.5c-0.4,0.1-0.8,0.2-1.3,0.2c-0.7,0-1.3-0.1-1.8-0.3c-0.5-0.2-1-0.5-1.4-0.9c-0.5-0.4-0.8-0.9-1.1-1.5
			c-0.3-0.6-0.4-1.2-0.4-1.9c0-0.7,0.1-1.4,0.4-2c0.3-0.6,0.6-1.1,1.1-1.6c0.4-0.4,0.9-0.7,1.4-0.9c0.5-0.2,1.2-0.3,1.9-0.3
			c0.5,0,0.9,0.1,1.3,0.2C548.5,23.8,548.9,23.9,549.2,24.2z"/>
		<path fill="#6B3422" d="M550.4,23.7h2c0.5,0,0.8,0.1,1.1,0.1c0.3,0.1,0.6,0.2,0.8,0.4c0.4,0.3,0.7,0.6,0.8,1
			c0.2,0.4,0.3,0.8,0.3,1.3c0,0.4-0.1,0.8-0.2,1.1c-0.1,0.3-0.4,0.6-0.7,0.9c-0.3,0.3-0.6,0.4-1,0.6c-0.4,0.1-0.8,0.2-1.2,0.2h-0.6
			v3.7h-1.4V23.7z M551.8,25v2.8h0.6c0.6,0,1-0.1,1.3-0.4c0.3-0.2,0.4-0.6,0.4-1.1c0-0.5-0.2-0.8-0.5-1c-0.3-0.2-0.7-0.3-1.3-0.3
			H551.8z"/>
		<path fill="#6B3422" d="M561.5,23.7V25h-3.6v2.2h3.5v1.3h-3.5v3h3.6v1.3h-5v-9.1H561.5z"/>
		<path fill="#6B3422" d="M563.8,23.7h5.7v7.8h1v3.4h-1.3v-2.1h-5.9v2.1H562v-3.4c0.3,0,0.6-0.1,0.8-0.3c0.3-0.2,0.5-0.5,0.6-0.9
			c0.1-0.3,0.2-0.6,0.2-1c0.1-0.4,0.1-0.8,0.1-1.4V23.7z M565.2,25v2.9c0,0.5,0,1-0.1,1.4c-0.1,0.4-0.1,0.8-0.2,1.1
			c-0.1,0.2-0.2,0.4-0.3,0.6c-0.1,0.2-0.3,0.3-0.4,0.5h3.9V25H565.2z"/>
		<path fill="#6B3422" d="M572.7,23.7v3.6h3.9v-3.6h1.4v9.1h-1.4v-4.2h-3.9v4.2h-1.4v-9.1H572.7z"/>
		<path fill="#6B3422" d="M585.8,32.8v-6.1l-6.1,6.5v-9.5h1.4v6.1l6.1-6.5v9.5H585.8z"/>
		<path fill="#6B3422" d="M595,32.8v-6.1l-6.1,6.5v-9.5h1.4v6.1l6.1-6.5v9.5H595z M590.4,21.4l1.1-0.5c0.1,0.2,0.2,0.4,0.4,0.6
			c0.2,0.1,0.5,0.2,0.7,0.2c0.3,0,0.5-0.1,0.7-0.2c0.2-0.1,0.4-0.3,0.4-0.6l1.1,0.5c-0.2,0.4-0.5,0.8-0.9,1
			c-0.4,0.3-0.9,0.4-1.4,0.4c-0.5,0-1-0.1-1.4-0.4C590.9,22.2,590.6,21.9,590.4,21.4z"/>
		<path fill="#6B3422" d="M607.7,35.2l5.2-12.1l1.1,0.5l-5.2,12.1L607.7,35.2z"/>
		<path fill="#6B3422" d="M622.4,24.2v1.6c-0.3-0.3-0.7-0.6-1.1-0.8c-0.4-0.2-0.9-0.3-1.3-0.3c-1,0-1.8,0.3-2.4,1
			c-0.6,0.7-0.9,1.5-0.9,2.5c0,1,0.3,1.8,0.9,2.4c0.6,0.6,1.4,1,2.4,1c0.4,0,0.9-0.1,1.3-0.3c0.4-0.2,0.8-0.4,1.2-0.8v1.7
			c-0.4,0.3-0.8,0.4-1.2,0.5c-0.4,0.1-0.8,0.2-1.3,0.2c-0.7,0-1.3-0.1-1.8-0.3c-0.5-0.2-1-0.5-1.4-0.9c-0.5-0.4-0.8-0.9-1.1-1.5
			c-0.3-0.6-0.4-1.2-0.4-1.9c0-0.7,0.1-1.4,0.4-2c0.3-0.6,0.6-1.1,1.1-1.6c0.4-0.4,0.9-0.7,1.4-0.9c0.5-0.2,1.2-0.3,1.9-0.3
			c0.5,0,0.9,0.1,1.3,0.2C621.7,23.8,622,23.9,622.4,24.2z"/>
		<path fill="#6B3422" d="M623.6,23.7h2c0.5,0,0.8,0.1,1.1,0.1c0.3,0.1,0.6,0.2,0.8,0.4c0.4,0.3,0.7,0.6,0.8,1
			c0.2,0.4,0.3,0.8,0.3,1.3c0,0.4-0.1,0.8-0.2,1.1c-0.1,0.3-0.4,0.6-0.7,0.9c-0.3,0.3-0.6,0.4-1,0.6c-0.4,0.1-0.8,0.2-1.2,0.2H625
			v3.7h-1.4V23.7z M625,25v2.8h0.6c0.6,0,1-0.1,1.3-0.4c0.3-0.2,0.4-0.6,0.4-1.1c0-0.5-0.2-0.8-0.5-1c-0.3-0.2-0.7-0.3-1.3-0.3H625z
			"/>
		<path fill="#6B3422" d="M634.7,23.7V25h-3.6v2.2h3.5v1.3h-3.5v3h3.6v1.3h-5v-9.1H634.7z"/>
		<path fill="#6B3422" d="M637,23.7h5.7v7.8h1v3.4h-1.3v-2.1h-5.9v2.1h-1.3v-3.4c0.3,0,0.6-0.1,0.8-0.3c0.3-0.2,0.5-0.5,0.6-0.9
			c0.1-0.3,0.2-0.6,0.2-1c0.1-0.4,0.1-0.8,0.1-1.4V23.7z M638.4,25v2.9c0,0.5,0,1-0.1,1.4c-0.1,0.4-0.1,0.8-0.2,1.1
			c-0.1,0.2-0.2,0.4-0.3,0.6c-0.1,0.2-0.3,0.3-0.4,0.5h3.9V25H638.4z"/>
		<path fill="#6B3422" d="M645.9,23.7v3.6h3.9v-3.6h1.4v9.1h-1.4v-4.2h-3.9v4.2h-1.4v-9.1H645.9z"/>
		<path fill="#6B3422" d="M659,32.8v-6.1l-6.1,6.5v-9.5h1.4v6.1l6.1-6.5v9.5H659z"/>
		<path fill="#6B3422" d="M668.2,32.8v-6.1l-6.1,6.5v-9.5h1.4v6.1l6.1-6.5v9.5H668.2z M663.6,21.4l1.1-0.5c0.1,0.2,0.2,0.4,0.4,0.6
			c0.2,0.1,0.5,0.2,0.7,0.2c0.3,0,0.5-0.1,0.7-0.2c0.2-0.1,0.4-0.3,0.4-0.6l1.1,0.5c-0.2,0.4-0.5,0.8-0.9,1
			c-0.4,0.3-0.9,0.4-1.4,0.4c-0.5,0-1-0.1-1.4-0.4C664.1,22.2,663.8,21.9,663.6,21.4z"/>
		<path fill="#6B3422" d="M589.3,39.2v1.6c-0.3-0.3-0.7-0.6-1.1-0.8c-0.4-0.2-0.9-0.3-1.3-0.3c-1,0-1.8,0.3-2.4,1
			c-0.6,0.7-0.9,1.5-0.9,2.5c0,1,0.3,1.8,0.9,2.4c0.6,0.6,1.4,1,2.4,1c0.4,0,0.9-0.1,1.3-0.3c0.4-0.2,0.8-0.4,1.2-0.8v1.7
			c-0.4,0.3-0.8,0.4-1.2,0.5c-0.4,0.1-0.8,0.2-1.3,0.2c-0.7,0-1.3-0.1-1.8-0.3c-0.5-0.2-1-0.5-1.4-0.9c-0.5-0.4-0.8-0.9-1.1-1.5
			c-0.3-0.6-0.4-1.2-0.4-1.9c0-0.7,0.1-1.4,0.4-2c0.3-0.6,0.6-1.1,1.1-1.6c0.4-0.4,0.9-0.7,1.4-0.9c0.5-0.2,1.2-0.3,1.9-0.3
			c0.5,0,0.9,0.1,1.3,0.2C588.6,38.8,588.9,38.9,589.3,39.2z"/>
		<path fill="#6B3422" d="M591.1,38.7h2c0.5,0,0.8,0.1,1.1,0.1c0.3,0.1,0.6,0.2,0.8,0.4c0.4,0.3,0.7,0.6,0.8,1
			c0.2,0.4,0.3,0.8,0.3,1.3c0,0.4-0.1,0.8-0.2,1.1c-0.1,0.3-0.4,0.6-0.7,0.9c-0.3,0.3-0.6,0.4-1,0.6c-0.4,0.1-0.8,0.2-1.2,0.2h-0.6
			v3.7h-1.4V38.7z M592.5,40v2.8h0.6c0.6,0,1-0.1,1.3-0.4c0.3-0.2,0.4-0.6,0.4-1.1c0-0.5-0.2-0.8-0.5-1c-0.3-0.2-0.7-0.3-1.3-0.3
			H592.5z"/>
		<path fill="#6B3422" d="M602.8,38.7V40h-3.6v2.2h3.5v1.3h-3.5v3h3.6v1.3h-5v-9.1H602.8z"/>
		<path fill="#6B3422" d="M605.6,38.7h5.7v7.8h1v3.4h-1.3v-2.1h-5.9v2.1h-1.3v-3.4c0.3,0,0.6-0.1,0.8-0.3c0.3-0.2,0.5-0.5,0.6-0.9
			c0.1-0.3,0.2-0.6,0.2-1c0.1-0.4,0.1-0.8,0.1-1.4V38.7z M607,40v2.9c0,0.5,0,1-0.1,1.4c-0.1,0.4-0.1,0.8-0.2,1.1
			c-0.1,0.2-0.2,0.4-0.3,0.6c-0.1,0.2-0.3,0.3-0.4,0.5h3.9V40H607z"/>
		<path fill="#6B3422" d="M615.2,38.7v3.6h3.9v-3.6h1.4v9.1h-1.4v-4.2h-3.9v4.2h-1.4v-9.1H615.2z"/>
		<path fill="#6B3422" d="M628.9,47.8v-6.1l-6.1,6.5v-9.5h1.4v6.1l6.1-6.5v9.5H628.9z"/>
		<path fill="#6B3422" d="M638.7,47.8v-6.1l-6.1,6.5v-9.5h1.4v6.1l6.1-6.5v9.5H638.7z M634.1,36.4l1.1-0.5c0.1,0.2,0.2,0.4,0.4,0.6
			c0.2,0.1,0.5,0.2,0.7,0.2c0.3,0,0.5-0.1,0.7-0.2c0.2-0.1,0.4-0.3,0.4-0.6l1.1,0.5c-0.2,0.4-0.5,0.8-0.9,1
			c-0.4,0.3-0.9,0.4-1.4,0.4c-0.5,0-1-0.1-1.4-0.4C634.5,37.2,634.3,36.9,634.1,36.4z"/>
		<path fill="#6B3422" d="M542.8,62.8v-9.1h1.4v7.8h3.7v-7.8h1.4v7.8h1.2v3.4h-1.3v-2.1H542.8z"/>
		<path fill="#6B3422" d="M558.2,53.7V55h-3.6v2.2h3.5v1.3h-3.5v3h3.6v1.3h-5v-9.1H558.2z"/>
		<path fill="#6B3422" d="M562.7,53.7v3.6h3.9v-3.6h1.4v9.1h-1.4v-4.2h-3.9v4.2h-1.4v-9.1H562.7z"/>
		<path fill="#6B3422" d="M575.8,53.5c1.4,0,2.5,0.5,3.4,1.4c0.9,0.9,1.4,2,1.4,3.4c0,1.3-0.5,2.5-1.4,3.4c-0.9,0.9-2,1.4-3.4,1.4
			c-1.4,0-2.5-0.5-3.4-1.4c-0.9-0.9-1.3-2-1.3-3.4c0-1.3,0.4-2.5,1.3-3.4C573.3,54,574.4,53.5,575.8,53.5z M575.8,61.7
			c1,0,1.7-0.3,2.4-1c0.6-0.6,0.9-1.5,0.9-2.5c0-1-0.3-1.8-0.9-2.5c-0.6-0.6-1.4-1-2.4-1c-1,0-1.7,0.3-2.4,1
			c-0.6,0.6-0.9,1.5-0.9,2.5c0,1,0.3,1.8,0.9,2.5C574.1,61.3,574.8,61.7,575.8,61.7z"/>
		<path fill="#6B3422" d="M583.6,53.7h1.4c0.7,0,1.1,0.1,1.4,0.1c0.3,0.1,0.6,0.2,0.8,0.4c0.3,0.2,0.6,0.5,0.8,0.9
			c0.2,0.3,0.3,0.7,0.3,1.2c0,0.4-0.1,0.7-0.2,0.9c-0.1,0.3-0.3,0.5-0.6,0.7c0.5,0.2,0.9,0.4,1.2,0.8c0.3,0.4,0.4,0.9,0.4,1.4
			c0,0.4-0.1,0.8-0.2,1.1c-0.2,0.4-0.4,0.7-0.7,0.9c-0.3,0.2-0.6,0.4-0.9,0.5c-0.3,0.1-0.9,0.2-1.5,0.2h-2.1V53.7z M585,55v2.6h0.4
			c0.5,0,0.9-0.1,1.1-0.3c0.2-0.2,0.4-0.6,0.4-1c0-0.4-0.1-0.7-0.4-0.9c-0.2-0.2-0.6-0.3-1.1-0.3H585z M585,58.7v2.7h0.8
			c0.6,0,1.1-0.1,1.4-0.4c0.3-0.2,0.4-0.6,0.4-1c0-0.4-0.1-0.8-0.4-1c-0.3-0.2-0.7-0.4-1.3-0.4H585z"/>
		<path fill="#6B3422" d="M596.4,53.5c1.4,0,2.5,0.5,3.4,1.4c0.9,0.9,1.4,2,1.4,3.4c0,1.3-0.5,2.5-1.4,3.4c-0.9,0.9-2,1.4-3.4,1.4
			c-1.4,0-2.5-0.5-3.4-1.4c-0.9-0.9-1.3-2-1.3-3.4c0-1.3,0.4-2.5,1.3-3.4C593.9,54,595.1,53.5,596.4,53.5z M596.4,61.7
			c1,0,1.7-0.3,2.4-1c0.6-0.6,0.9-1.5,0.9-2.5c0-1-0.3-1.8-0.9-2.5c-0.6-0.6-1.4-1-2.4-1c-1,0-1.7,0.3-2.4,1
			c-0.6,0.6-0.9,1.5-0.9,2.5c0,1,0.3,1.8,0.9,2.5C594.7,61.3,595.5,61.7,596.4,61.7z"/>
		<path fill="#6B3422" d="M610.4,62.8v-6.1l-6.1,6.5v-9.5h1.4v6.1l6.1-6.5v9.5H610.4z M605.7,51.4l1.1-0.5c0.1,0.2,0.2,0.4,0.4,0.6
			c0.2,0.1,0.5,0.2,0.7,0.2c0.3,0,0.5-0.1,0.7-0.2c0.2-0.1,0.4-0.3,0.4-0.6l1.1,0.5c-0.2,0.4-0.5,0.8-0.9,1
			c-0.4,0.3-0.9,0.4-1.4,0.4c-0.5,0-1-0.1-1.4-0.4C606.2,52.2,605.9,51.9,605.7,51.4z"/>
		<path fill="#6B3422" d="M626.4,54.2v1.6c-0.3-0.3-0.7-0.6-1.1-0.8c-0.4-0.2-0.9-0.3-1.3-0.3c-1,0-1.8,0.3-2.4,1
			c-0.6,0.7-0.9,1.5-0.9,2.5c0,1,0.3,1.8,0.9,2.4c0.6,0.6,1.4,1,2.4,1c0.4,0,0.9-0.1,1.3-0.3c0.4-0.2,0.8-0.4,1.2-0.8v1.7
			c-0.4,0.3-0.8,0.4-1.2,0.5c-0.4,0.1-0.8,0.2-1.3,0.2c-0.7,0-1.3-0.1-1.8-0.3c-0.5-0.2-1-0.5-1.4-0.9c-0.5-0.4-0.8-0.9-1.1-1.5
			c-0.3-0.6-0.4-1.2-0.4-1.9c0-0.7,0.1-1.4,0.4-2c0.3-0.6,0.6-1.1,1.1-1.6c0.4-0.4,0.9-0.7,1.4-0.9c0.5-0.2,1.2-0.3,1.9-0.3
			c0.5,0,0.9,0.1,1.3,0.2C625.7,53.8,626.1,53.9,626.4,54.2z"/>
		<path fill="#6B3422" d="M634.5,53.7V55h-3.6v2.2h3.5v1.3h-3.5v3h3.6v1.3h-5v-9.1H634.5z"/>
		<path fill="#6B3422" d="M642.2,53.7V55H639v7.8h-1.4v-9.1H642.2z"/>
		<path fill="#6B3422" d="M646,62.8h-1.4l1.9-9.8l3.2,7l3.2-7l1.7,9.8h-1.4l-0.9-5.5l-2.7,5.9l-2.6-5.9L646,62.8z"/>
		<path fill="#6B3422" d="M662.8,53.7V55h-3.6v2.2h3.5v1.3h-3.5v3h3.6v1.3h-5v-9.1H662.8z"/>
		<path fill="#6B3422" d="M667.3,53.7v3.6h3.9v-3.6h1.4v9.1h-1.4v-4.2h-3.9v4.2h-1.4v-9.1H667.3z"/>
		<path fill="#6B3422" d="M680.7,55h-2.1v7.8h-1.4V55h-2.1v-1.3h5.6V55z"/>
	</g>
</g>
<rect x="598.8" y="26.6" fill="#6B3422" width="8.8" height="2.8"/>
<rect x="671.6" y="26.6" fill="#6B3422" width="8.8" height="2.8"/>
<rect x="674.6" y="23.6" fill="#6B3422" width="2.8" height="8.8"/>
</svg>
