<?xml version="1.0" encoding="utf-8"?>
<!-- Generator: Adobe Illustrator 17.1.0, SVG Export Plug-In . SVG Version: 6.00 Build 0)  -->
<!DOCTYPE svg PUBLIC "-//W3C//DTD SVG 1.1//EN" "http://www.w3.org/Graphics/SVG/1.1/DTD/svg11.dtd">
<svg version="1.1"
	 id="svg4235" xmlns:dc="http://purl.org/dc/elements/1.1/" xmlns:cc="http://creativecommons.org/ns#" xmlns:rdf="http://www.w3.org/1999/02/22-rdf-syntax-ns#" xmlns:svg="http://www.w3.org/2000/svg" xmlns:sodipodi="http://sodipodi.sourceforge.net/DTD/sodipodi-0.dtd" xmlns:inkscape="http://www.inkscape.org/namespaces/inkscape" sodipodi:docname="logo.svg" inkscape:version="0.91 r13725"
	 xmlns="http://www.w3.org/2000/svg" xmlns:xlink="http://www.w3.org/1999/xlink" x="0px" y="0px" viewBox="0 0 176 21"
	 enable-background="new 0 0 176 21" xml:space="preserve">
<sodipodi:namedview  units="px" showborder="false" showgrid="false" inkscape:cy="7.8205144" inkscape:cx="155.07989" inkscape:zoom="8" borderopacity="0" bordercolor="#666666" pagecolor="#ffffff" id="base" inkscape:window-maximized="1" inkscape:window-y="-8" inkscape:current-layer="layer2" inkscape:pageshadow="2" inkscape:document-units="px" inkscape:pageopacity="0" inkscape:window-height="706" inkscape:window-x="-8" inkscape:window-width="1366">
	</sodipodi:namedview>
<g id="layer1" transform="translate(0,-1031.3622)" inkscape:label="Layer 1" inkscape:groupmode="layer">
	<g id="g4853" transform="translate(-360.50772,557.20573)">
		<path id="path66" inkscape:connector-curvature="0" fill="#FFFFFF" d="M516.4,484.9h19.9v-0.8h-19.9V484.9z"/>
	</g>
</g>
<g id="layer2" inkscape:label="Layer 2" inkscape:groupmode="layer">
	<g id="text6488">
		<path id="path5557" fill="#FFFFFF" d="M160.6,20.3h-4.7l2.4-2.9c0.1-0.2,0.3-0.4,0.4-0.5c0.1-0.2,0.3-0.4,0.4-0.6
			c0.1-0.1,0.1-0.2,0.2-0.4c0.1-0.2,0.1-0.4,0.1-0.6c0-0.1,0-0.3-0.1-0.4c0-0.1-0.1-0.3-0.2-0.4c-0.1-0.1-0.2-0.2-0.4-0.3
			c-0.1-0.1-0.3-0.1-0.5-0.1c-0.2,0-0.3,0-0.5,0.1c-0.1,0.1-0.3,0.1-0.4,0.3c-0.1,0.1-0.2,0.2-0.3,0.4c-0.1,0.2-0.1,0.3-0.1,0.5h-1
			c0-0.3,0.1-0.6,0.2-0.8c0.1-0.3,0.2-0.5,0.4-0.7c0.2-0.2,0.4-0.4,0.7-0.5c0.3-0.1,0.6-0.2,1-0.2c0.4,0,0.7,0.1,1,0.2
			c0.3,0.1,0.5,0.3,0.7,0.5c0.2,0.2,0.3,0.4,0.4,0.7s0.1,0.5,0.1,0.8c0,0.3,0,0.5-0.1,0.8c-0.1,0.2-0.2,0.5-0.4,0.7
			c-0.1,0.2-0.3,0.4-0.4,0.6c-0.2,0.2-0.3,0.4-0.6,0.7l-1.1,1.3h2.6L160.6,20.3L160.6,20.3z"/>
		<path id="path5559" fill="#FFFFFF" d="M163.7,14.1c-0.2,0-0.4,0.1-0.6,0.2c-0.1,0.1-0.3,0.2-0.4,0.4c-0.1,0.2-0.2,0.4-0.3,0.6
			c-0.1,0.2-0.1,0.4-0.1,0.6c0,0.2-0.1,0.4-0.1,0.5c0,0.2,0,0.3,0,0.4c0,0.1,0,0.3,0,0.4c0,0.2,0,0.3,0.1,0.5c0,0.2,0.1,0.4,0.1,0.6
			c0.1,0.2,0.2,0.4,0.3,0.5c0.1,0.2,0.2,0.3,0.4,0.4c0.2,0.1,0.3,0.2,0.6,0.2c0.2,0,0.4-0.1,0.5-0.2c0.2-0.1,0.3-0.2,0.4-0.4
			c0.1-0.2,0.2-0.4,0.3-0.5c0.1-0.2,0.1-0.4,0.1-0.6c0-0.2,0.1-0.4,0.1-0.5c0-0.2,0-0.3,0-0.4c0-0.1,0-0.3,0-0.4
			c0-0.2,0-0.4-0.1-0.5c0-0.2-0.1-0.4-0.1-0.6c-0.1-0.2-0.1-0.4-0.3-0.6c-0.1-0.2-0.2-0.3-0.4-0.4C164.1,14.2,163.9,14.1,163.7,14.1
			z M163.7,20.5c-0.3,0-0.6-0.1-0.9-0.2s-0.5-0.3-0.7-0.6c-0.2-0.2-0.3-0.4-0.5-0.7c-0.1-0.2-0.2-0.5-0.3-0.7
			c-0.1-0.2-0.1-0.5-0.1-0.7c0-0.3,0-0.5,0-0.7s0-0.5,0-0.7c0-0.3,0.1-0.5,0.1-0.8c0.1-0.3,0.2-0.5,0.3-0.7c0.1-0.2,0.3-0.5,0.5-0.7
			c0.4-0.5,1-0.8,1.6-0.8c0.6,0,1.1,0.3,1.6,0.8c0.2,0.2,0.3,0.4,0.5,0.7s0.2,0.5,0.3,0.7c0.1,0.2,0.1,0.5,0.1,0.8
			c0,0.2,0,0.5,0,0.7c0,0.2,0,0.5,0,0.7c0,0.2-0.1,0.5-0.1,0.7c-0.1,0.2-0.2,0.5-0.3,0.7c-0.1,0.2-0.3,0.5-0.5,0.7
			c-0.2,0.3-0.5,0.4-0.7,0.6S164,20.5,163.7,20.5z"/>
		<path id="path5561" fill="#FFFFFF" d="M168,14.3h-1.2l0.6-1h1.7v7H168C168,20.3,168,14.3,168,14.3z"/>
		<path id="path5563" fill="#FFFFFF" d="M172.9,16.8c-0.4,0-0.7,0.1-0.9,0.4c-0.2,0.2-0.4,0.6-0.4,1c0,0.2,0,0.4,0.1,0.5
			c0.1,0.2,0.2,0.3,0.3,0.4c0.1,0.1,0.2,0.2,0.4,0.3c0.2,0.1,0.3,0.1,0.5,0.1c0.2,0,0.4,0,0.5-0.1c0.2-0.1,0.3-0.2,0.4-0.3
			c0.1-0.1,0.2-0.3,0.3-0.4c0.1-0.2,0.1-0.3,0.1-0.5c0-0.4-0.1-0.7-0.4-1C173.6,17,173.3,16.8,172.9,16.8z M174.5,13.7l-1.7,2.3
			c0.1,0,0.2,0,0.4,0c0.2,0,0.5,0,0.8,0.1c0.3,0.1,0.5,0.2,0.7,0.4c0.2,0.2,0.4,0.4,0.5,0.7c0.1,0.3,0.2,0.6,0.2,1
			c0,0.3-0.1,0.6-0.2,0.9c-0.1,0.3-0.3,0.5-0.5,0.8c-0.2,0.2-0.4,0.4-0.7,0.5c-0.3,0.1-0.6,0.2-1,0.2c-0.3,0-0.6-0.1-0.9-0.2
			c-0.3-0.1-0.5-0.3-0.8-0.5c-0.2-0.2-0.4-0.4-0.5-0.7c-0.1-0.3-0.2-0.6-0.2-0.9c0-0.3,0.1-0.6,0.2-0.9c0.1-0.3,0.3-0.6,0.5-0.9
			l2.4-3.3L174.5,13.7L174.5,13.7z"/>
	</g>
	<g id="text7295">
		<path id="path5552" fill="#FFFFFF" d="M163.3,1.7c-0.2,0-0.4,0.1-0.6,0.2c-0.1,0.1-0.3,0.2-0.4,0.4c-0.1,0.2-0.2,0.4-0.3,0.5
			C162,3,162,3.2,162,3.4c0,0.2-0.1,0.4-0.1,0.5c0,0.2,0,0.3,0,0.4c0,0.1,0,0.3,0,0.4c0,0.2,0,0.3,0.1,0.5c0,0.2,0.1,0.4,0.1,0.6
			c0.1,0.2,0.2,0.4,0.3,0.6c0.1,0.2,0.2,0.3,0.4,0.4c0.2,0.1,0.3,0.2,0.6,0.2c0.2,0,0.4-0.1,0.5-0.2c0.2-0.1,0.3-0.2,0.4-0.4
			c0.1-0.2,0.2-0.4,0.3-0.6c0.1-0.2,0.1-0.4,0.1-0.6c0-0.2,0.1-0.4,0.1-0.5c0-0.2,0-0.3,0-0.4c0-0.1,0-0.3,0-0.4
			c0-0.2,0-0.4-0.1-0.5c0-0.2-0.1-0.4-0.1-0.6c-0.1-0.2-0.1-0.4-0.3-0.5c-0.1-0.2-0.2-0.3-0.4-0.4C163.7,1.7,163.5,1.7,163.3,1.7z
			 M163.3,8c-0.3,0-0.6-0.1-0.9-0.2c-0.3-0.1-0.5-0.3-0.7-0.6c-0.2-0.2-0.3-0.4-0.5-0.7c-0.1-0.2-0.2-0.5-0.3-0.7
			c-0.1-0.2-0.1-0.5-0.1-0.7c0-0.3,0-0.5,0-0.7c0-0.2,0-0.5,0-0.7c0-0.3,0.1-0.5,0.1-0.8c0.1-0.3,0.2-0.5,0.3-0.7
			c0.1-0.2,0.3-0.5,0.5-0.7c0.4-0.5,1-0.8,1.6-0.8c0.6,0,1.1,0.3,1.6,0.8c0.2,0.2,0.3,0.4,0.5,0.7c0.1,0.2,0.2,0.5,0.3,0.7
			c0.1,0.2,0.1,0.5,0.1,0.8c0,0.2,0,0.5,0,0.7c0,0.2,0,0.5,0,0.7c0,0.2-0.1,0.5-0.1,0.7c-0.1,0.2-0.2,0.5-0.3,0.7s-0.3,0.5-0.5,0.7
			c-0.2,0.3-0.5,0.4-0.7,0.6S163.6,8,163.3,8z"/>
		<path id="path5554" fill="#FFFFFF" d="M171.3,7.8h-4.7l2.4-2.9c0.1-0.2,0.3-0.3,0.4-0.5c0.1-0.2,0.3-0.4,0.4-0.6
			c0.1-0.1,0.1-0.2,0.2-0.4c0.1-0.2,0.1-0.4,0.1-0.6c0-0.1,0-0.3-0.1-0.4c0-0.1-0.1-0.3-0.2-0.4c-0.1-0.1-0.2-0.2-0.4-0.3
			c-0.1-0.1-0.3-0.1-0.5-0.1c-0.2,0-0.3,0-0.5,0.1s-0.3,0.1-0.4,0.3c-0.1,0.1-0.2,0.2-0.3,0.4c-0.1,0.2-0.1,0.3-0.1,0.5h-1
			c0-0.3,0.1-0.6,0.2-0.8c0.1-0.3,0.2-0.5,0.4-0.7c0.2-0.2,0.4-0.4,0.7-0.5c0.3-0.1,0.6-0.2,1-0.2c0.4,0,0.7,0.1,1,0.2
			c0.3,0.1,0.5,0.3,0.7,0.5s0.3,0.4,0.4,0.7c0.1,0.3,0.1,0.5,0.1,0.8c0,0.3,0,0.5-0.1,0.8c-0.1,0.2-0.2,0.5-0.4,0.7
			c-0.1,0.2-0.3,0.4-0.4,0.6c-0.2,0.2-0.3,0.4-0.6,0.7l-1.1,1.3h2.6L171.3,7.8L171.3,7.8z"/>
	</g>
</g>
<path fill="#E2AF77" d="M0.3,0.9h1.4v7.9h2.6v1.3h-4V0.9L0.3,0.9z M5.5,0.9h1.4v9.2H5.5V0.9L5.5,0.9z M10.3,10.1H8.9V0.3l6.5,6.9
	V0.9h1.4v9.7l-6.5-6.9V10.1L10.3,10.1z M23.5,6.6V5.3h3.7v0.3c0,0.7-0.1,1.2-0.2,1.7c-0.1,0.5-0.3,0.9-0.6,1.2
	c-0.4,0.6-0.9,1-1.5,1.3c-0.6,0.3-1.2,0.4-1.9,0.4c-0.6,0-1.2-0.1-1.7-0.3c-0.5-0.2-1-0.6-1.5-1c-0.5-0.5-0.8-1-1-1.6
	c-0.2-0.6-0.3-1.2-0.3-1.8c0-0.6,0.1-1.2,0.3-1.8c0.2-0.6,0.5-1.1,1-1.6c0.4-0.5,0.9-0.8,1.5-1c0.6-0.2,1.2-0.4,1.9-0.4
	c0.5,0,1,0.1,1.4,0.2c0.5,0.1,0.9,0.4,1.3,0.7c0.2,0.1,0.4,0.3,0.5,0.5c0.2,0.2,0.3,0.3,0.5,0.5l-1,0.9c-0.3-0.5-0.7-0.8-1.2-1.1
	c-0.5-0.3-1-0.4-1.6-0.4c-0.9,0-1.7,0.3-2.3,1c-0.6,0.7-0.9,1.5-0.9,2.5c0,1,0.3,1.8,0.9,2.5c0.6,0.6,1.4,1,2.3,1
	c0.7,0,1.3-0.2,1.8-0.7c0.5-0.4,0.8-1,0.9-1.7H23.5L23.5,6.6z M33.7,0.9v1.3h-3.5v2.2h3.4v1.3h-3.4v3h3.5v1.3h-4.9V0.9H33.7
	L33.7,0.9z M35.4,0.9H37c0.6,0,1.1,0.1,1.4,0.1c0.4,0.1,0.7,0.2,0.9,0.4C39.7,1.7,40,2,40.1,2.4c0.2,0.4,0.3,0.8,0.3,1.2
	c0,0.7-0.2,1.2-0.5,1.7c-0.4,0.5-0.8,0.8-1.4,0.9l2.8,3.9h-1.7L37,6.3h-0.2v3.8h-1.4V0.9L35.4,0.9z M36.8,2.2v2.9h0.4
	c0.6,0,1.1-0.1,1.4-0.4C38.9,4.5,39,4.1,39,3.6c0-0.5-0.1-0.8-0.4-1c-0.3-0.2-0.7-0.3-1.4-0.4H36.8L36.8,2.2z M42.5,0.9h1.4v9.2
	h-1.4V0.9L42.5,0.9z M50.8,0.9v1.3h-3.5v2.2h3.4v1.3h-3.4v3h3.5v1.3h-4.9V0.9H50.8L50.8,0.9z M60.5,2.3L59.4,3
	c-0.1-0.1-0.1-0.2-0.2-0.3c-0.1-0.1-0.1-0.2-0.2-0.3c-0.1-0.1-0.3-0.2-0.4-0.2c-0.1-0.1-0.3-0.1-0.5-0.1c-0.4,0-0.7,0.1-0.9,0.3
	c-0.2,0.2-0.4,0.5-0.4,0.8c0,0.2,0.1,0.5,0.2,0.6c0.1,0.2,0.4,0.3,0.7,0.5l0.9,0.4c0.7,0.3,1.3,0.7,1.6,1.1c0.3,0.4,0.5,1,0.5,1.6
	c0,0.9-0.3,1.6-0.8,2.1c-0.5,0.5-1.2,0.8-2.1,0.8c-0.4,0-0.8-0.1-1.2-0.2c-0.3-0.1-0.7-0.4-0.9-0.7c-0.2-0.2-0.4-0.5-0.5-0.8
	c-0.1-0.3-0.2-0.6-0.2-1l1.4-0.3c0,0.2,0,0.4,0.1,0.6c0.1,0.2,0.2,0.4,0.3,0.5c0.1,0.2,0.3,0.3,0.5,0.4C57.4,8.9,57.6,9,57.9,9
	c0.4,0,0.8-0.1,1.1-0.4c0.3-0.3,0.4-0.6,0.4-1.1c0-0.3-0.1-0.6-0.3-0.9c-0.2-0.2-0.5-0.5-1-0.7l-0.9-0.4c-0.6-0.3-1.1-0.6-1.4-1
	c-0.3-0.4-0.5-0.8-0.5-1.4c0-0.7,0.3-1.3,0.8-1.8C56.7,1,57.3,0.8,58,0.8c0.4,0,0.7,0.1,1,0.2c0.3,0.1,0.5,0.3,0.8,0.5
	c0.1,0.1,0.3,0.3,0.4,0.4C60.3,2,60.4,2.1,60.5,2.3L60.5,2.3z M63.7,0.9v3.6h3.8V0.9h1.4v9.2h-1.4V5.8h-3.8v4.3h-1.4V0.9H63.7
	L63.7,0.9z M75.2,0.8c1.3,0,2.4,0.5,3.3,1.4c0.9,0.9,1.3,2.1,1.3,3.4c0,1.4-0.5,2.5-1.3,3.4c-0.9,0.9-2,1.4-3.3,1.4
	c-1.3,0-2.4-0.5-3.3-1.4c-0.9-0.9-1.3-2-1.3-3.4c0-1.4,0.4-2.5,1.3-3.4C72.8,1.2,73.9,0.8,75.2,0.8L75.2,0.8z M75.2,9
	c0.9,0,1.7-0.3,2.3-1c0.6-0.6,0.9-1.5,0.9-2.5c0-1-0.3-1.8-0.9-2.5c-0.6-0.7-1.4-1-2.3-1c-0.9,0-1.7,0.3-2.3,1
	C72.3,3.7,72,4.5,72,5.5c0,1,0.3,1.8,0.9,2.5C73.5,8.7,74.3,9,75.2,9L75.2,9z M80.3,0.9h1.5l2.3,6.1l2.4-6.6L88.8,7l2.4-6.1h1.5
	l-4,9.7l-2.3-6.5l-2.4,6.5L80.3,0.9L80.3,0.9z M93.3,7.9V6.5h3.2v1.4H93.3L93.3,7.9z M102.5,0.9v1.3h-3.1v2.2h3v1.3h-3v4.3h-1.4V0.9
	H102.5L102.5,0.9z M108.2,0.8c1.3,0,2.4,0.5,3.3,1.4c0.9,0.9,1.3,2.1,1.3,3.4c0,1.4-0.5,2.5-1.3,3.4c-0.9,0.9-2,1.4-3.3,1.4
	c-1.3,0-2.4-0.5-3.3-1.4c-0.9-0.9-1.3-2-1.3-3.4c0-1.4,0.4-2.5,1.3-3.4C105.8,1.2,106.9,0.8,108.2,0.8L108.2,0.8z M108.2,9
	c0.9,0,1.7-0.3,2.3-1c0.6-0.6,0.9-1.5,0.9-2.5c0-1-0.3-1.8-0.9-2.5c-0.6-0.7-1.4-1-2.3-1c-0.9,0-1.7,0.3-2.3,1
	c-0.6,0.6-0.9,1.5-0.9,2.5c0,1,0.3,1.8,0.9,2.5C106.5,8.7,107.3,9,108.2,9L108.2,9z M114.5,0.9h1.6c0.6,0,1.1,0.1,1.4,0.1
	c0.4,0.1,0.7,0.2,0.9,0.4c0.3,0.2,0.6,0.6,0.8,0.9c0.2,0.4,0.3,0.8,0.3,1.2c0,0.7-0.2,1.2-0.6,1.7c-0.4,0.5-0.8,0.8-1.4,0.9l2.8,3.9
	h-1.7l-2.5-3.8h-0.2v3.8h-1.4V0.9L114.5,0.9z M115.9,2.2v2.9h0.4c0.6,0,1.1-0.1,1.4-0.4c0.3-0.3,0.5-0.6,0.5-1.1
	c0-0.5-0.1-0.8-0.4-1c-0.3-0.2-0.7-0.3-1.4-0.4H115.9L115.9,2.2z M121.6,0.9h1.4v5.5c0,0.4,0,0.7,0.1,1c0,0.2,0.1,0.4,0.2,0.6
	c0.2,0.3,0.4,0.5,0.7,0.7c0.3,0.2,0.6,0.2,1,0.2c0.4,0,0.7-0.1,1-0.2c0.3-0.2,0.5-0.4,0.7-0.7c0.1-0.2,0.2-0.4,0.2-0.6
	c0-0.2,0.1-0.6,0.1-1V0.9h1.4v5.9c0,0.5-0.1,0.9-0.2,1.3c-0.1,0.4-0.3,0.8-0.6,1.1c-0.3,0.3-0.7,0.6-1.1,0.8
	c-0.4,0.2-0.9,0.3-1.4,0.3c-0.5,0-1-0.1-1.4-0.3c-0.4-0.2-0.8-0.4-1.1-0.8c-0.3-0.3-0.5-0.7-0.6-1.1c-0.1-0.4-0.2-0.8-0.2-1.3V0.9
	L121.6,0.9z M131.4,10.1H130l1.9-9.8l3.1,7.1l3.1-7.1l1.7,9.8h-1.4l-0.9-5.5l-2.6,5.9l-2.6-6L131.4,10.1L131.4,10.1z"/>
<g>
	<path fill="#FFFFFF" d="M0.2,13h1.1v7.1H0.2V13z"/>
	<path fill="#FFFFFF" d="M4.1,20.1H3v-7.6l5.2,5.4V13h1.1v7.6l-5.2-5.4V20.1z"/>
	<path fill="#FFFFFF" d="M14.5,14h-1.6v6.1h-1.1V14h-1.6v-1h4.4V14z"/>
	<path fill="#FFFFFF" d="M19.4,13v1h-2.8v1.7h2.8v1h-2.8v2.4h2.8v1h-3.9V13H19.4z"/>
	<path fill="#FFFFFF" d="M20.7,13H22c0.5,0,0.9,0,1.1,0.1c0.3,0.1,0.5,0.2,0.7,0.3c0.3,0.2,0.5,0.4,0.6,0.7c0.1,0.3,0.2,0.6,0.2,0.9
		c0,0.5-0.1,0.9-0.4,1.3c-0.3,0.4-0.7,0.6-1.2,0.7l2.2,3H24l-2-2.9h-0.2v2.9h-1.1V13z M21.8,14v2.3h0.3c0.5,0,0.9-0.1,1.1-0.3
		c0.2-0.2,0.4-0.5,0.4-0.9c0-0.4-0.1-0.6-0.4-0.8C23,14.1,22.7,14,22.2,14H21.8z"/>
	<path fill="#FFFFFF" d="M27.5,20.1h-1.1v-7.6l5.2,5.4V13h1.1v7.6l-5.2-5.4V20.1z"/>
	<path fill="#FFFFFF" d="M39.2,20.1l-0.8-1.7h-3l-0.8,1.7h-1.2l3.5-7.5l3.4,7.5H39.2z M35.9,17.3H38l-1-2.4L35.9,17.3z"/>
	<path fill="#FFFFFF" d="M44.9,14h-1.6v6.1h-1.1V14h-1.6v-1h4.4V14z"/>
	<path fill="#FFFFFF" d="M45.8,13h1.1v7.1h-1.1V13z"/>
	<path fill="#FFFFFF" d="M51.9,12.8c1.1,0,1.9,0.4,2.6,1.1c0.7,0.7,1.1,1.6,1.1,2.6c0,1.1-0.4,1.9-1.1,2.6c-0.7,0.7-1.6,1.1-2.6,1.1
		c-1.1,0-2-0.4-2.7-1.1c-0.7-0.7-1.1-1.6-1.1-2.6c0-1.1,0.4-1.9,1.1-2.6C50,13.2,50.9,12.8,51.9,12.8z M51.9,19.2
		c0.7,0,1.4-0.2,1.8-0.7c0.5-0.5,0.7-1.1,0.7-1.9c0-0.8-0.2-1.4-0.7-1.9c-0.5-0.5-1.1-0.8-1.8-0.8c-0.8,0-1.4,0.3-1.8,0.8
		c-0.5,0.5-0.7,1.2-0.7,1.9c0,0.8,0.2,1.4,0.7,1.9C50.6,19,51.2,19.2,51.9,19.2z"/>
	<path fill="#FFFFFF" d="M58.1,20.1H57v-7.6l5.2,5.4V13h1.1v7.6l-5.2-5.4V20.1z"/>
	<path fill="#FFFFFF" d="M69.8,20.1l-0.8-1.7h-3l-0.8,1.7h-1.2l3.5-7.5l3.4,7.5H69.8z M66.5,17.3h2.1l-1-2.4L66.5,17.3z"/>
	<path fill="#FFFFFF" d="M71.9,13H73v6.1H75v1h-3.2V13z"/>
	<path fill="#FFFFFF" d="M82,14h-1.6v6.1h-1.1V14h-1.6v-1H82V14z"/>
	<path fill="#FFFFFF" d="M83,13h1.3c0.5,0,0.9,0,1.1,0.1c0.3,0.1,0.5,0.2,0.7,0.3c0.3,0.2,0.5,0.4,0.6,0.7c0.1,0.3,0.2,0.6,0.2,0.9
		c0,0.5-0.1,0.9-0.4,1.3c-0.3,0.4-0.7,0.6-1.2,0.7l2.2,3h-1.3l-2-2.9h-0.2v2.9H83V13z M84.1,14v2.3h0.3c0.5,0,0.9-0.1,1.1-0.3
		c0.2-0.2,0.4-0.5,0.4-0.9c0-0.4-0.1-0.6-0.4-0.8c-0.2-0.2-0.6-0.3-1.1-0.3H84.1z"/>
	<path fill="#FFFFFF" d="M93.6,20.1l-0.8-1.7h-3L89,20.1h-1.2l3.5-7.5l3.4,7.5H93.6z M90.3,17.3h2.1l-1-2.4L90.3,17.3z"/>
	<path fill="#FFFFFF" d="M95.6,13h1.5c0.6,0,1.2,0.1,1.5,0.2c0.4,0.1,0.8,0.3,1.1,0.5c0.4,0.3,0.8,0.7,1,1.2c0.2,0.5,0.4,1,0.4,1.7
		c0,0.6-0.1,1.1-0.4,1.6c-0.2,0.5-0.6,0.9-1.1,1.2c-0.4,0.3-0.7,0.4-1.1,0.5c-0.4,0.1-0.9,0.2-1.5,0.2h-1.5V13z M96.7,14v5.1h0.5
		c0.5,0,0.8,0,1.1-0.1c0.3-0.1,0.5-0.2,0.8-0.4c0.3-0.2,0.5-0.5,0.7-0.9c0.2-0.4,0.2-0.7,0.2-1.2c0-0.4-0.1-0.8-0.2-1.2
		c-0.2-0.4-0.4-0.7-0.7-0.9c-0.2-0.2-0.5-0.3-0.8-0.4C98,14,97.6,14,97.2,14H96.7z"/>
	<path fill="#FFFFFF" d="M106.4,13v1h-2.8v1.7h2.8v1h-2.8v2.4h2.8v1h-3.9V13H106.4z"/>
	<path fill="#FFFFFF" d="M114.1,14l-0.9,0.5c0-0.1-0.1-0.2-0.1-0.2c-0.1-0.1-0.1-0.1-0.2-0.2c-0.1-0.1-0.2-0.2-0.3-0.2
		c-0.1,0-0.2-0.1-0.4-0.1c-0.3,0-0.5,0.1-0.7,0.2c-0.2,0.2-0.3,0.4-0.3,0.6c0,0.2,0,0.4,0.2,0.5c0.1,0.1,0.3,0.3,0.6,0.4l0.7,0.3
		c0.6,0.2,1,0.5,1.3,0.9c0.3,0.3,0.4,0.8,0.4,1.2c0,0.7-0.2,1.2-0.7,1.6c-0.4,0.4-1,0.6-1.7,0.6c-0.4,0-0.7-0.1-0.9-0.2
		c-0.3-0.1-0.5-0.3-0.7-0.5c-0.2-0.2-0.3-0.4-0.4-0.6c-0.1-0.2-0.2-0.5-0.2-0.8l1.1-0.2c0,0.2,0,0.3,0.1,0.5
		c0.1,0.2,0.1,0.3,0.2,0.4c0.1,0.1,0.2,0.3,0.4,0.3c0.1,0.1,0.3,0.1,0.5,0.1c0.3,0,0.6-0.1,0.9-0.3c0.2-0.2,0.3-0.5,0.3-0.9
		c0-0.3-0.1-0.5-0.2-0.7c-0.2-0.2-0.4-0.4-0.8-0.5l-0.7-0.3c-0.5-0.2-0.9-0.5-1.1-0.7c-0.2-0.3-0.4-0.6-0.4-1.1c0-0.6,0.2-1,0.6-1.4
		c0.4-0.4,0.9-0.5,1.5-0.5c0.3,0,0.6,0,0.8,0.1c0.2,0.1,0.4,0.2,0.6,0.4c0.1,0.1,0.2,0.2,0.3,0.3C113.9,13.8,114,13.9,114.1,14z"/>
	<path fill="#FFFFFF" d="M116.7,13v2.8h3V13h1.1v7.1h-1.1v-3.3h-3v3.3h-1.1V13H116.7z"/>
	<path fill="#FFFFFF" d="M125.9,12.8c1.1,0,1.9,0.4,2.6,1.1c0.7,0.7,1.1,1.6,1.1,2.6c0,1.1-0.4,1.9-1.1,2.6
		c-0.7,0.7-1.6,1.1-2.6,1.1c-1.1,0-2-0.4-2.7-1.1c-0.7-0.7-1.1-1.6-1.1-2.6c0-1.1,0.4-1.9,1.1-2.6C123.9,13.2,124.8,12.8,125.9,12.8
		z M125.9,19.2c0.7,0,1.4-0.2,1.8-0.7c0.5-0.5,0.7-1.1,0.7-1.9c0-0.8-0.2-1.4-0.7-1.9c-0.5-0.5-1.1-0.8-1.8-0.8
		c-0.8,0-1.4,0.3-1.8,0.8c-0.5,0.5-0.7,1.2-0.7,1.9c0,0.8,0.2,1.4,0.7,1.9C124.5,19,125.1,19.2,125.9,19.2z"/>
	<path fill="#FFFFFF" d="M129.9,13h1.2l1.9,4.8l1.9-5.1l1.9,5.1l1.9-4.8h1.2l-3.2,7.6l-1.9-5l-1.9,5L129.9,13z"/>
</g>
</svg>
