<?xml version="1.0" encoding="UTF-8" standalone="no"?>
<!-- Created with Inkscape (http://www.inkscape.org/) -->

<svg
   xmlns:dc="http://purl.org/dc/elements/1.1/"
   xmlns:cc="http://creativecommons.org/ns#"
   xmlns:rdf="http://www.w3.org/1999/02/22-rdf-syntax-ns#"
   xmlns:svg="http://www.w3.org/2000/svg"
   xmlns="http://www.w3.org/2000/svg"
   xmlns:sodipodi="http://sodipodi.sourceforge.net/DTD/sodipodi-0.dtd"
   xmlns:inkscape="http://www.inkscape.org/namespaces/inkscape"
   width="176"
   height="21"
   viewBox="0 0 176 21"
   id="svg4235"
   version="1.1"
   inkscape:version="0.91 r13725"
   sodipodi:docname="logo.svg">
  <defs
     id="defs4237" />
  <sodipodi:namedview
     id="base"
     pagecolor="#ffffff"
     bordercolor="#666666"
     borderopacity="0"
     inkscape:pageopacity="0"
     inkscape:pageshadow="2"
     inkscape:zoom="8"
     inkscape:cx="155.07989"
     inkscape:cy="7.8205144"
     inkscape:document-units="px"
     inkscape:current-layer="layer2"
     showgrid="false"
     inkscape:window-width="1366"
     inkscape:window-height="706"
     inkscape:window-x="-8"
     inkscape:window-y="-8"
     inkscape:window-maximized="1"
     showborder="false"
     units="px" />
  <metadata
     id="metadata4240">
    <rdf:RDF>
      <cc:Work
         rdf:about="">
        <dc:format>image/svg+xml</dc:format>
        <dc:type
           rdf:resource="http://purl.org/dc/dcmitype/StillImage" />
        <dc:title />
      </cc:Work>
    </rdf:RDF>
  </metadata>
  <g
     inkscape:label="Layer 1"
     inkscape:groupmode="layer"
     id="layer1"
     transform="translate(0,-1031.3622)"
     style="display:inline">
    <g
       id="g4853"
       transform="translate(-360.50772,557.20573)">
      <path
         d="m 360.7881,475.09085 1.37988,0 0,7.8625 2.6065,0 0,1.31 -3.98638,0 0,-9.1725 z m 5.21238,0 1.37987,0 0,9.1725 -1.37987,0 0,-9.1725 z m 4.80375,9.1725 -1.37988,0 0,-9.775 6.46488,6.945 0,-6.3425 1.37987,0 0,9.72375 -6.46487,-6.945 0,6.39375 z m 13.15912,-3.45875 0,-1.31 3.67925,0 0,0.2875 c 0,0.6725 -0.0704,1.23625 -0.211,1.69125 -0.14062,0.45375 -0.33837,0.86875 -0.59412,1.245 -0.4,0.585 -0.88975,1.02 -1.46925,1.30375 -0.57913,0.28375 -1.209,0.425 -1.89063,0.425 -0.62162,0 -1.20075,-0.10375 -1.73737,-0.31375 -0.53663,-0.21 -1.03025,-0.55125 -1.48188,-1.0225 -0.47712,-0.48 -0.82187,-1.00875 -1.03475,-1.585 -0.21337,-0.5775 -0.31925,-1.18875 -0.31925,-1.835 0,-0.62875 0.104,-1.23375 0.3125,-1.815 0.209,-0.58125 0.53075,-1.1025 0.96475,-1.56625 0.43463,-0.4625 0.939,-0.8125 1.51375,-1.0475 0.57513,-0.23625 1.19475,-0.35375 1.85888,-0.35375 0.48537,0 0.9565,0.0713 1.41212,0.21625 0.4555,0.14375 0.892,0.36375 1.309,0.66125 0.19638,0.14875 0.37313,0.30375 0.53038,0.465 0.15762,0.16125 0.309,0.33875 0.45362,0.53125 l -0.97075,0.9425 c -0.3155,-0.4625 -0.707,-0.83 -1.17525,-1.1 -0.46875,-0.27 -0.98837,-0.40625 -1.55912,-0.40625 -0.94538,0 -1.71825,0.33 -2.31888,0.98875 -0.60062,0.66 -0.90037,1.4875 -0.90037,2.48375 -0.009,1.005 0.29787,1.83 0.91987,2.47625 0.62163,0.64625 1.3755,0.97 2.26125,0.97 0.69,0 1.27738,-0.21875 1.76325,-0.655 0.48525,-0.4375 0.7875,-0.99625 0.90675,-1.6775 l -2.22275,0 z m 10.24563,-5.71375 0,1.31125 -3.55175,0 0,2.20125 3.44925,0 0,1.31 -3.44925,0 0,3.04 3.55175,0 0,1.31 -4.93163,0 0,-9.1725 4.93163,0 z m 1.6865,0 1.59675,0 c 0.59662,0.009 1.07125,0.055 1.42425,0.13875 0.354,0.0825 0.667,0.21625 0.9395,0.4 0.34912,0.24375 0.61137,0.56 0.78562,0.94875 0.17438,0.38875 0.26613,0.79375 0.27438,1.2125 0,0.655 -0.183,1.2125 -0.54875,1.67125 -0.36625,0.4575 -0.84763,0.7525 -1.44388,0.88375 l 2.79788,3.9175 -1.66313,0 -2.542,-3.76 -0.24112,0 0,3.76 -1.3795,0 0,-9.1725 z m 1.3795,1.31125 0,2.895 0.42187,0 c 0.6215,0 1.08388,-0.1325 1.38613,-0.39875 0.30225,-0.2675 0.45362,-0.63125 0.45362,-1.095 0,-0.47125 -0.147,-0.82 -0.44087,-1.0475 -0.294,-0.2275 -0.74763,-0.345 -1.36038,-0.35375 l -0.46037,0 z m 5.72312,-1.31125 1.37988,0 0,9.1725 -1.37988,0 0,-9.1725 z m 8.35525,0 0,1.31125 -3.55162,0 0,2.20125 3.45037,0 0,1.31 -3.45037,0 0,3.04 3.55162,0 0,1.31 -4.931,0 0,-9.1725 4.931,0 z m 9.65875,1.37625 -1.09875,0.655 c -0.05,-0.105 -0.10875,-0.205 -0.1725,-0.30125 -0.0638,-0.0962 -0.1425,-0.1875 -0.23625,-0.275 -0.145,-0.1125 -0.28875,-0.19625 -0.43375,-0.24875 -0.145,-0.0525 -0.31125,-0.0788 -0.49875,-0.0788 -0.375,0 -0.68375,0.0987 -0.92625,0.295 -0.2425,0.19625 -0.36,0.46125 -0.35125,0.7925 -0.009,0.245 0.0612,0.45875 0.21125,0.6425 0.14875,0.1825 0.3975,0.345 0.74625,0.485 l 0.895,0.36625 c 0.74125,0.30625 1.28,0.68375 1.61625,1.13375 0.33625,0.45 0.505,0.97625 0.505,1.57875 0,0.865 -0.2725,1.5675 -0.81875,2.11 -0.54375,0.54125 -1.23875,0.81625 -2.0825,0.825 -0.4425,-0.009 -0.83875,-0.0875 -1.1875,-0.235 -0.35,-0.14875 -0.65625,-0.38 -0.92,-0.695 -0.2125,-0.23625 -0.3825,-0.505 -0.51,-0.805 -0.12875,-0.3025 -0.21,-0.6275 -0.24375,-0.9775 l 1.35375,-0.30125 c 0,0.2275 0.035,0.44125 0.1025,0.6425 0.0687,0.20125 0.1625,0.375 0.28125,0.52375 0.13625,0.1925 0.29125,0.33 0.46625,0.4125 0.175,0.0838 0.4025,0.125 0.68375,0.125 0.43375,0 0.7925,-0.135 1.0725,-0.40625 0.28125,-0.27125 0.4225,-0.64625 0.4225,-1.12625 0,-0.3325 -0.0987,-0.6225 -0.29375,-0.8725 -0.19625,-0.24875 -0.52875,-0.4775 -0.9975,-0.6875 l -0.855,-0.38 c -0.61375,-0.27125 -1.07125,-0.59125 -1.37375,-0.9625 -0.3025,-0.3725 -0.45375,-0.82375 -0.45375,-1.35625 0,-0.71625 0.255,-1.30125 0.76625,-1.75625 0.51125,-0.45375 1.12875,-0.68125 1.8525,-0.68125 0.38375,0 0.72,0.055 1.01,0.16375 0.28875,0.10875 0.54875,0.26375 0.77875,0.465 0.1375,0.13125 0.2625,0.275 0.3775,0.4325 0.115,0.1575 0.21875,0.3225 0.3125,0.4975 z m 3.27125,-1.37625 0,3.59125 3.8075,0 0,-3.59125 1.37875,0 0,9.1725 -1.37875,0 0,-4.27125 -3.8075,0 0,4.27125 -1.38,0 0,-9.1725 1.38,0 z m 11.4725,-0.1825 c 1.32875,0 2.435,0.45875 3.32125,1.37625 0.88625,0.91625 1.32875,2.0525 1.32875,3.40625 -0.009,1.35375 -0.45375,2.485 -1.335,3.39375 -0.88125,0.90875 -1.98625,1.3625 -3.315,1.3625 -1.3375,0 -2.4475,-0.45375 -3.3275,-1.3625 -0.8825,-0.90875 -1.32375,-2.04 -1.32375,-3.39375 0,-1.35375 0.44125,-2.4875 1.32375,-3.4 0.88,-0.91375 1.99,-1.37375 3.3275,-1.3825 z m 0,8.22875 c 0.93625,0 1.7075,-0.32125 2.3125,-0.96375 0.60375,-0.64125 0.90625,-1.46875 0.90625,-2.4825 0,-1.0125 -0.3025,-1.845 -0.90625,-2.49625 -0.605,-0.65 -1.37625,-0.97625 -2.3125,-0.97625 -0.94625,0 -1.71875,0.32625 -2.31875,0.97625 -0.60125,0.65125 -0.90125,1.48375 -0.90125,2.49625 0,1.01375 0.3,1.84125 0.90125,2.4825 0.6,0.6425 1.3725,0.96375 2.31875,0.96375 z m 5.05875,-8.04625 1.48625,0 2.34625,6.15 2.415,-6.595 2.3375,6.5625 2.44,-6.1175 1.46875,0 -3.99875,9.75 -2.325,-6.4825 -2.36375,6.4825 -3.80625,-9.75 z m 13.05625,6.945 0,-1.38875 3.21875,0 0,1.38875 -3.21875,0 z m 9.22375,-6.945 0,1.31125 -3.09125,0 0,2.20125 2.98875,0 0,1.31 -2.98875,0 0,4.35 -1.38,0 0,-9.1725 4.47125,0 z m 5.72375,-0.1825 c 1.32875,0 2.435,0.45875 3.32125,1.37625 0.88625,0.91625 1.32875,2.0525 1.32875,3.40625 -0.009,1.35375 -0.45375,2.485 -1.335,3.39375 -0.88125,0.90875 -1.98625,1.3625 -3.315,1.3625 -1.3375,0 -2.44625,-0.45375 -3.3275,-1.3625 -0.8825,-0.90875 -1.3225,-2.04 -1.3225,-3.39375 0,-1.35375 0.44,-2.4875 1.3225,-3.4 0.88125,-0.91375 1.99,-1.37375 3.3275,-1.3825 z m 0,8.22875 c 0.9375,0 1.7075,-0.32125 2.3125,-0.96375 0.605,-0.64125 0.90625,-1.46875 0.90625,-2.4825 0,-1.0125 -0.30125,-1.845 -0.90625,-2.49625 -0.605,-0.65 -1.375,-0.97625 -2.3125,-0.97625 -0.945,0 -1.71875,0.32625 -2.31875,0.97625 -0.60125,0.65125 -0.9,1.48375 -0.9,2.49625 0,1.01375 0.29875,1.84125 0.9,2.4825 0.6,0.6425 1.37375,0.96375 2.31875,0.96375 z m 6.285,-8.04625 1.5975,0 c 0.59625,0.009 1.07125,0.055 1.42375,0.13875 0.355,0.0825 0.6675,0.21625 0.94,0.4 0.34875,0.24375 0.61125,0.56 0.785,0.94875 0.175,0.38875 0.26625,0.79375 0.275,1.2125 0,0.655 -0.18375,1.2125 -0.55,1.67125 -0.365,0.4575 -0.84625,0.7525 -1.44375,0.88375 l 2.79875,3.9175 -1.6625,0 -2.5425,-3.76 -0.24125,0 0,3.76 -1.38,0 0,-9.1725 z m 1.38,1.31125 0,2.895 0.4225,0 c 0.62125,0 1.0825,-0.1325 1.385,-0.39875 0.3025,-0.2675 0.45375,-0.63125 0.45375,-1.095 0,-0.47125 -0.1475,-0.82 -0.44125,-1.0475 -0.2925,-0.2275 -0.74625,-0.345 -1.36,-0.35375 l -0.46,0 z m 5.72375,-1.31125 1.37875,0 0,5.53 c 0,0.42 0.02,0.745 0.0588,0.97625 0.0375,0.2325 0.10875,0.435 0.21,0.61 0.15375,0.305 0.37875,0.53625 0.6775,0.695 0.2975,0.15625 0.62625,0.235 0.98375,0.235 0.3575,0 0.68375,-0.0762 0.9775,-0.22875 0.29375,-0.15375 0.52125,-0.38625 0.68375,-0.70125 0.0925,-0.18375 0.16125,-0.38875 0.20375,-0.61625 0.0425,-0.2275 0.0637,-0.55 0.0637,-0.97 l 0,-5.53 1.38,0 0,5.8975 c -0.009,0.48 -0.0788,0.92 -0.21125,1.31625 -0.1325,0.3975 -0.33875,0.75375 -0.61875,1.0675 -0.3075,0.35 -0.67125,0.61625 -1.0925,0.8 -0.42125,0.18375 -0.88375,0.275 -1.38625,0.275 -0.51125,0 -0.9775,-0.0913 -1.39875,-0.275 -0.42125,-0.18375 -0.78125,-0.45 -1.08,-0.8 -0.28875,-0.31375 -0.5,-0.67 -0.6325,-1.0675 -0.13125,-0.39625 -0.1975,-0.83625 -0.1975,-1.31625 l 0,-5.8975 z m 9.81125,9.1725 -1.405,0 1.8775,-9.8525 3.105,7.0925 3.1425,-7.0925 1.68625,9.8525 -1.40125,0 -0.8975,-5.52875 -2.60625,5.94875 -2.56875,-5.9625 -0.9325,5.5425"
         style="fill:#cd9c71;fill-opacity:1;fill-rule:nonzero;stroke:none"
         id="path56"
         inkscape:connector-curvature="0" />
      <path
         d="m 361.25248,489.3796 -0.50438,0 0.67375,-3.44625 1.11475,2.48 1.128,-2.48 0.60538,3.44625 -0.50288,0 -0.32225,-1.93375 -0.936,2.08 -0.92137,-2.085 -0.335,1.93875 z m 6.56737,-3.2075 0,0.4575 -1.27487,0 0,0.77 1.23825,0 0,0.45875 -1.23825,0 0,1.06375 1.27487,0 0,0.4575 -1.77,0 0,-3.2075 1.77,0 z m 3.65963,0 0,1.31 1.1465,-1.31 0.59137,0 -1.32137,1.47 1.3535,1.7375 -0.61613,0 -1.15387,-1.5125 0,1.5125 -0.49563,0 0,-1.5125 -1.15425,1.5125 -0.61575,0 1.3535,-1.7375 -1.32175,-1.47 0.59763,0 1.14062,1.31 0,-1.31 0.49563,0 z m 3.61425,0 2.00887,0 0,2.75 0.35738,0 0,1.18125 -0.4585,0 0,-0.72375 -2.07325,0 0,0.72375 -0.4585,0 0,-1.18125 c 0.10987,0 0.2095,-0.0412 0.29837,-0.12 0.0884,-0.0788 0.15863,-0.185 0.21088,-0.31625 0.0396,-0.0975 0.0684,-0.2125 0.0865,-0.345 0.019,-0.13375 0.0283,-0.3 0.0283,-0.49875 l 0,-1.47 z m 0.49512,0.4575 0,1.0175 c 0,0.18625 -0.009,0.355 -0.0274,0.505 -0.0185,0.14875 -0.0478,0.27875 -0.0879,0.38875 -0.0302,0.0825 -0.0654,0.155 -0.10487,0.215 -0.0396,0.0612 -0.0889,0.11625 -0.147,0.16625 l 1.38525,0 0,-2.2925 -1.01813,0 z m 3.10013,-0.4575 0.59762,0 0.83163,1.645 0.7455,-1.645 0.51275,0 -1.45063,3.2075 -0.51425,0 0.43313,-0.9575 -1.15575,-2.25 z m 4.71437,0 0,1.255 1.36663,0 0,-1.255 0.49562,0 0,3.2075 -0.49562,0 0,-1.49375 -1.36663,0 0,1.49375 -0.49512,0 0,-3.2075 0.49512,0 z m 5.97063,3.2075 -0.33838,-0.78 -1.36425,0 -0.351,0.78 -0.53225,0 1.59575,-3.39125 1.52288,3.39125 -0.53275,0 z m -1.496,-1.2375 0.9575,0 -0.46975,-1.08 -0.48775,1.08 z m 3.55125,-1.97 0.7065,0 c 0.16162,0.002 0.29637,0.0175 0.40337,0.045 0.10688,0.0288 0.206,0.07 0.29788,0.12875 0.13175,0.0888 0.23137,0.20125 0.29825,0.3375 0.0674,0.135 0.10062,0.2825 0.10062,0.44125 -0.003,0.14125 -0.0303,0.27125 -0.0825,0.3925 -0.0517,0.12 -0.128,0.22375 -0.229,0.30875 -0.104,0.0913 -0.22075,0.15625 -0.35112,0.195 -0.12988,0.0375 -0.27388,0.0575 -0.43313,0.0575 l -0.21575,0 0,1.30125 -0.49512,0 0,-3.2075 z m 0.49512,0.4575 0,0.99 0.21575,0 c 0.19875,0 0.34775,-0.0425 0.44738,-0.1275 0.099,-0.0863 0.15037,-0.21 0.15325,-0.37125 0,-0.16625 -0.0532,-0.28875 -0.16013,-0.36875 -0.1075,-0.0825 -0.25537,-0.1225 -0.44487,-0.1225 l -0.21138,0 z m 4.44875,-0.5225 c 0.477,0 0.8745,0.16 1.19238,0.4825 0.31837,0.32 0.477,0.7175 0.477,1.19 -0.003,0.47375 -0.16263,0.87 -0.479,1.1875 -0.31688,0.3175 -0.71338,0.47625 -1.19038,0.47625 -0.48,0 -0.878,-0.15875 -1.19437,-0.47625 -0.31638,-0.3175 -0.47463,-0.71375 -0.47463,-1.1875 0,-0.4725 0.15825,-0.86875 0.47463,-1.18875 0.31637,-0.31875 0.71437,-0.48 1.19437,-0.48375 z m 0,2.87875 c 0.33638,0 0.61325,-0.1125 0.83,-0.3375 0.21738,-0.225 0.32625,-0.51375 0.32625,-0.86875 0,-0.35375 -0.10887,-0.645 -0.32625,-0.8725 -0.21675,-0.2275 -0.49362,-0.34125 -0.83,-0.34125 -0.33937,0 -0.61675,0.11375 -0.8325,0.34125 -0.21537,0.2275 -0.32325,0.51875 -0.32325,0.8725 0,0.355 0.10788,0.64375 0.32325,0.86875 0.21575,0.225 0.49313,0.3375 0.8325,0.3375 z m 3.6465,-2.81375 2.00875,0 0,2.75 0.35738,0 0,1.18125 -0.4585,0 0,-0.72375 -2.07325,0 0,0.72375 -0.4585,0 0,-1.18125 c 0.10987,0 0.2095,-0.0412 0.29837,-0.12 0.0884,-0.0788 0.15875,-0.185 0.211,-0.31625 0.04,-0.0975 0.0687,-0.2125 0.0869,-0.345 0.0185,-0.13375 0.0279,-0.3 0.0279,-0.49875 l 0,-1.47 z m 0.495,0.4575 0,1.0175 c 0,0.18625 -0.009,0.355 -0.0272,0.505 -0.0186,0.14875 -0.0479,0.27875 -0.0874,0.38875 -0.0304,0.0825 -0.066,0.155 -0.1055,0.215 -0.0396,0.0612 -0.0889,0.11625 -0.147,0.16625 l 1.38525,0 0,-2.2925 -1.01812,0 z m 3.93463,-0.4575 0,1.255 1.36675,0 0,-1.255 0.49512,0 0,3.2075 -0.49512,0 0,-1.49375 -1.36675,0 0,1.49375 -0.49513,0 0,-3.2075 0.49513,0 z m 5.97037,3.2075 -0.3375,-0.78 -1.36475,0 -0.35112,0.78 -0.53225,0 1.59575,-3.39125 1.52237,3.39125 -0.5325,0 z m -1.49575,-1.2375 0.9575,0 -0.46975,-1.08 -0.48775,1.08 z m 3.27575,1.2375 0.955,-1.3375 c -0.0863,-0.01 -0.175,-0.0337 -0.265,-0.0713 -0.0887,-0.0387 -0.1675,-0.0863 -0.23125,-0.145 -0.0937,-0.0788 -0.16375,-0.175 -0.20875,-0.28875 -0.0437,-0.1125 -0.0662,-0.245 -0.0662,-0.39375 0,-0.1375 0.02,-0.26 0.0625,-0.36875 0.04,-0.10875 0.1025,-0.20875 0.185,-0.30125 0.0888,-0.0937 0.19625,-0.1675 0.32375,-0.22125 0.1275,-0.0537 0.30875,-0.08 0.54875,-0.08 l 0.7925,0 0,3.2075 -0.495,0 0,-1.28375 -0.115,0 -0.88125,1.28375 -0.605,0 z m 1.60125,-2.75 -0.24375,0 c -0.14375,0.004 -0.25875,0.015 -0.34375,0.0375 -0.085,0.0213 -0.1525,0.0575 -0.20125,0.11 -0.04,0.0425 -0.0725,0.1 -0.0975,0.17125 -0.0238,0.0713 -0.0362,0.13625 -0.0362,0.195 0,0.08 0.0138,0.15375 0.0412,0.2225 0.0275,0.0687 0.0688,0.1225 0.12375,0.1625 0.05,0.04 0.115,0.0675 0.1975,0.085 0.0825,0.0162 0.17875,0.025 0.28875,0.025 l 0.27125,0 0,-1.00875 z m 4.50375,-0.4575 0.48625,0 c 0.235,0.002 0.405,0.0175 0.50875,0.045 0.10375,0.0288 0.19875,0.0687 0.285,0.12375 0.1175,0.0863 0.20875,0.19 0.27,0.3125 0.06,0.12125 0.0913,0.25875 0.0913,0.4125 0,0.125 -0.0225,0.235 -0.0688,0.32875 -0.0462,0.095 -0.1175,0.18125 -0.215,0.2575 0.1675,0.055 0.3025,0.15125 0.405,0.29125 0.1025,0.13875 0.15375,0.3 0.15375,0.4825 0,0.1375 -0.0275,0.2725 -0.0825,0.40375 -0.055,0.13125 -0.135,0.24 -0.23875,0.325 -0.0913,0.0775 -0.19875,0.1325 -0.32,0.17 -0.1225,0.0363 -0.30125,0.055 -0.5375,0.055 l -0.7375,0 0,-3.2075 z m 0.495,0.4575 0,0.92125 0.14625,0 c 0.1775,0.002 0.30875,-0.0375 0.395,-0.12125 0.085,-0.0838 0.1275,-0.20125 0.1275,-0.35 0,-0.1375 -0.0412,-0.2475 -0.12375,-0.3275 -0.0825,-0.0825 -0.20875,-0.1225 -0.38,-0.1225 l -0.165,0 z m 0,1.325 0,0.9675 0.29375,0 c 0.21375,0 0.3725,-0.045 0.47625,-0.13125 0.10375,-0.0875 0.15625,-0.20625 0.15625,-0.355 0,-0.15 -0.0525,-0.2675 -0.15625,-0.35375 -0.10375,-0.085 -0.26,-0.1275 -0.4675,-0.1275 l -0.3025,0 z m 3.14625,1.425 0,-3.2075 0.495,0 0,1.2925 0.3575,0 c 0.1675,0 0.32,0.0213 0.45625,0.0662 0.13625,0.0437 0.25375,0.1075 0.35125,0.19 0.0913,0.0825 0.16375,0.185 0.2175,0.30875 0.0537,0.12375 0.0813,0.255 0.085,0.3925 0,0.15875 -0.035,0.30875 -0.105,0.44875 -0.0713,0.14 -0.16875,0.2525 -0.29375,0.335 -0.0888,0.06 -0.1875,0.105 -0.29625,0.1325 -0.10875,0.0275 -0.24375,0.0412 -0.40625,0.0412 l -0.86125,0 z m 0.495,-1.4575 0,1 0.33875,0 c 0.21375,10e-4 0.37375,-0.04 0.4775,-0.1275 0.10375,-0.0863 0.155,-0.2075 0.155,-0.36375 -0.002,-0.15625 -0.0563,-0.27875 -0.1625,-0.37125 -0.105,-0.0913 -0.25875,-0.1375 -0.46,-0.1375 l -0.34875,0 z m 1.7975,-1.75 0.495,0 0,3.2075 -0.495,0 0,-3.2075 z m 4.75625,0.17375 0,0.5775 c -0.1225,-0.11625 -0.25625,-0.205 -0.40125,-0.26625 -0.145,-0.0613 -0.3,-0.0913 -0.46625,-0.0913 -0.345,0 -0.62375,0.115 -0.83375,0.34625 -0.21125,0.23 -0.31625,0.5225 -0.31625,0.8775 0,0.345 0.10625,0.63125 0.32,0.8575 0.215,0.225 0.49125,0.33875 0.83,0.33875 0.15375,0 0.3025,-0.0312 0.45,-0.0925 0.1475,-0.0612 0.28625,-0.15375 0.4175,-0.28 l 0,0.5875 c -0.14125,0.0888 -0.285,0.15125 -0.43375,0.1875 -0.14875,0.0375 -0.2975,0.055 -0.4475,0.055 -0.2325,0 -0.4425,-0.0375 -0.6325,-0.11375 -0.19,-0.0775 -0.3575,-0.1875 -0.50375,-0.33 -0.165,-0.15375 -0.29375,-0.33 -0.38375,-0.53 -0.09,-0.2 -0.13375,-0.42625 -0.13,-0.68 0,-0.25375 0.0437,-0.4875 0.1325,-0.70125 0.0888,-0.21375 0.21625,-0.39875 0.38125,-0.555 0.1425,-0.13625 0.3075,-0.2425 0.495,-0.31625 0.18625,-0.0725 0.4075,-0.11 0.665,-0.11 0.17125,0 0.32625,0.02 0.465,0.0575 0.13875,0.0387 0.27,0.0987 0.3925,0.18125 z m 3.3525,0.28375 -0.73375,0 0,2.75 -0.495,0 0,-2.75 -0.735,0 0,-0.4575 1.96375,0 0,0.4575 z m 3.5575,2.75 -0.33875,-0.78 -1.36375,0 -0.35125,0.78 -0.5325,0 1.59625,-3.39125 1.5225,3.39125 -0.5325,0 z m -1.495,-1.2375 0.9575,0 -0.47,-1.08 -0.4875,1.08 z m 3.55125,-1.97 0.48625,0 c 0.235,0.002 0.405,0.0175 0.50875,0.045 0.10375,0.0288 0.19875,0.0687 0.28375,0.12375 0.11875,0.0863 0.21,0.19 0.27125,0.3125 0.06,0.12125 0.0913,0.25875 0.0913,0.4125 0,0.125 -0.0225,0.235 -0.0688,0.32875 -0.0462,0.095 -0.1175,0.18125 -0.215,0.2575 0.1675,0.055 0.30375,0.15125 0.405,0.29125 0.1025,0.13875 0.15375,0.3 0.15375,0.4825 0,0.1375 -0.0275,0.2725 -0.0825,0.40375 -0.055,0.13125 -0.135,0.24 -0.23875,0.325 -0.0913,0.0775 -0.19875,0.1325 -0.32,0.17 -0.1225,0.0363 -0.30125,0.055 -0.5375,0.055 l -0.7375,0 0,-3.2075 z m 0.495,0.4575 0,0.92125 0.14625,0 c 0.1775,0.002 0.30875,-0.0375 0.395,-0.12125 0.085,-0.0838 0.1275,-0.20125 0.1275,-0.35 0,-0.1375 -0.0412,-0.2475 -0.12375,-0.3275 -0.0825,-0.0825 -0.20875,-0.1225 -0.38,-0.1225 l -0.165,0 z m 0,1.325 0,0.9675 0.29375,0 c 0.21375,0 0.3725,-0.045 0.47625,-0.13125 0.10375,-0.0875 0.15625,-0.20625 0.15625,-0.355 0,-0.15 -0.0525,-0.2675 -0.15625,-0.35375 -0.10375,-0.085 -0.26,-0.1275 -0.4675,-0.1275 l -0.3025,0 z m 3.64125,-1.7825 0,1.27875 1.23875,-1.27875 0.64125,0 -1.44875,1.4525 1.4575,1.755 -0.65,0 -1.23875,-1.54 0,1.54 -0.495,0 0,-3.2075 0.495,0 z m 5.67625,3.2075 -0.33875,-0.78 -1.36375,0 -0.35125,0.78 -0.5325,0 1.59625,-3.39125 1.5225,3.39125 -0.5325,0 z m -1.495,-1.2375 0.9575,0 -0.47,-1.08 -0.4875,1.08 z m 6.1825,-1.97 0,1.255 1.36625,0 0,-1.255 0.49625,0 0,3.2075 -0.49625,0 0,-1.49375 -1.36625,0 0,1.49375 -0.495,0 0,-3.2075 0.495,0 z m 5.8975,3.2075 0,-2.16375 -2.16375,2.30125 0,-3.345 0.495,0 0,2.1625 2.165,-2.3 0,3.345 -0.49625,0 z m 4.28375,-3.2075 0,1.31 1.1475,-1.31 0.59125,0 -1.3225,1.47 1.35375,1.7375 -0.61625,0 -1.15375,-1.5125 0,1.5125 -0.495,0 0,-1.5125 -1.15375,1.5125 -0.61625,0 1.35375,-1.7375 -1.3225,-1.47 0.59875,0 1.14,1.31 0,-1.31 0.495,0 z m 3.78875,0 0,1.255 1.36625,0 0,-1.255 0.495,0 0,3.2075 -0.495,0 0,-1.49375 -1.36625,0 0,1.49375 -0.495,0 0,-3.2075 0.495,0 z m 5.50375,0 0,0.4575 -1.275,0 0,0.77 1.2375,0 0,0.45875 -1.2375,0 0,1.06375 1.275,0 0,0.4575 -1.77,0 0,-3.2075 1.77,0 z m 3.3475,0 0,0.4575 -1.11,0 0,2.75 -0.495,0 0,-3.2075 1.605,0 z m 2.815,-0.065 c 0.4775,0 0.875,0.16 1.1925,0.4825 0.31875,0.32 0.4775,0.7175 0.4775,1.19 -0.003,0.47375 -0.1625,0.87 -0.48,1.1875 -0.31625,0.3175 -0.7125,0.47625 -1.19,0.47625 -0.48,0 -0.8775,-0.15875 -1.19375,-0.47625 -0.3175,-0.3175 -0.475,-0.71375 -0.475,-1.1875 0,-0.4725 0.1575,-0.86875 0.475,-1.18875 0.31625,-0.31875 0.71375,-0.48 1.19375,-0.48375 z m 0,2.87875 c 0.3375,0 0.61375,-0.1125 0.83125,-0.3375 0.21625,-0.225 0.325,-0.51375 0.325,-0.86875 0,-0.35375 -0.10875,-0.645 -0.325,-0.8725 -0.2175,-0.2275 -0.49375,-0.34125 -0.83125,-0.34125 -0.33875,0 -0.61625,0.11375 -0.8325,0.34125 -0.215,0.2275 -0.3225,0.51875 -0.3225,0.8725 0,0.355 0.1075,0.64375 0.3225,0.86875 0.21625,0.225 0.49375,0.3375 0.8325,0.3375 z m 5.53125,0.39375 0,-3.2075 1.61,0 0,0.4575 -1.115,0 0,0.835 0.3125,0 c 0.18625,0 0.34375,0.0213 0.4725,0.0662 0.12875,0.0437 0.24,0.1075 0.33375,0.19 0.0925,0.085 0.16625,0.19 0.22125,0.31125 0.055,0.1225 0.0825,0.25375 0.0825,0.39375 -0.004,0.15875 -0.0387,0.30875 -0.1075,0.4475 -0.07,0.13875 -0.16625,0.25 -0.29125,0.3325 -0.09,0.06 -0.1875,0.105 -0.29625,0.1325 -0.10875,0.0275 -0.24375,0.0412 -0.40625,0.0412 l -0.81625,0 z m 0.495,-1.4575 0,1 0.29375,0 c 0.21375,0 0.3725,-0.0437 0.4775,-0.12875 0.10375,-0.0862 0.15625,-0.20625 0.15625,-0.3625 0,-0.15625 -0.0538,-0.27875 -0.16125,-0.36875 -0.1075,-0.09 -0.26125,-0.13625 -0.46375,-0.14 l -0.3025,0 z m 4.91625,-1.75 0,0.4575 -1.275,0 0,0.77 1.23875,0 0,0.45875 -1.23875,0 0,1.06375 1.275,0 0,0.4575 -1.77,0 0,-3.2075 1.77,0 z m 2.06875,0 2.05,0 0,3.2075 -0.49625,0 0,-2.75 -1.05875,0 0,1.6 c 0,0.28125 -0.0263,0.4925 -0.08,0.63375 -0.0538,0.1425 -0.13625,0.26 -0.245,0.35125 -0.0762,0.0637 -0.1625,0.1125 -0.2575,0.145 -0.095,0.0312 -0.1975,0.0475 -0.3075,0.0475 -0.0425,0 -0.0825,-0.004 -0.12125,-0.009 -0.0387,-0.006 -0.075,-0.0125 -0.1125,-0.0187 l 0,-0.4575 c 0.0312,0.009 0.06,0.015 0.0875,0.02 0.0275,0.004 0.0513,0.006 0.0738,0.006 0.055,0 0.11125,-0.01 0.16875,-0.0288 0.0588,-0.02 0.10375,-0.0462 0.1375,-0.0763 0.055,-0.0525 0.0962,-0.135 0.1225,-0.25 0.0263,-0.11375 0.0388,-0.285 0.0388,-0.51125 l 0,-1.91 z m 3.92125,3.2075 0,-3.2075 0.495,0 0,1.2925 0.3575,0 c 0.16875,0 0.32,0.0213 0.45625,0.0662 0.13625,0.0437 0.2525,0.1075 0.35125,0.19 0.0913,0.0825 0.165,0.185 0.21875,0.30875 0.0525,0.12375 0.0813,0.255 0.0838,0.3925 0,0.15875 -0.035,0.30875 -0.105,0.44875 -0.0713,0.14 -0.16875,0.2525 -0.29375,0.335 -0.0888,0.06 -0.1875,0.105 -0.295,0.1325 -0.10875,0.0275 -0.245,0.0412 -0.40625,0.0412 l -0.8625,0 z m 0.495,-1.4575 0,1 0.34,0 c 0.21375,10e-4 0.3725,-0.04 0.47625,-0.1275 0.105,-0.0863 0.15625,-0.2075 0.15625,-0.36375 -0.002,-0.15625 -0.0575,-0.27875 -0.1625,-0.37125 -0.10625,-0.0913 -0.26,-0.1375 -0.46125,-0.1375 l -0.34875,0 z m 2.80625,1.4575 0.95375,-1.3375 c -0.085,-0.01 -0.17375,-0.0337 -0.2625,-0.0713 -0.09,-0.0387 -0.1675,-0.0863 -0.2325,-0.145 -0.0937,-0.0788 -0.16375,-0.175 -0.2075,-0.28875 -0.045,-0.1125 -0.0675,-0.245 -0.0675,-0.39375 0,-0.1375 0.02,-0.26 0.0625,-0.36875 0.0412,-0.10875 0.1025,-0.20875 0.185,-0.30125 0.0887,-0.0937 0.1975,-0.1675 0.32375,-0.22125 0.12625,-0.0537 0.31,-0.08 0.5475,-0.08 l 0.79375,0 0,3.2075 -0.495,0 0,-1.28375 -0.115,0 -0.88,1.28375 -0.60625,0 z m 1.60125,-2.75 -0.24375,0 c -0.1425,0.004 -0.25875,0.015 -0.34375,0.0375 -0.0862,0.0213 -0.1525,0.0575 -0.20125,0.11 -0.04,0.0425 -0.0725,0.1 -0.0962,0.17125 -0.025,0.0713 -0.0362,0.13625 -0.0362,0.195 0,0.08 0.0125,0.15375 0.04,0.2225 0.0288,0.0687 0.0687,0.1225 0.12375,0.1625 0.0487,0.04 0.115,0.0675 0.1975,0.085 0.0825,0.0162 0.17875,0.025 0.28875,0.025 l 0.27125,0 0,-1.00875"
         style="fill:#ffffff;fill-opacity:1;fill-rule:nonzero;stroke:none"
         id="path58"
         inkscape:connector-curvature="0" />
      <path
         d="m 361.34473,490.96585 0,1.27125 1.24225,-1.27125 0.642,0 -1.45163,1.445 1.46138,1.74375 -0.65125,0 -1.24275,-1.53 0,1.53 -0.49613,0 0,-3.18875 0.49613,0 z m 2.06687,0 0.59913,0 0.8335,1.63625 0.74712,-1.63625 0.51363,0 -1.45363,3.18875 -0.51462,0 0.43312,-0.95125 -1.15825,-2.2375 z m 3.1885,0 2.36238,0 0,3.18875 -0.49663,0 0,-2.7325 -1.36962,0 0,2.7325 -0.49613,0 0,-3.18875 z m 5.439,3.18875 -0.33937,-0.775 -1.36625,0 -0.3525,0.775 -0.53275,0 1.59912,-3.37 1.52588,3.37 -0.53413,0 z m -1.4985,-1.23 0.95938,0 -0.47063,-1.07375 -0.48875,1.07375 z m 2.84463,-1.95875 2.05475,0 0,3.18875 -0.49663,0 0,-2.7325 -1.0615,0 0,1.58875 c 0,0.28 -0.0269,0.49 -0.0806,0.63125 -0.0531,0.14125 -0.13525,0.2575 -0.2455,0.34875 -0.0768,0.0637 -0.16262,0.11125 -0.25737,0.1425 -0.0953,0.0325 -0.19775,0.0487 -0.30863,0.0487 -0.0425,0 -0.083,-0.004 -0.121,-0.01 -0.0386,-0.005 -0.0763,-0.0113 -0.11287,-0.0175 l 0,-0.455 c 0.0308,0.009 0.0596,0.015 0.0874,0.02 0.0274,0.004 0.0523,0.006 0.0732,0.006 0.0553,0 0.11237,-0.01 0.1705,-0.03 0.058,-0.0188 0.104,-0.0437 0.13762,-0.0738 0.0553,-0.0525 0.0958,-0.135 0.12163,-0.24875 0.0259,-0.11375 0.039,-0.2825 0.039,-0.5075 l 0,-1.9 z m 2.88925,3.18875 0,-3.18875 0.4965,0 0,1.285 0.35837,0 c 0.169,0 0.32088,0.0225 0.45763,0.0662 0.13612,0.0438 0.25337,0.10625 0.3515,0.18875 0.0917,0.0825 0.165,0.185 0.21875,0.3075 0.0532,0.1225 0.082,0.2525 0.0845,0.39 0,0.1575 -0.0351,0.30625 -0.1055,0.44625 -0.0702,0.13875 -0.1685,0.25 -0.29388,0.3325 -0.0889,0.06 -0.188,0.10375 -0.29687,0.13125 -0.1085,0.0275 -0.24425,0.0412 -0.40625,0.0412 l -0.86475,0 z m 0.4965,-1.44875 0,0.99375 0.34037,0 c 0.21438,0.002 0.3735,-0.0387 0.478,-0.12625 0.1045,-0.0863 0.15625,-0.2075 0.15625,-0.36125 -0.003,-0.155 -0.0571,-0.27875 -0.16312,-0.36875 -0.10588,-0.0913 -0.25975,-0.1375 -0.46188,-0.1375 l -0.34962,0 z m 2.545,-1.74 0,1.24875 1.36962,0 0,-1.24875 0.4965,0 0,3.18875 -0.4965,0 0,-1.485 -1.36962,0 0,1.485 -0.49613,0 0,-3.18875 0.49613,0 z m 4.8705,3.18875 0,-2.15 -2.16938,2.28625 0,-3.325 0.49613,0 0,2.15 2.16987,-2.28625 0,3.325 -0.49662,0 z m 1.82775,-3.18875 0,1.27125 1.24162,-1.27125 0.64263,0 -1.45213,1.445 1.46138,1.74375 -0.65088,0 -1.24262,-1.53 0,1.53 -0.49663,0 0,-3.18875 0.49663,0 z m 3.79437,-0.0625 c 0.478,0 0.8765,0.15875 1.19488,0.4775 0.31875,0.31875 0.4785,0.71375 0.4785,1.18375 -0.004,0.47125 -0.16313,0.86375 -0.4805,1.18 -0.31738,0.315 -0.71488,0.47375 -1.19288,0.47375 -0.481,0 -0.87987,-0.15875 -1.19725,-0.47375 -0.31687,-0.31625 -0.47562,-0.70875 -0.47562,-1.18 0,-0.47 0.15875,-0.86375 0.47562,-1.18125 0.31738,-0.3175 0.71625,-0.4775 1.19725,-0.48 z m 0,2.86 c 0.33738,0 0.61425,-0.11125 0.832,-0.335 0.21775,-0.22375 0.32625,-0.51125 0.32625,-0.86375 0,-0.3525 -0.1085,-0.64125 -0.32625,-0.8675 -0.21775,-0.22625 -0.49462,-0.33875 -0.832,-0.33875 -0.34037,0 -0.61762,0.1125 -0.8335,0.33875 -0.21625,0.22625 -0.32475,0.515 -0.32475,0.8675 0,0.3525 0.1085,0.64 0.32475,0.86375 0.21588,0.22375 0.49313,0.335 0.8335,0.335 z m 2.36088,-2.7975 0.48775,0 c 0.23537,0.004 0.40575,0.0188 0.50975,0.0462 0.1045,0.0275 0.19925,0.0675 0.28475,0.1225 0.11962,0.085 0.21037,0.18875 0.27137,0.31 0.0616,0.12125 0.0919,0.25875 0.0919,0.41 0,0.125 -0.023,0.23375 -0.0689,0.32875 -0.0459,0.0937 -0.11762,0.1775 -0.21587,0.25375 0.168,0.055 0.30375,0.15125 0.40675,0.29 0.10262,0.1375 0.15437,0.2975 0.15437,0.48 0,0.13625 -0.0279,0.27 -0.0835,0.40125 -0.0553,0.13 -0.13475,0.2375 -0.23875,0.3225 -0.0919,0.0762 -0.19925,0.1325 -0.32187,0.16875 -0.122,0.0362 -0.30175,0.055 -0.5375,0.055 l -0.74025,0 0,-3.18875 z m 0.4965,0.45625 0,0.915 0.1475,0 c 0.17725,0.004 0.30912,-0.0362 0.395,-0.12125 0.0855,-0.0825 0.1285,-0.19875 0.1285,-0.3475 0,-0.13625 -0.0415,-0.245 -0.12413,-0.32625 -0.0825,-0.08 -0.20937,-0.12 -0.38125,-0.12 l -0.16562,0 z m 0,1.31625 0,0.96125 0.2945,0 c 0.21437,0 0.3735,-0.0437 0.478,-0.13125 0.1035,-0.0863 0.15625,-0.20375 0.15625,-0.3525 0,-0.14875 -0.0528,-0.265 -0.15625,-0.35 -0.1045,-0.085 -0.26075,-0.1275 -0.46875,-0.1275 l -0.30375,0 z m 1.72712,2.02625 0.48725,-1.2025 0.43163,0.155 -0.59763,1.185 -0.32125,-0.1375 z m 3.07325,-3.79875 2.01313,0 0,2.73375 0.35837,0 0,1.175 -0.45937,0 0,-0.72 -2.07763,0 0,0.72 -0.4595,0 0,-1.175 c 0.11038,0 0.20988,-0.04 0.29875,-0.11875 0.0889,-0.0788 0.15925,-0.18375 0.2115,-0.31375 0.0395,-0.0975 0.0689,-0.2125 0.0874,-0.345 0.0181,-0.13125 0.0274,-0.29625 0.0274,-0.49375 l 0,-1.4625 z m 0.4965,0.45625 0,1.01125 c 0,0.185 -0.01,0.3525 -0.0278,0.5 -0.0181,0.14875 -0.0474,0.27875 -0.087,0.3875 -0.0308,0.0825 -0.0659,0.15375 -0.10587,0.215 -0.0396,0.06 -0.0889,0.115 -0.147,0.16375 l 1.38775,0 0,-2.2775 -1.02013,0 z m 3.93213,-0.51875 c 0.47862,0 0.877,0.15875 1.19537,0.4775 0.31838,0.31875 0.478,0.71375 0.478,1.18375 -0.003,0.47125 -0.16312,0.86375 -0.48,1.18 -0.31737,0.315 -0.71475,0.47375 -1.19337,0.47375 -0.48038,0 -0.87938,-0.15875 -1.19675,-0.47375 -0.31688,-0.31625 -0.4755,-0.70875 -0.4755,-1.18 0,-0.47 0.15862,-0.86375 0.4755,-1.18125 0.31737,-0.3175 0.71637,-0.4775 1.19675,-0.48 z m 0,2.86 c 0.3375,0 0.61475,-0.11125 0.83262,-0.335 0.21725,-0.22375 0.32613,-0.51125 0.32613,-0.86375 0,-0.3525 -0.10888,-0.64125 -0.32613,-0.8675 -0.21787,-0.22625 -0.49512,-0.33875 -0.83262,-0.33875 -0.33975,0 -0.61713,0.1125 -0.8335,0.33875 -0.21625,0.22625 -0.32413,0.515 -0.32413,0.8675 0,0.3525 0.10788,0.64 0.32413,0.86375 0.21637,0.22375 0.49375,0.335 0.8335,0.335 z m 2.63725,0.39125 -0.50588,0 0.67575,-3.425 1.11675,2.465 1.13088,-2.465 0.6065,3.425 -0.504,0 -0.32325,-1.9225 -0.9375,2.0675 -0.92425,-2.07125 -0.335,1.92625 z m 6.00862,0 -0.33875,-0.775 -1.36662,0 -0.3525,0.775 -0.53325,0 1.59962,-3.37 1.52525,3.37 -0.53375,0 z m -1.49887,-1.23 0.96012,0 -0.47087,-1.07375 -0.48925,1.07375 z m 2.51887,1.23 0,-3.18875 0.49625,0 0,2.73375 1.13,0 0,-2.73375 0.4975,0 0,2.73375 1.13,0 0,-2.73375 0.49625,0 0,3.18875 -3.75,0 z m 5.08125,-3.18875 0,1.24875 1.37,0 0,-1.24875 0.4975,0 0,3.18875 -0.4975,0 0,-1.485 -1.37,0 0,1.485 -0.495,0 0,-3.18875 0.495,0 z m 4.47625,0 0,0.45625 -1.2775,0 0,0.765 1.24125,0 0,0.455 -1.24125,0 0,1.0575 1.2775,0 0,0.455 -1.775,0 0,-3.18875 1.775,0 z m 2.875,3.18875 0,-2.15 -2.16875,2.28625 0,-3.325 0.49625,0 0,2.15 2.17,-2.28625 0,3.325 -0.4975,0 z m -1.63125,-3.97625 0.38625,-0.1675 c 0.025,0.085 0.0737,0.15 0.14875,0.195 0.075,0.0462 0.1625,0.0688 0.26125,0.0688 0.0937,0 0.17875,-0.0225 0.25375,-0.0688 0.075,-0.045 0.12625,-0.11 0.15375,-0.195 l 0.38625,0.1675 c -0.0612,0.14875 -0.16125,0.2675 -0.30125,0.355 -0.13875,0.0888 -0.30375,0.1325 -0.4925,0.1325 -0.19375,0.004 -0.36,-0.04 -0.5,-0.13 -0.13875,-0.0888 -0.2375,-0.20875 -0.29625,-0.3575 z m 5.56,0.725 c 0.4775,0 0.87625,0.15875 1.195,0.4775 0.3175,0.31875 0.47875,0.71375 0.47875,1.18375 -0.005,0.47125 -0.16375,0.86375 -0.48125,1.18 -0.3175,0.315 -0.715,0.47375 -1.1925,0.47375 -0.48125,0 -0.88,-0.15875 -1.1975,-0.47375 -0.3175,-0.31625 -0.475,-0.70875 -0.475,-1.18 0,-0.47 0.1575,-0.86375 0.475,-1.18125 0.3175,-0.3175 0.71625,-0.4775 1.1975,-0.48 z m 0,2.86 c 0.33625,0 0.61375,-0.11125 0.83125,-0.335 0.2175,-0.22375 0.32625,-0.51125 0.32625,-0.86375 0,-0.3525 -0.10875,-0.64125 -0.32625,-0.8675 -0.2175,-0.22625 -0.495,-0.33875 -0.83125,-0.33875 -0.34,0 -0.61875,0.1125 -0.83375,0.33875 -0.21625,0.22625 -0.325,0.515 -0.325,0.8675 0,0.3525 0.10875,0.64 0.325,0.86375 0.215,0.22375 0.49375,0.335 0.83375,0.335 z m 2.61375,-2.7975 2.0125,0 0,2.73375 0.35875,0 0,1.175 -0.45875,0 0,-0.72 -2.07875,0 0,0.72 -0.45875,0 0,-1.175 c 0.11,0 0.21,-0.04 0.29875,-0.11875 0.0888,-0.0788 0.15875,-0.18375 0.21125,-0.31375 0.04,-0.0975 0.0688,-0.2125 0.0875,-0.345 0.0175,-0.13125 0.0275,-0.29625 0.0275,-0.49375 l 0,-1.4625 z m 0.49625,0.45625 0,1.01125 c 0,0.185 -0.01,0.3525 -0.0275,0.5 -0.0187,0.14875 -0.0475,0.27875 -0.0875,0.3875 -0.03,0.0825 -0.065,0.15375 -0.105,0.215 -0.04,0.06 -0.09,0.115 -0.1475,0.16375 l 1.3875,0 0,-2.2775 -1.02,0 z m 4.18,-0.45625 0,0.45625 -1.2775,0 0,0.765 1.24125,0 0,0.455 -1.24125,0 0,1.0575 1.2775,0 0,0.455 -1.7725,0 0,-3.18875 1.7725,0 z m 2.62875,0 0,1.30375 1.14875,-1.30375 0.5925,0 -1.32375,1.4625 1.35625,1.72625 -0.6175,0 -1.15625,-1.5025 0,1.5025 -0.49625,0 0,-1.5025 -1.1575,1.5025 -0.61625,0 1.355,-1.72625 -1.32375,-1.4625 0.6,0 1.1425,1.30375 0,-1.30375 0.49625,0 z m 2.58125,0 2.0125,0 0,2.73375 0.35875,0 0,1.175 -0.45875,0 0,-0.72 -2.07875,0 0,0.72 -0.45875,0 0,-1.175 c 0.11,0 0.21,-0.04 0.29875,-0.11875 0.0888,-0.0788 0.15875,-0.18375 0.21125,-0.31375 0.04,-0.0975 0.0688,-0.2125 0.0875,-0.345 0.0175,-0.13125 0.0275,-0.29625 0.0275,-0.49375 l 0,-1.4625 z m 0.49625,0.45625 0,1.01125 c 0,0.185 -0.01,0.3525 -0.0275,0.5 -0.0188,0.14875 -0.0475,0.27875 -0.0875,0.3875 -0.03,0.0825 -0.065,0.15375 -0.105,0.215 -0.04,0.06 -0.09,0.115 -0.1475,0.16375 l 1.3875,0 0,-2.2775 -1.02,0 z m 2.40625,2.7325 0,-3.18875 0.49625,0 0,1.285 0.35875,0 c 0.16875,0 0.32125,0.0225 0.4575,0.0662 0.13625,0.0438 0.25375,0.10625 0.35125,0.18875 0.0925,0.0825 0.165,0.185 0.21875,0.3075 0.0537,0.1225 0.0825,0.2525 0.085,0.39 0,0.1575 -0.035,0.30625 -0.105,0.44625 -0.0712,0.13875 -0.17,0.25 -0.295,0.3325 -0.0888,0.06 -0.1875,0.10375 -0.29625,0.13125 -0.10875,0.0275 -0.24375,0.0412 -0.40625,0.0412 l -0.865,0 z m 0.49625,-1.44875 0,0.99375 0.34125,0 c 0.21375,0.002 0.3725,-0.0387 0.4775,-0.12625 0.10375,-0.0863 0.15625,-0.2075 0.15625,-0.36125 -0.002,-0.155 -0.0575,-0.27875 -0.1625,-0.36875 -0.10625,-0.0913 -0.26,-0.1375 -0.4625,-0.1375 l -0.35,0 z m 1.8025,-1.74 0.49625,0 0,3.18875 -0.49625,0 0,-3.18875 z m 4.57125,3.18875 0,-2.15 -2.16875,2.28625 0,-3.325 0.49625,0 0,2.15 2.16875,-2.28625 0,3.325 -0.49625,0 z m 4.07,0 0,-1.3075 c -0.26625,0.0213 -0.425,0.0337 -0.475,0.0362 -0.05,0.004 -0.0987,0.004 -0.145,0 -0.19,0 -0.3525,-0.015 -0.48875,-0.0475 -0.13625,-0.0312 -0.24625,-0.0825 -0.32875,-0.1525 -0.11125,-0.0825 -0.19125,-0.18875 -0.24375,-0.32125 -0.0525,-0.13125 -0.0775,-0.2825 -0.0738,-0.45375 l 0,-0.9425 0.49625,0 0,0.87125 c 0,0.145 0.0138,0.25375 0.0412,0.325 0.0275,0.0712 0.0713,0.12625 0.12875,0.16625 0.0462,0.0362 0.10875,0.0625 0.18625,0.0775 0.0788,0.015 0.18875,0.0225 0.33375,0.0225 0.1075,0 0.205,-0.002 0.29625,-0.006 0.09,-0.005 0.18125,-0.015 0.2725,-0.03 l 0,-1.42625 0.4975,0 0,3.18875 -0.4975,0 z m 0.9875,-3.18875 0.59875,0 0.83375,1.63625 0.74625,-1.63625 0.51375,0 -1.45375,3.18875 -0.51375,0 0.4325,-0.95125 -1.1575,-2.2375 z m 3.23875,0 2.05375,0 0,3.18875 -0.49625,0 0,-2.7325 -1.06125,0 0,1.58875 c 0,0.28 -0.0275,0.49 -0.08,0.63125 -0.0538,0.14125 -0.135,0.2575 -0.24625,0.34875 -0.0762,0.0637 -0.1625,0.11125 -0.2575,0.1425 -0.095,0.0325 -0.1975,0.0487 -0.3075,0.0487 -0.0437,0 -0.0838,-0.004 -0.1225,-0.01 -0.0375,-0.005 -0.075,-0.0113 -0.1125,-0.0175 l 0,-0.455 c 0.0312,0.009 0.06,0.015 0.0875,0.02 0.0275,0.004 0.0525,0.006 0.0738,0.006 0.055,0 0.11125,-0.01 0.17,-0.03 0.0575,-0.0188 0.10375,-0.0437 0.1375,-0.0738 0.0562,-0.0525 0.0962,-0.135 0.1225,-0.24875 0.025,-0.11375 0.0388,-0.2825 0.0388,-0.5075 l 0,-1.9 z m 4.415,-0.0625 c 0.4775,0 0.87625,0.15875 1.195,0.4775 0.31875,0.31875 0.4775,0.71375 0.4775,1.18375 -0.003,0.47125 -0.1625,0.86375 -0.48,1.18 -0.31625,0.315 -0.715,0.47375 -1.1925,0.47375 -0.48125,0 -0.88,-0.15875 -1.1975,-0.47375 -0.31625,-0.31625 -0.475,-0.70875 -0.475,-1.18 0,-0.47 0.15875,-0.86375 0.475,-1.18125 0.3175,-0.3175 0.71625,-0.4775 1.1975,-0.48 z m 0,2.86 c 0.3375,0 0.61375,-0.11125 0.8325,-0.335 0.21625,-0.22375 0.32625,-0.51125 0.32625,-0.86375 0,-0.3525 -0.11,-0.64125 -0.32625,-0.8675 -0.21875,-0.22625 -0.495,-0.33875 -0.8325,-0.33875 -0.34,0 -0.6175,0.1125 -0.83375,0.33875 -0.21625,0.22625 -0.325,0.515 -0.325,0.8675 0,0.3525 0.10875,0.64 0.325,0.86375 0.21625,0.22375 0.49375,0.335 0.83375,0.335 z m 4.03,0.39125 0,-1.3075 c -0.2675,0.0213 -0.425,0.0337 -0.47625,0.0362 -0.0512,0.004 -0.0987,0.004 -0.145,0 -0.19,0 -0.3525,-0.015 -0.49,-0.0475 -0.135,-0.0312 -0.245,-0.0825 -0.3275,-0.1525 -0.11125,-0.0825 -0.1925,-0.18875 -0.24375,-0.32125 -0.0525,-0.13125 -0.0763,-0.2825 -0.0738,-0.45375 l 0,-0.9425 0.49625,0 0,0.87125 c 0,0.145 0.0138,0.25375 0.0412,0.325 0.0275,0.0712 0.07,0.12625 0.12875,0.16625 0.0463,0.0362 0.10875,0.0625 0.18625,0.0775 0.0787,0.015 0.18875,0.0225 0.33375,0.0225 0.10625,0 0.205,-0.002 0.29625,-0.006 0.09,-0.005 0.18125,-0.015 0.27375,-0.03 l 0,-1.42625 0.49625,0 0,3.18875 -0.49625,0 z m 1.8225,-3.18875 0,1.24875 1.37,0 0,-1.24875 0.49625,0 0,3.18875 -0.49625,0 0,-1.485 -1.37,0 0,1.485 -0.49625,0 0,-3.18875 0.49625,0 z m 2.70125,3.18875 0,-3.18875 0.49625,0 0,1.285 0.35875,0 c 0.16875,0 0.32125,0.0225 0.4575,0.0662 0.13625,0.0438 0.25375,0.10625 0.35125,0.18875 0.0913,0.0825 0.165,0.185 0.21875,0.3075 0.0525,0.1225 0.0813,0.2525 0.0838,0.39 0,0.1575 -0.035,0.30625 -0.105,0.44625 -0.07,0.13875 -0.16875,0.25 -0.29375,0.3325 -0.0887,0.06 -0.18875,0.10375 -0.2975,0.13125 -0.1075,0.0275 -0.24375,0.0412 -0.40625,0.0412 l -0.86375,0 z m 0.49625,-1.44875 0,0.99375 0.34,0 c 0.215,0.002 0.37375,-0.0387 0.4775,-0.12625 0.105,-0.0863 0.15625,-0.2075 0.15625,-0.36125 -0.002,-0.155 -0.0563,-0.27875 -0.1625,-0.36875 -0.10625,-0.0913 -0.26,-0.1375 -0.4625,-0.1375 l -0.34875,0 z m 1.80125,-1.74 0.49625,0 0,3.18875 -0.49625,0 0,-3.18875 z m 1.01,3.18875 1.01125,-1.6625 -0.8875,-1.52625 0.55125,0 0.625,1.08 0.6425,-1.08 0.5525,0 -0.9275,1.52625 0.96875,1.6625 -0.55125,0 -0.7025,-1.22125 -0.73,1.22125 -0.5525,0 z m 6.29,0 0,-2.15 -2.16875,2.28625 0,-3.325 0.49625,0 0,2.15 2.17,-2.28625 0,3.325 -0.4975,0 z m 1.64875,-2.4725 -0.32625,-0.31 c 0.13875,-0.16125 0.28375,-0.28 0.43625,-0.355 0.15375,-0.0763 0.3325,-0.11375 0.53875,-0.11375 0.14125,0 0.27125,0.0188 0.39,0.0563 0.12,0.0375 0.22625,0.095 0.3175,0.17125 0.0888,0.075 0.15375,0.16125 0.1975,0.2575 0.0425,0.095 0.0662,0.2075 0.0688,0.33875 0,0.155 -0.035,0.28875 -0.10625,0.4 -0.07,0.1125 -0.16625,0.20375 -0.28875,0.27375 0.19375,0.055 0.34125,0.155 0.44375,0.30125 0.1025,0.145 0.15375,0.315 0.15375,0.51 0,0.185 -0.0362,0.34125 -0.11,0.46875 -0.0737,0.1275 -0.17625,0.235 -0.30875,0.32375 -0.10375,0.0688 -0.2225,0.1225 -0.35625,0.15625 -0.1325,0.035 -0.2675,0.0538 -0.40125,0.0575 -0.29125,0 -0.53625,-0.0662 -0.73625,-0.19875 -0.19875,-0.13125 -0.3575,-0.3225 -0.4775,-0.57125 l 0.4325,-0.22375 c 0.07,0.1825 0.1775,0.3175 0.32125,0.40625 0.14375,0.0875 0.31125,0.1325 0.50125,0.1325 0.0738,0 0.1475,-0.01 0.2225,-0.0275 0.075,-0.0188 0.13875,-0.0438 0.19125,-0.0775 0.07,-0.0425 0.125,-0.0987 0.165,-0.16625 0.04,-0.0687 0.06,-0.15125 0.06,-0.24875 -0.004,-0.17875 -0.0663,-0.315 -0.18875,-0.4075 -0.1225,-0.0925 -0.3125,-0.13875 -0.57,-0.13875 l -0.28875,0 0,-0.455 0.28875,0 c 0.1725,0.002 0.31,-0.0387 0.41625,-0.12625 0.10625,-0.0863 0.15875,-0.20375 0.15875,-0.3525 0,-0.055 -0.01,-0.105 -0.0275,-0.15 -0.0187,-0.0463 -0.0463,-0.0875 -0.0825,-0.1275 -0.05,-0.0425 -0.105,-0.075 -0.16625,-0.0963 -0.0613,-0.0212 -0.13375,-0.0312 -0.21625,-0.0312 -0.15,0 -0.27625,0.0275 -0.38125,0.0838 -0.10375,0.0563 -0.19375,0.13625 -0.27125,0.24 z m 2.835,-0.71625 2.01375,0 0,2.73375 0.3575,0 0,1.175 -0.46,0 0,-0.72 -2.0775,0 0,0.72 -0.45875,0 0,-1.175 c 0.11,0 0.21,-0.04 0.29875,-0.11875 0.0888,-0.0788 0.15875,-0.18375 0.21125,-0.31375 0.04,-0.0975 0.0687,-0.2125 0.0875,-0.345 0.0175,-0.13125 0.0275,-0.29625 0.0275,-0.49375 l 0,-1.4625 z m 0.49625,0.45625 0,1.01125 c 0,0.185 -0.01,0.3525 -0.0275,0.5 -0.0187,0.14875 -0.0475,0.27875 -0.0875,0.3875 -0.03,0.0825 -0.0663,0.15375 -0.10625,0.215 -0.0388,0.06 -0.0888,0.115 -0.14625,0.16375 l 1.3875,0 0,-2.2775 -1.02,0 z m 4.18125,-0.45625 0,0.45625 -1.27875,0 0,0.765 1.24125,0 0,0.455 -1.24125,0 0,1.0575 1.27875,0 0,0.455 -1.775,0 0,-3.18875 1.775,0 z m 1.0325,0 2.05375,0 0,3.18875 -0.49625,0 0,-2.7325 -1.06125,0 0,1.58875 c 0,0.28 -0.0263,0.49 -0.08,0.63125 -0.0538,0.14125 -0.13625,0.2575 -0.24625,0.34875 -0.0763,0.0637 -0.1625,0.11125 -0.2575,0.1425 -0.095,0.0325 -0.1975,0.0487 -0.3075,0.0487 -0.0438,0 -0.0838,-0.004 -0.1225,-0.01 -0.0375,-0.005 -0.075,-0.0113 -0.1125,-0.0175 l 0,-0.455 c 0.0312,0.009 0.06,0.015 0.0875,0.02 0.0275,0.004 0.0525,0.006 0.0737,0.006 0.055,0 0.1125,-0.01 0.17,-0.03 0.0588,-0.0188 0.10375,-0.0437 0.1375,-0.0738 0.055,-0.0525 0.0962,-0.135 0.1225,-0.24875 0.0263,-0.11375 0.0387,-0.2825 0.0387,-0.5075 l 0,-1.9 z m 5.05875,3.18875 0,-2.15 -2.17,2.28625 0,-3.325 0.49625,0 0,2.15 2.17,-2.28625 0,3.325 -0.49625,0 z m 3.5,0 0,-2.15 -2.16875,2.28625 0,-3.325 0.49625,0 0,2.15 2.16875,-2.28625 0,3.325 -0.49625,0 z m -1.63125,-3.97625 0.38625,-0.1675 c 0.0238,0.085 0.0738,0.15 0.14875,0.195 0.075,0.0462 0.16125,0.0688 0.26,0.0688 0.095,0 0.18,-0.0225 0.255,-0.0688 0.075,-0.045 0.12625,-0.11 0.155,-0.195 l 0.385,0.1675 c -0.0613,0.14875 -0.16125,0.2675 -0.3,0.355 -0.14,0.0888 -0.305,0.1325 -0.495,0.1325 -0.1925,0.004 -0.35875,-0.04 -0.49875,-0.13 -0.13875,-0.0888 -0.2375,-0.20875 -0.29625,-0.3575"
         style="fill:#ffffff;fill-opacity:1;fill-rule:nonzero;stroke:none"
         id="path60"
         inkscape:connector-curvature="0" />
      <path
         d="m 516.41085,484.8771 19.8565,0 0,-0.81494 -19.8565,0 0,0.81494 z"
         style="fill:#ffffff;fill-opacity:1;fill-rule:evenodd;stroke:none"
         id="path66"
         inkscape:connector-curvature="0" />
    </g>
  </g>
  <g
     inkscape:groupmode="layer"
     id="layer2"
     inkscape:label="Layer 2"
     style="display:inline">
    <g
       style="font-style:normal;font-variant:normal;font-weight:normal;font-stretch:normal;font-size:10px;line-height:100%;font-family:FuturaFuturisC;-inkscape-font-specification:'FuturaFuturisC, Normal';text-align:start;letter-spacing:0px;word-spacing:0px;writing-mode:lr-tb;text-anchor:start;display:inline;fill:#ffffff;fill-opacity:1;stroke:none;stroke-width:1px;stroke-linecap:butt;stroke-linejoin:miter;stroke-opacity:1"
       id="text6488">
      <path
         d="m 160.60247,20.312464 -4.7,0 2.44,-2.94 q 0.22,-0.26 0.44,-0.53 0.22,-0.28 0.4,-0.56 0.11,-0.16 0.22,-0.4 0.12,-0.24 0.12,-0.59 0,-0.22 -0.08,-0.43 -0.07,-0.21 -0.22,-0.37 -0.14,-0.17 -0.36,-0.26 -0.21,-0.1 -0.49,-0.1 -0.24,0 -0.46,0.09 -0.22,0.09 -0.39,0.26 -0.16,0.16 -0.27,0.4 -0.1,0.23 -0.11,0.53 l -1.04,0 q 0.02,-0.45 0.17,-0.84 0.16,-0.39 0.42,-0.69 0.3,-0.35 0.7,-0.53 0.41,-0.18 0.97,-0.18 0.55,0 0.96,0.18 0.42,0.17 0.7,0.46 0.28,0.29 0.42,0.68 0.14,0.39 0.14,0.81 0,0.41 -0.13,0.76 -0.13,0.35 -0.37,0.71 -0.19,0.29 -0.44,0.59 -0.24,0.29 -0.56,0.67 l -1.12,1.32 2.64,0 0,0.96 z"
         style="fill:#ffffff;fill-opacity:1"
         id="path5557" />
      <path
         d="m 163.66091,14.132464 q -0.32,0 -0.55,0.16 -0.22,0.16 -0.39,0.42 -0.17,0.26 -0.27,0.55 -0.09,0.29 -0.14,0.58 -0.05,0.28 -0.07,0.54 -0.01,0.25 -0.01,0.42 0,0.18 0.01,0.44 0.02,0.25 0.07,0.54 0.05,0.28 0.14,0.58 0.1,0.29 0.27,0.55 0.17,0.26 0.39,0.42 0.23,0.16 0.55,0.16 0.32,0 0.54,-0.16 0.23,-0.16 0.4,-0.42 0.17,-0.26 0.26,-0.55 0.1,-0.3 0.15,-0.58 0.05,-0.29 0.06,-0.54 0.02,-0.26 0.02,-0.44 0,-0.17 -0.02,-0.42 -0.01,-0.26 -0.06,-0.54 -0.05,-0.29 -0.15,-0.58 -0.09,-0.29 -0.26,-0.55 -0.17,-0.26 -0.4,-0.42 -0.22,-0.16 -0.54,-0.16 z m 0,6.32 q -0.48,0 -0.86,-0.19 -0.38,-0.19 -0.72,-0.57 -0.29,-0.32 -0.47,-0.68 -0.17,-0.36 -0.27,-0.72 -0.1,-0.37 -0.14,-0.74 -0.03,-0.38 -0.03,-0.73 0,-0.35 0.03,-0.72 0.04,-0.38 0.14,-0.75 0.1,-0.38 0.27,-0.74 0.18,-0.36 0.47,-0.68 0.66,-0.76 1.58,-0.76 0.92,0 1.58,0.76 0.28,0.32 0.46,0.68 0.18,0.36 0.28,0.74 0.1,0.37 0.13,0.75 0.04,0.37 0.04,0.72 0,0.35 -0.04,0.73 -0.03,0.37 -0.13,0.74 -0.1,0.36 -0.28,0.72 -0.18,0.36 -0.46,0.68 -0.34,0.38 -0.72,0.57 -0.38,0.19 -0.86,0.19 z"
         style="fill:#ffffff;fill-opacity:1"
         id="path5559" />
      <path
         d="m 168.04643,14.292464 -1.2,0 0.58,-0.98 1.7,0 0,7 -1.08,0 0,-6.02 z"
         style="fill:#ffffff;fill-opacity:1"
         id="path5561" />
      <path
         d="m 172.91485,16.832464 q -0.57,0 -0.93,0.37 -0.35,0.36 -0.35,0.96 0,0.29 0.09,0.54 0.1,0.24 0.27,0.42 0.17,0.17 0.4,0.27 0.24,0.1 0.53,0.1 0.28,0 0.52,-0.1 0.24,-0.1 0.41,-0.27 0.17,-0.18 0.26,-0.42 0.1,-0.25 0.1,-0.54 0,-0.59 -0.36,-0.96 -0.35,-0.37 -0.94,-0.37 z m 1.56,-3.18 -1.67,2.25 q 0.18,-0.03 0.35,-0.03 0.37,0 0.75,0.13 0.38,0.13 0.68,0.4 0.31,0.27 0.5,0.7 0.19,0.42 0.19,1 0,0.49 -0.16,0.92 -0.16,0.43 -0.46,0.75 -0.3,0.31 -0.73,0.5 -0.43,0.18 -0.98,0.18 -0.5,0 -0.93,-0.16 -0.43,-0.16 -0.75,-0.46 -0.32,-0.3 -0.51,-0.72 -0.18,-0.42 -0.18,-0.94 0,-0.5 0.18,-0.91 0.19,-0.41 0.51,-0.86 l 2.44,-3.33 0.77,0.58 z"
         style="fill:#ffffff;fill-opacity:1"
         id="path5563" />
    </g>
    <g
       style="font-style:normal;font-variant:normal;font-weight:normal;font-stretch:normal;font-size:10px;line-height:125%;font-family:FuturaFuturisC;-inkscape-font-specification:'FuturaFuturisC, Normal';text-align:start;letter-spacing:0px;word-spacing:0px;writing-mode:lr-tb;text-anchor:start;fill:#ffffff;fill-opacity:1;stroke:none;stroke-width:1px;stroke-linecap:butt;stroke-linejoin:miter;stroke-opacity:1"
       id="text7295">
      <path
         d="m 163.3001,1.6501363 q -0.32,0 -0.55,0.16 -0.22,0.16 -0.39,0.42 -0.17,0.26 -0.27,0.55 -0.09,0.29 -0.14,0.58 -0.05,0.28 -0.07,0.54 -0.01,0.25 -0.01,0.42 0,0.18 0.01,0.44 0.02,0.25 0.07,0.54 0.05,0.28 0.14,0.58 0.1,0.29 0.27,0.55 0.17,0.26 0.39,0.42 0.23,0.16 0.55,0.16 0.32,0 0.54,-0.16 0.23,-0.16 0.4,-0.42 0.17,-0.26 0.26,-0.55 0.1,-0.3 0.15,-0.58 0.05,-0.29 0.06,-0.54 0.02,-0.26 0.02,-0.44 0,-0.17 -0.02,-0.42 -0.01,-0.26 -0.06,-0.54 -0.05,-0.29 -0.15,-0.58 -0.09,-0.29 -0.26,-0.55 -0.17,-0.26 -0.4,-0.42 -0.22,-0.16 -0.54,-0.16 z m 0,6.32 q -0.48,0 -0.86,-0.19 -0.38,-0.19 -0.72,-0.57 -0.29,-0.32 -0.47,-0.68 -0.17,-0.36 -0.27,-0.72 -0.1,-0.37 -0.14,-0.74 -0.03,-0.38 -0.03,-0.73 0,-0.35 0.03,-0.72 0.04,-0.38 0.14,-0.75 0.1,-0.38 0.27,-0.74 0.18,-0.36 0.47,-0.68 0.66,-0.76 1.58,-0.76 0.92,0 1.58,0.76 0.28,0.32 0.46,0.68 0.18,0.36 0.28,0.74 0.1,0.37 0.13,0.75 0.04,0.37 0.04,0.72 0,0.35 -0.04,0.73 -0.03,0.37 -0.13,0.74 -0.1,0.36 -0.28,0.72 -0.18,0.36 -0.46,0.68 -0.34,0.38 -0.72,0.57 -0.38,0.19 -0.86,0.19 z"
         style="fill:#ffffff;fill-opacity:1"
         id="path5552" />
      <path
         d="m 171.28854,7.8301363 -4.7,0 2.44,-2.94 q 0.22,-0.26 0.44,-0.53 0.22,-0.28 0.4,-0.56 0.11,-0.16 0.22,-0.4 0.12,-0.24 0.12,-0.59 0,-0.22 -0.08,-0.43 -0.07,-0.21 -0.22,-0.37 -0.14,-0.17 -0.36,-0.26 -0.21,-0.1 -0.49,-0.1 -0.24,0 -0.46,0.09 -0.22,0.09 -0.39,0.26 -0.16,0.16 -0.27,0.4 -0.1,0.23 -0.11,0.53 l -1.04,0 q 0.02,-0.45 0.17,-0.84 0.16,-0.39 0.42,-0.69 0.3,-0.35 0.7,-0.53 0.41,-0.18 0.97,-0.18 0.55,0 0.96,0.18 0.42,0.17 0.7,0.46 0.28,0.29 0.42,0.68 0.14,0.39 0.14,0.81 0,0.41 -0.13,0.76 -0.13,0.35 -0.37,0.71 -0.19,0.29 -0.44,0.59 -0.24,0.29 -0.56,0.67 l -1.12,1.32 2.64,0 0,0.96 z"
         style="fill:#ffffff;fill-opacity:1"
         id="path5554" />
    </g>
  </g>
</svg>
